<svg width="284" height="56" viewBox="0 0 284 56" fill="none" xmlns="http://www.w3.org/2000/svg">
<path d="M12.5 17.4993C6.70156 17.4993 2 22.2008 2 27.9993C2 33.7977 6.70156 38.4993 12.5 38.4993C18.2984 38.4993 23 33.7977 23 27.9993C23 22.2008 18.2984 17.4993 12.5 17.4993ZM12.5 36.718C7.68594 36.718 3.78125 32.8133 3.78125 27.9993C3.78125 23.1852 7.68594 19.2805 12.5 19.2805C17.3141 19.2805 21.2188 23.1852 21.2188 27.9993C21.2188 32.8133 17.3141 36.718 12.5 36.718ZM12.6312 24.2329C13.8734 24.2329 14.7172 25.025 14.8109 26.1875C14.818 26.286 14.9 26.361 14.9984 26.361H16.3273C16.3883 26.361 16.4375 26.3118 16.4375 26.2508C16.4375 24.2188 14.8344 22.7961 12.6242 22.7961C10.0484 22.7961 8.5625 24.5352 8.5625 27.4086V28.6344C8.5625 31.4868 10.0484 33.2024 12.6242 33.2024C14.8273 33.2024 16.4375 31.8243 16.4375 29.8883C16.4375 29.8274 16.3883 29.7782 16.3273 29.7782H14.9961C14.8977 29.7782 14.818 29.8532 14.8086 29.9493C14.7102 31.0297 13.8687 31.7727 12.6289 31.7727C11.0984 31.7727 10.2359 30.65 10.2359 28.6415V27.4086C10.2383 25.3696 11.1031 24.2329 12.6312 24.2329Z" fill="#767676"/>
<path d="M35.6293 32.9993V32.0405L39.2301 28.0987C39.6527 27.6371 40.0007 27.2358 40.2741 26.8949C40.5476 26.5504 40.75 26.2273 40.8814 25.9254C41.0163 25.62 41.0838 25.3004 41.0838 24.9666C41.0838 24.5831 40.9915 24.251 40.8068 23.9705C40.6257 23.69 40.3771 23.4733 40.0611 23.3206C39.745 23.1679 39.3899 23.0916 38.9957 23.0916C38.5767 23.0916 38.2109 23.1786 37.8984 23.3526C37.5895 23.5231 37.3498 23.7628 37.1793 24.0717C37.0124 24.3807 36.929 24.7429 36.929 25.1584H35.6719C35.6719 24.5192 35.8192 23.9581 36.114 23.4751C36.4087 22.9922 36.81 22.6157 37.3178 22.3459C37.8292 22.076 38.4027 21.941 39.0384 21.941C39.6776 21.941 40.244 22.076 40.7376 22.3459C41.2312 22.6157 41.6183 22.9797 41.8988 23.4378C42.1793 23.8959 42.3196 24.4055 42.3196 24.9666C42.3196 25.3679 42.2468 25.7603 42.1012 26.1438C41.9592 26.5238 41.7106 26.9481 41.3555 27.4169C41.0039 27.8821 40.5156 28.4503 39.8906 29.1214L37.4403 31.7422V31.8274H42.5114V32.9993H35.6293ZM48.2695 33.1484C47.467 33.1484 46.7834 32.93 46.2188 32.4932C45.6541 32.0529 45.2227 31.4155 44.9244 30.5809C44.6261 29.7429 44.4769 28.7308 44.4769 27.5447C44.4769 26.3657 44.6261 25.359 44.9244 24.5245C45.2262 23.6864 45.6594 23.0472 46.2241 22.6069C46.7923 22.163 47.4741 21.941 48.2695 21.941C49.065 21.941 49.745 22.163 50.3097 22.6069C50.8778 23.0472 51.3111 23.6864 51.6094 24.5245C51.9112 25.359 52.0621 26.3657 52.0621 27.5447C52.0621 28.7308 51.913 29.7429 51.6147 30.5809C51.3164 31.4155 50.8849 32.0529 50.3203 32.4932C49.7557 32.93 49.0721 33.1484 48.2695 33.1484ZM48.2695 31.9765C49.065 31.9765 49.6829 31.593 50.1232 30.826C50.5636 30.0589 50.7837 28.9652 50.7837 27.5447C50.7837 26.6001 50.6825 25.7958 50.4801 25.1317C50.2813 24.4677 49.9936 23.9616 49.6172 23.6136C49.2443 23.2656 48.7951 23.0916 48.2695 23.0916C47.4812 23.0916 46.8651 23.4804 46.4212 24.2581C45.9773 25.0323 45.7553 26.1278 45.7553 27.5447C45.7553 28.4893 45.8548 29.2919 46.0536 29.9524C46.2525 30.6129 46.5384 31.1154 46.9112 31.4598C47.2876 31.8043 47.7404 31.9765 48.2695 31.9765ZM54.0863 32.9993V32.0405L57.6871 28.0987C58.1097 27.6371 58.4577 27.2358 58.7312 26.8949C59.0046 26.5504 59.207 26.2273 59.3384 25.9254C59.4734 25.62 59.5408 25.3004 59.5408 24.9666C59.5408 24.5831 59.4485 24.251 59.2638 23.9705C59.0827 23.69 58.8342 23.4733 58.5181 23.3206C58.2021 23.1679 57.8469 23.0916 57.4528 23.0916C57.0337 23.0916 56.668 23.1786 56.3555 23.3526C56.0465 23.5231 55.8068 23.7628 55.6364 24.0717C55.4695 24.3807 55.386 24.7429 55.386 25.1584H54.1289C54.1289 24.5192 54.2763 23.9581 54.571 23.4751C54.8658 22.9922 55.267 22.6157 55.7749 22.3459C56.2862 22.076 56.8597 21.941 57.4954 21.941C58.1346 21.941 58.701 22.076 59.1946 22.3459C59.6882 22.6157 60.0753 22.9797 60.3558 23.4378C60.6364 23.8959 60.7766 24.4055 60.7766 24.9666C60.7766 25.3679 60.7038 25.7603 60.5582 26.1438C60.4162 26.5238 60.1676 26.9481 59.8125 27.4169C59.4609 27.8821 58.9727 28.4503 58.3477 29.1214L55.8974 31.7422V31.8274H60.9684V32.9993H54.0863ZM62.9126 30.7621V29.6754L67.7067 22.0902H68.495V23.7734H67.9624L64.3402 29.5049V29.5902H70.7962V30.7621H62.9126ZM68.0476 32.9993V30.4318V29.9258V22.0902H69.3047V32.9993H68.0476ZM85.9813 25.4993H84.6602C84.5821 25.1193 84.4454 24.7855 84.2501 24.4978C84.0583 24.2102 83.824 23.9687 83.547 23.7734C83.2735 23.5746 82.9699 23.4254 82.6361 23.326C82.3023 23.2265 81.9543 23.1768 81.5921 23.1768C80.9316 23.1768 80.3332 23.3437 79.797 23.6775C79.2643 24.0113 78.8399 24.5032 78.5239 25.153C78.2114 25.8029 78.0551 26.6001 78.0551 27.5447C78.0551 28.4893 78.2114 29.2866 78.5239 29.9364C78.8399 30.5863 79.2643 31.0781 79.797 31.4119C80.3332 31.7457 80.9316 31.9126 81.5921 31.9126C81.9543 31.9126 82.3023 31.8629 82.6361 31.7635C82.9699 31.664 83.2735 31.5167 83.547 31.3214C83.824 31.1225 84.0583 30.8792 84.2501 30.5916C84.4454 30.3004 84.5821 29.9666 84.6602 29.5902H85.9813C85.8818 30.1477 85.7007 30.6466 85.4379 31.087C85.1752 31.5273 84.8485 31.902 84.4578 32.2109C84.0672 32.5163 83.6286 32.7489 83.1421 32.9087C82.6592 33.0685 82.1425 33.1484 81.5921 33.1484C80.6617 33.1484 79.8343 32.9211 79.1098 32.4666C78.3854 32.0121 77.8154 31.3657 77.3999 30.5277C76.9845 29.6896 76.7767 28.6953 76.7767 27.5447C76.7767 26.3942 76.9845 25.3998 77.3999 24.5618C77.8154 23.7237 78.3854 23.0774 79.1098 22.6228C79.8343 22.1683 80.6617 21.941 81.5921 21.941C82.1425 21.941 82.6592 22.0209 83.1421 22.1807C83.6286 22.3405 84.0672 22.5749 84.4578 22.8839C84.8485 23.1893 85.1752 23.5621 85.4379 24.0025C85.7007 24.4393 85.8818 24.9382 85.9813 25.4993ZM91.2694 33.1697C90.5307 33.1697 89.8826 32.9939 89.3251 32.6424C88.7711 32.2908 88.3379 31.799 88.0254 31.1669C87.7164 30.5348 87.562 29.7961 87.562 28.951C87.562 28.0987 87.7164 27.3547 88.0254 26.7191C88.3379 26.0834 88.7711 25.5898 89.3251 25.2383C89.8826 24.8867 90.5307 24.7109 91.2694 24.7109C92.008 24.7109 92.6543 24.8867 93.2083 25.2383C93.7658 25.5898 94.199 26.0834 94.508 26.7191C94.8205 27.3547 94.9767 28.0987 94.9767 28.951C94.9767 29.7961 94.8205 30.5348 94.508 31.1669C94.199 31.799 93.7658 32.2908 93.2083 32.6424C92.6543 32.9939 92.008 33.1697 91.2694 33.1697ZM91.2694 32.0405C91.8304 32.0405 92.2921 31.8966 92.6543 31.609C93.0165 31.3214 93.2846 30.9432 93.4586 30.4744C93.6326 30.0057 93.7196 29.4978 93.7196 28.951C93.7196 28.4041 93.6326 27.8945 93.4586 27.4222C93.2846 26.9499 93.0165 26.5682 92.6543 26.277C92.2921 25.9858 91.8304 25.8402 91.2694 25.8402C90.7083 25.8402 90.2466 25.9858 89.8844 26.277C89.5222 26.5682 89.2541 26.9499 89.0801 27.4222C88.9061 27.8945 88.8191 28.4041 88.8191 28.951C88.8191 29.4978 88.9061 30.0057 89.0801 30.4744C89.2541 30.9432 89.5222 31.3214 89.8844 31.609C90.2466 31.8966 90.7083 32.0405 91.2694 32.0405ZM96.8957 36.0674V24.8174H98.1102V26.1172H98.2593C98.3517 25.9751 98.4795 25.794 98.6428 25.5738C98.8097 25.3501 99.0477 25.1513 99.3566 24.9773C99.6691 24.7997 100.092 24.7109 100.624 24.7109C101.313 24.7109 101.921 24.8831 102.446 25.2276C102.972 25.5721 103.382 26.0603 103.677 26.6924C103.971 27.3246 104.119 28.0703 104.119 28.9297C104.119 29.7961 103.971 30.5472 103.677 31.1829C103.382 31.815 102.973 32.305 102.451 32.653C101.929 32.9975 101.328 33.1697 100.646 33.1697C100.12 33.1697 99.6993 33.0827 99.3833 32.9087C99.0672 32.7312 98.824 32.5305 98.6535 32.3068C98.483 32.0795 98.3517 31.8913 98.2593 31.7422H98.1528V36.0674H96.8957ZM98.1315 28.9084C98.1315 29.5263 98.222 30.0714 98.4031 30.5437C98.5843 31.0124 98.8488 31.3799 99.1968 31.6463C99.5448 31.9091 99.971 32.0405 100.475 32.0405C101.001 32.0405 101.439 31.902 101.791 31.625C102.146 31.3444 102.412 30.968 102.59 30.4957C102.771 30.0199 102.862 29.4907 102.862 28.9084C102.862 28.3331 102.773 27.8146 102.595 27.353C102.421 26.8878 102.157 26.5202 101.802 26.2503C101.45 25.9769 101.008 25.8402 100.475 25.8402C99.9639 25.8402 99.5342 25.9698 99.1862 26.229C98.8382 26.4847 98.5754 26.8434 98.3978 27.305C98.2203 27.7631 98.1315 28.2976 98.1315 28.9084ZM106.846 36.0674C106.633 36.0674 106.443 36.0497 106.276 36.0142C106.109 35.9822 105.994 35.9503 105.93 35.9183L106.249 34.8103C106.555 34.8885 106.825 34.9169 107.059 34.8956C107.293 34.8743 107.501 34.7695 107.682 34.5813C107.867 34.3966 108.036 34.0966 108.188 33.6811L108.423 33.0419L105.397 24.8174H106.761L109.019 31.3373H109.104L111.363 24.8174H112.727L109.254 34.1924C109.097 34.615 108.904 34.9648 108.673 35.2418C108.442 35.5224 108.174 35.7301 107.869 35.865C107.567 36 107.226 36.0674 106.846 36.0674ZM114.386 32.9993V24.8174H115.6V26.0532H115.686C115.835 25.6484 116.105 25.3199 116.495 25.0678C116.886 24.8157 117.326 24.6896 117.816 24.6896C117.909 24.6896 118.024 24.6914 118.163 24.6949C118.301 24.6985 118.406 24.7038 118.477 24.7109V25.9893C118.434 25.9787 118.337 25.9627 118.184 25.9414C118.035 25.9165 117.877 25.9041 117.71 25.9041C117.312 25.9041 116.957 25.9875 116.644 26.1545C116.335 26.3178 116.09 26.5451 115.909 26.8363C115.732 27.1239 115.643 27.4524 115.643 27.8217V32.9993H114.386ZM119.967 32.9993V24.8174H121.224V32.9993H119.967ZM120.606 23.4538C120.361 23.4538 120.15 23.3704 119.972 23.2035C119.798 23.0366 119.711 22.8359 119.711 22.6015C119.711 22.3672 119.798 22.1665 119.972 21.9996C120.15 21.8327 120.361 21.7493 120.606 21.7493C120.851 21.7493 121.061 21.8327 121.235 21.9996C121.412 22.1665 121.501 22.3672 121.501 22.6015C121.501 22.8359 121.412 23.0366 121.235 23.2035C121.061 23.3704 120.851 23.4538 120.606 23.4538ZM126.829 36.2379C126.222 36.2379 125.7 36.1598 125.263 36.0035C124.826 35.8508 124.462 35.6484 124.171 35.3963C123.883 35.1477 123.654 34.8814 123.484 34.5973L124.485 33.8942C124.599 34.0433 124.743 34.2138 124.917 34.4055C125.091 34.6008 125.329 34.7695 125.631 34.9116C125.936 35.0572 126.335 35.1299 126.829 35.1299C127.49 35.1299 128.035 34.9701 128.464 34.6505C128.894 34.3309 129.109 33.8302 129.109 33.1484V31.4865H129.002C128.91 31.6356 128.779 31.8203 128.608 32.0405C128.441 32.2571 128.2 32.4506 127.884 32.6211C127.571 32.788 127.149 32.8714 126.616 32.8714C125.956 32.8714 125.362 32.7152 124.837 32.4027C124.315 32.0902 123.901 31.6356 123.596 31.039C123.294 30.4424 123.143 29.718 123.143 28.8657C123.143 28.0277 123.29 27.2979 123.585 26.6765C123.88 26.0515 124.29 25.5685 124.816 25.2276C125.341 24.8831 125.948 24.7109 126.637 24.7109C127.17 24.7109 127.593 24.7997 127.905 24.9773C128.221 25.1513 128.463 25.3501 128.63 25.5738C128.8 25.794 128.931 25.9751 129.024 26.1172H129.152V24.8174H130.366V33.2336C130.366 33.9368 130.206 34.5085 129.887 34.9488C129.571 35.3927 129.144 35.7177 128.608 35.9236C128.076 36.1331 127.483 36.2379 126.829 36.2379ZM126.786 31.7422C127.291 31.7422 127.717 31.6268 128.065 31.3959C128.413 31.1651 128.677 30.8331 128.859 30.3998C129.04 29.9666 129.13 29.4481 129.13 28.8444C129.13 28.2549 129.041 27.7347 128.864 27.2837C128.686 26.8327 128.424 26.4794 128.076 26.2237C127.728 25.968 127.298 25.8402 126.786 25.8402C126.254 25.8402 125.81 25.9751 125.455 26.245C125.103 26.5149 124.839 26.8771 124.661 27.3317C124.487 27.7862 124.4 28.2905 124.4 28.8444C124.4 29.4126 124.489 29.9151 124.666 30.3519C124.848 30.7851 125.114 31.126 125.465 31.3746C125.821 31.6197 126.261 31.7422 126.786 31.7422ZM133.924 28.0774V32.9993H132.667V22.0902H133.924V26.0959H134.031C134.223 25.6733 134.51 25.3377 134.894 25.0891C135.281 24.837 135.796 24.7109 136.438 24.7109C136.996 24.7109 137.484 24.8228 137.903 25.0465C138.322 25.2667 138.647 25.6058 138.878 26.0639C139.112 26.5184 139.23 27.0973 139.23 27.8004V32.9993H137.973V27.8856C137.973 27.2358 137.804 26.7333 137.467 26.3782C137.133 26.0195 136.669 25.8402 136.076 25.8402C135.664 25.8402 135.295 25.9272 134.968 26.1012C134.645 26.2752 134.389 26.5291 134.201 26.8629C134.017 27.1967 133.924 27.6015 133.924 28.0774ZM145.088 24.8174V25.8828H140.848V24.8174H145.088ZM142.083 22.8572H143.341V30.6555C143.341 31.0106 143.392 31.277 143.495 31.4545C143.602 31.6285 143.737 31.7457 143.9 31.8061C144.067 31.8629 144.243 31.8913 144.427 31.8913C144.566 31.8913 144.679 31.8842 144.768 31.87C144.857 31.8523 144.928 31.838 144.981 31.8274L145.237 32.9567C145.152 32.9886 145.033 33.0206 144.88 33.0525C144.727 33.088 144.534 33.1058 144.299 33.1058C143.944 33.1058 143.596 33.0295 143.255 32.8768C142.918 32.7241 142.637 32.4915 142.414 32.179C142.194 31.8665 142.083 31.4723 142.083 30.9964V22.8572ZM148.854 31.5078L148.768 32.0831C148.708 32.4879 148.616 32.9211 148.491 33.3828C148.371 33.8444 148.245 34.2795 148.113 34.6878C147.982 35.0962 147.874 35.4211 147.788 35.6626H146.83C146.876 35.4353 146.936 35.1353 147.011 34.7624C147.085 34.3895 147.16 33.9723 147.234 33.5106C147.312 33.0525 147.376 32.5838 147.426 32.1044L147.49 31.5078H148.854ZM156.019 32.9993H154.634L158.64 22.0902H160.004L164.009 32.9993H162.625L159.365 23.816H159.279L156.019 32.9993ZM156.531 28.7379H162.113V29.9098H156.531V28.7379ZM166.795 22.0902V32.9993H165.538V22.0902H166.795ZM170.355 22.0902V32.9993H169.098V22.0902H170.355ZM177.047 32.9993V22.0902H180.733C181.585 22.0902 182.285 22.2358 182.831 22.527C183.378 22.8146 183.783 23.2106 184.046 23.7148C184.309 24.2191 184.44 24.7926 184.44 25.4353C184.44 26.0781 184.309 26.6481 184.046 27.1452C183.783 27.6424 183.38 28.033 182.837 28.3171C182.293 28.5976 181.599 28.7379 180.754 28.7379H177.771V27.5447H180.711C181.294 27.5447 181.763 27.4595 182.118 27.289C182.476 27.1186 182.736 26.8771 182.895 26.5646C183.059 26.2486 183.14 25.8721 183.14 25.4353C183.14 24.9986 183.059 24.6168 182.895 24.2901C182.732 23.9634 182.471 23.7113 182.112 23.5337C181.754 23.3526 181.28 23.2621 180.69 23.2621H178.368V32.9993H177.047ZM182.182 28.0987L184.866 32.9993H183.332L180.69 28.0987H182.182ZM186.471 32.9993V24.8174H187.728V32.9993H186.471ZM187.11 23.4538C186.865 23.4538 186.654 23.3704 186.476 23.2035C186.302 23.0366 186.215 22.8359 186.215 22.6015C186.215 22.3672 186.302 22.1665 186.476 21.9996C186.654 21.8327 186.865 21.7493 187.11 21.7493C187.355 21.7493 187.565 21.8327 187.739 21.9996C187.916 22.1665 188.005 22.3672 188.005 22.6015C188.005 22.8359 187.916 23.0366 187.739 23.2035C187.565 23.3704 187.355 23.4538 187.11 23.4538ZM193.333 36.2379C192.726 36.2379 192.204 36.1598 191.767 36.0035C191.33 35.8508 190.966 35.6484 190.675 35.3963C190.387 35.1477 190.158 34.8814 189.988 34.5973L190.989 33.8942C191.103 34.0433 191.247 34.2138 191.421 34.4055C191.595 34.6008 191.833 34.7695 192.134 34.9116C192.44 35.0572 192.839 35.1299 193.333 35.1299C193.994 35.1299 194.539 34.9701 194.968 34.6505C195.398 34.3309 195.613 33.8302 195.613 33.1484V31.4865H195.506C195.414 31.6356 195.283 31.8203 195.112 32.0405C194.945 32.2571 194.704 32.4506 194.388 32.6211C194.075 32.788 193.653 32.8714 193.12 32.8714C192.459 32.8714 191.866 32.7152 191.341 32.4027C190.819 32.0902 190.405 31.6356 190.1 31.039C189.798 30.4424 189.647 29.718 189.647 28.8657C189.647 28.0277 189.794 27.2979 190.089 26.6765C190.384 26.0515 190.794 25.5685 191.32 25.2276C191.845 24.8831 192.452 24.7109 193.141 24.7109C193.674 24.7109 194.097 24.7997 194.409 24.9773C194.725 25.1513 194.967 25.3501 195.133 25.5738C195.304 25.794 195.435 25.9751 195.528 26.1172H195.655V24.8174H196.87V33.2336C196.87 33.9368 196.71 34.5085 196.391 34.9488C196.074 35.3927 195.648 35.7177 195.112 35.9236C194.579 36.1331 193.986 36.2379 193.333 36.2379ZM193.29 31.7422C193.795 31.7422 194.221 31.6268 194.569 31.3959C194.917 31.1651 195.181 30.8331 195.362 30.3998C195.544 29.9666 195.634 29.4481 195.634 28.8444C195.634 28.2549 195.545 27.7347 195.368 27.2837C195.19 26.8327 194.927 26.4794 194.579 26.2237C194.231 25.968 193.802 25.8402 193.29 25.8402C192.758 25.8402 192.314 25.9751 191.959 26.245C191.607 26.5149 191.343 26.8771 191.165 27.3317C190.991 27.7862 190.904 28.2905 190.904 28.8444C190.904 29.4126 190.993 29.9151 191.17 30.3519C191.351 30.7851 191.618 31.126 191.969 31.3746C192.324 31.6197 192.765 31.7422 193.29 31.7422ZM200.428 28.0774V32.9993H199.171V22.0902H200.428V26.0959H200.535C200.726 25.6733 201.014 25.3377 201.398 25.0891C201.785 24.837 202.3 24.7109 202.942 24.7109C203.5 24.7109 203.988 24.8228 204.407 25.0465C204.826 25.2667 205.151 25.6058 205.382 26.0639C205.616 26.5184 205.734 27.0973 205.734 27.8004V32.9993H204.476V27.8856C204.476 27.2358 204.308 26.7333 203.97 26.3782C203.637 26.0195 203.173 25.8402 202.58 25.8402C202.168 25.8402 201.799 25.9272 201.472 26.1012C201.149 26.2752 200.893 26.5291 200.705 26.8629C200.521 27.1967 200.428 27.6015 200.428 28.0774ZM211.592 24.8174V25.8828H207.352V24.8174H211.592ZM208.587 22.8572H209.844V30.6555C209.844 31.0106 209.896 31.277 209.999 31.4545C210.105 31.6285 210.24 31.7457 210.404 31.8061C210.571 31.8629 210.746 31.8913 210.931 31.8913C211.07 31.8913 211.183 31.8842 211.272 31.87C211.361 31.8523 211.432 31.838 211.485 31.8274L211.741 32.9567C211.656 32.9886 211.537 33.0206 211.384 33.0525C211.231 33.088 211.038 33.1058 210.803 33.1058C210.448 33.1058 210.1 33.0295 209.759 32.8768C209.422 32.7241 209.141 32.4915 208.918 32.179C208.697 31.8665 208.587 31.4723 208.587 30.9964V22.8572ZM217.872 32.9993V22.0902H221.558C222.41 22.0902 223.11 22.2358 223.657 22.527C224.203 22.8146 224.608 23.2106 224.871 23.7148C225.134 24.2191 225.265 24.7926 225.265 25.4353C225.265 26.0781 225.134 26.6481 224.871 27.1452C224.608 27.6424 224.205 28.033 223.662 28.3171C223.119 28.5976 222.424 28.7379 221.579 28.7379H218.596V27.5447H221.537C222.119 27.5447 222.588 27.4595 222.943 27.289C223.301 27.1186 223.561 26.8771 223.721 26.5646C223.884 26.2486 223.966 25.8721 223.966 25.4353C223.966 24.9986 223.884 24.6168 223.721 24.2901C223.557 23.9634 223.296 23.7113 222.938 23.5337C222.579 23.3526 222.105 23.2621 221.515 23.2621H219.193V32.9993H217.872ZM223.007 28.0987L225.691 32.9993H224.157L221.515 28.0987H223.007ZM230.726 33.1697C229.938 33.1697 229.258 32.9957 228.686 32.6477C228.118 32.2961 227.68 31.8061 227.371 31.1775C227.065 30.5454 226.913 29.8103 226.913 28.9723C226.913 28.1342 227.065 27.3956 227.371 26.7564C227.68 26.1136 228.109 25.6129 228.66 25.2542C229.214 24.892 229.86 24.7109 230.599 24.7109C231.025 24.7109 231.446 24.7819 231.861 24.924C232.277 25.066 232.655 25.2969 232.996 25.6165C233.337 25.9325 233.608 26.3515 233.811 26.8736C234.013 27.3956 234.114 28.0383 234.114 28.8018V29.3345H227.807V28.2478H232.836C232.836 27.7862 232.744 27.3743 232.559 27.0121C232.378 26.6498 232.119 26.364 231.781 26.1545C231.447 25.9449 231.053 25.8402 230.599 25.8402C230.098 25.8402 229.665 25.9645 229.299 26.213C228.937 26.4581 228.658 26.7777 228.463 27.1719C228.267 27.566 228.17 27.9886 228.17 28.4396V29.164C228.17 29.7819 228.276 30.3057 228.489 30.7354C228.706 31.1616 229.006 31.4865 229.389 31.7102C229.773 31.9304 230.219 32.0405 230.726 32.0405C231.057 32.0405 231.355 31.9943 231.621 31.902C231.891 31.8061 232.124 31.664 232.319 31.4758C232.514 31.2841 232.665 31.0461 232.772 30.7621L233.986 31.103C233.859 31.5149 233.644 31.8771 233.342 32.1896C233.04 32.4986 232.667 32.74 232.223 32.914C231.779 33.0845 231.28 33.1697 230.726 33.1697ZM241.822 26.6498L240.693 26.9694C240.622 26.7812 240.517 26.5983 240.378 26.4208C240.244 26.2397 240.059 26.0905 239.824 25.9733C239.59 25.8562 239.29 25.7976 238.924 25.7976C238.424 25.7976 238.006 25.913 237.672 26.1438C237.342 26.3711 237.177 26.6605 237.177 27.0121C237.177 27.3246 237.291 27.5714 237.518 27.7525C237.745 27.9336 238.1 28.0845 238.583 28.2052L239.798 28.5035C240.529 28.6811 241.074 28.9527 241.433 29.3185C241.792 29.6807 241.971 30.1477 241.971 30.7194C241.971 31.1882 241.836 31.6072 241.566 31.9765C241.3 32.3459 240.927 32.6371 240.448 32.8501C239.968 33.0632 239.411 33.1697 238.775 33.1697C237.941 33.1697 237.25 32.9886 236.703 32.6264C236.156 32.2642 235.81 31.7351 235.664 31.039L236.858 30.7407C236.971 31.1811 237.186 31.5113 237.502 31.7315C237.822 31.9517 238.239 32.0618 238.754 32.0618C239.34 32.0618 239.805 31.9375 240.149 31.6889C240.497 31.4368 240.671 31.1349 240.671 30.7834C240.671 30.4993 240.572 30.2613 240.373 30.0696C240.174 29.8743 239.869 29.7287 239.457 29.6328L238.093 29.3132C237.344 29.1356 236.794 28.8604 236.442 28.4875C236.094 28.1111 235.92 27.6406 235.92 27.076C235.92 26.6143 236.05 26.2059 236.309 25.8508C236.572 25.4957 236.929 25.217 237.38 25.0145C237.834 24.8121 238.349 24.7109 238.924 24.7109C239.734 24.7109 240.37 24.8885 240.831 25.2436C241.296 25.5987 241.627 26.0674 241.822 26.6498ZM247.294 33.1697C246.506 33.1697 245.825 32.9957 245.254 32.6477C244.686 32.2961 244.247 31.8061 243.938 31.1775C243.633 30.5454 243.48 29.8103 243.48 28.9723C243.48 28.1342 243.633 27.3956 243.938 26.7564C244.247 26.1136 244.677 25.6129 245.227 25.2542C245.781 24.892 246.427 24.7109 247.166 24.7109C247.592 24.7109 248.013 24.7819 248.428 24.924C248.844 25.066 249.222 25.2969 249.563 25.6165C249.904 25.9325 250.176 26.3515 250.378 26.8736C250.58 27.3956 250.682 28.0383 250.682 28.8018V29.3345H244.375V28.2478H249.403C249.403 27.7862 249.311 27.3743 249.126 27.0121C248.945 26.6498 248.686 26.364 248.349 26.1545C248.015 25.9449 247.621 25.8402 247.166 25.8402C246.665 25.8402 246.232 25.9645 245.866 26.213C245.504 26.4581 245.225 26.7777 245.03 27.1719C244.835 27.566 244.737 27.9886 244.737 28.4396V29.164C244.737 29.7819 244.844 30.3057 245.057 30.7354C245.273 31.1616 245.573 31.4865 245.957 31.7102C246.34 31.9304 246.786 32.0405 247.294 32.0405C247.624 32.0405 247.922 31.9943 248.189 31.902C248.459 31.8061 248.691 31.664 248.887 31.4758C249.082 31.2841 249.233 31.0461 249.339 30.7621L250.554 31.103C250.426 31.5149 250.211 31.8771 249.909 32.1896C249.607 32.4986 249.235 32.74 248.791 32.914C248.347 33.0845 247.848 33.1697 247.294 33.1697ZM252.594 32.9993V24.8174H253.808V26.0532H253.894C254.043 25.6484 254.313 25.3199 254.703 25.0678C255.094 24.8157 255.534 24.6896 256.024 24.6896C256.117 24.6896 256.232 24.6914 256.371 24.6949C256.509 24.6985 256.614 24.7038 256.685 24.7109V25.9893C256.642 25.9787 256.545 25.9627 256.392 25.9414C256.243 25.9165 256.085 25.9041 255.918 25.9041C255.52 25.9041 255.165 25.9875 254.852 26.1545C254.544 26.3178 254.298 26.5451 254.117 26.8363C253.94 27.1239 253.851 27.4524 253.851 27.8217V32.9993H252.594ZM264.865 24.8174L261.84 32.9993H260.561L257.536 24.8174H258.899L261.158 31.3373H261.243L263.502 24.8174H264.865ZM269.955 33.1697C269.167 33.1697 268.487 32.9957 267.915 32.6477C267.347 32.2961 266.908 31.8061 266.599 31.1775C266.294 30.5454 266.141 29.8103 266.141 28.9723C266.141 28.1342 266.294 27.3956 266.599 26.7564C266.908 26.1136 267.338 25.6129 267.888 25.2542C268.442 24.892 269.089 24.7109 269.827 24.7109C270.253 24.7109 270.674 24.7819 271.09 24.924C271.505 25.066 271.883 25.2969 272.224 25.6165C272.565 25.9325 272.837 26.3515 273.039 26.8736C273.242 27.3956 273.343 28.0383 273.343 28.8018V29.3345H267.036V28.2478H272.064C272.064 27.7862 271.972 27.3743 271.787 27.0121C271.606 26.6498 271.347 26.364 271.01 26.1545C270.676 25.9449 270.282 25.8402 269.827 25.8402C269.326 25.8402 268.893 25.9645 268.527 26.213C268.165 26.4581 267.886 26.7777 267.691 27.1719C267.496 27.566 267.398 27.9886 267.398 28.4396V29.164C267.398 29.7819 267.505 30.3057 267.718 30.7354C267.934 31.1616 268.234 31.4865 268.618 31.7102C269.002 31.9304 269.447 32.0405 269.955 32.0405C270.285 32.0405 270.584 31.9943 270.85 31.902C271.12 31.8061 271.352 31.664 271.548 31.4758C271.743 31.2841 271.894 31.0461 272 30.7621L273.215 31.103C273.087 31.5149 272.872 31.8771 272.57 32.1896C272.269 32.4986 271.896 32.74 271.452 32.914C271.008 33.0845 270.509 33.1697 269.955 33.1697ZM278.345 33.1697C277.663 33.1697 277.061 32.9975 276.539 32.653C276.017 32.305 275.608 31.815 275.314 31.1829C275.019 30.5472 274.872 29.7961 274.872 28.9297C274.872 28.0703 275.019 27.3246 275.314 26.6924C275.608 26.0603 276.019 25.5721 276.544 25.2276C277.07 24.8831 277.677 24.7109 278.366 24.7109C278.899 24.7109 279.319 24.7997 279.628 24.9773C279.941 25.1513 280.179 25.3501 280.342 25.5738C280.509 25.794 280.639 25.9751 280.731 26.1172H280.837V22.0902H282.095V32.9993H280.88V31.7422H280.731C280.639 31.8913 280.507 32.0795 280.337 32.3068C280.166 32.5305 279.923 32.7312 279.607 32.9087C279.291 33.0827 278.87 33.1697 278.345 33.1697ZM278.515 32.0405C279.019 32.0405 279.445 31.9091 279.793 31.6463C280.141 31.3799 280.406 31.0124 280.587 30.5437C280.768 30.0714 280.859 29.5263 280.859 28.9084C280.859 28.2976 280.77 27.7631 280.592 27.305C280.415 26.8434 280.152 26.4847 279.804 26.229C279.456 25.9698 279.026 25.8402 278.515 25.8402C277.982 25.8402 277.538 25.9769 277.183 26.2503C276.832 26.5202 276.567 26.8878 276.39 27.353C276.216 27.8146 276.129 28.3331 276.129 28.9084C276.129 29.4907 276.217 30.0199 276.395 30.4957C276.576 30.968 276.842 31.3444 277.194 31.625C277.549 31.902 277.989 32.0405 278.515 32.0405Z" fill="#767676"/>
</svg>
