<svg width="373" height="212" viewBox="0 0 373 212" fill="none" xmlns="http://www.w3.org/2000/svg">
<rect x="-0.00012207" y="0.476074" width="372.696" height="211.111" fill="white"/>
<path d="M37.4864 106.15H35.4921C35.4154 105.724 35.2726 105.349 35.0638 105.025C34.855 104.701 34.5993 104.427 34.2967 104.201C33.9942 103.975 33.6554 103.804 33.2804 103.689C32.9097 103.574 32.5155 103.517 32.0979 103.517C31.3436 103.517 30.6682 103.706 30.0716 104.086C29.4793 104.465 29.0105 105.021 28.6653 105.754C28.3244 106.487 28.154 107.382 28.154 108.439C28.154 109.504 28.3244 110.403 28.6653 111.136C29.0105 111.869 29.4814 112.423 30.078 112.798C30.6746 113.173 31.3457 113.361 32.0915 113.361C32.5048 113.361 32.8969 113.305 33.2676 113.194C33.6426 113.079 33.9814 112.911 34.284 112.689C34.5865 112.468 34.8422 112.197 35.051 111.878C35.2641 111.554 35.4111 111.183 35.4921 110.765L37.4864 110.772C37.3798 111.415 37.1732 112.008 36.8663 112.549C36.5638 113.086 36.1739 113.55 35.6966 113.942C35.2236 114.33 34.6824 114.63 34.073 114.844C33.4636 115.057 32.7989 115.163 32.0787 115.163C30.9452 115.163 29.9352 114.895 29.0489 114.358C28.1625 113.817 27.4636 113.043 26.9523 112.037C26.4452 111.032 26.1916 109.832 26.1916 108.439C26.1916 107.041 26.4473 105.841 26.9587 104.84C27.47 103.834 28.1689 103.063 29.0553 102.526C29.9416 101.985 30.9494 101.714 32.0787 101.714C32.7733 101.714 33.421 101.814 34.0219 102.015C34.627 102.211 35.1703 102.5 35.6519 102.884C36.1334 103.263 36.5318 103.728 36.8472 104.277C37.1625 104.823 37.3756 105.447 37.4864 106.15ZM43.8321 115.182C42.9116 115.182 42.1084 114.971 41.4223 114.549C40.7362 114.128 40.2035 113.537 39.8243 112.779C39.445 112.02 39.2554 111.134 39.2554 110.12C39.2554 109.101 39.445 108.211 39.8243 107.448C40.2035 106.685 40.7362 106.093 41.4223 105.671C42.1084 105.249 42.9116 105.038 43.8321 105.038C44.7525 105.038 45.5558 105.249 46.2419 105.671C46.928 106.093 47.4606 106.685 47.8399 107.448C48.2191 108.211 48.4088 109.101 48.4088 110.12C48.4088 111.134 48.2191 112.02 47.8399 112.779C47.4606 113.537 46.928 114.128 46.2419 114.549C45.5558 114.971 44.7525 115.182 43.8321 115.182ZM43.8385 113.578C44.4351 113.578 44.9294 113.42 45.3214 113.105C45.7135 112.79 46.0032 112.37 46.1907 111.846C46.3825 111.321 46.4784 110.744 46.4784 110.113C46.4784 109.487 46.3825 108.912 46.1907 108.388C46.0032 107.859 45.7135 107.435 45.3214 107.116C44.9294 106.796 44.4351 106.636 43.8385 106.636C43.2376 106.636 42.739 106.796 42.3427 107.116C41.9507 107.435 41.6588 107.859 41.467 108.388C41.2795 108.912 41.1858 109.487 41.1858 110.113C41.1858 110.744 41.2795 111.321 41.467 111.846C41.6588 112.37 41.9507 112.79 42.3427 113.105C42.739 113.42 43.2376 113.578 43.8385 113.578ZM56.7616 110.912V105.166H58.6792V114.984H56.7999V113.284H56.6977C56.4718 113.808 56.1096 114.245 55.611 114.594C55.1167 114.939 54.5009 115.112 53.7637 115.112C53.133 115.112 52.5748 114.973 52.089 114.696C51.6075 114.415 51.2282 114 50.9512 113.45C50.6785 112.9 50.5421 112.221 50.5421 111.411V105.166H52.4533V111.181C52.4533 111.85 52.6387 112.383 53.0095 112.779C53.3802 113.175 53.8617 113.373 54.4541 113.373C54.812 113.373 55.1678 113.284 55.5215 113.105C55.8795 112.926 56.1756 112.655 56.41 112.293C56.6487 111.931 56.7658 111.471 56.7616 110.912ZM63.1584 109.155V114.984H61.2472V105.166H63.0817V106.764H63.2032C63.429 106.244 63.7827 105.826 64.2642 105.511C64.75 105.196 65.3616 105.038 66.0988 105.038C66.7678 105.038 67.3537 105.179 67.8566 105.46C68.3594 105.737 68.7493 106.15 69.0263 106.7C69.3033 107.25 69.4418 107.929 69.4418 108.739V114.984H67.5306V108.969C67.5306 108.258 67.3452 107.701 66.9745 107.301C66.6037 106.896 66.0945 106.694 65.4468 106.694C65.0036 106.694 64.6094 106.79 64.2642 106.981C63.9233 107.173 63.6527 107.454 63.4525 107.825C63.2564 108.192 63.1584 108.635 63.1584 109.155ZM76.5881 105.166V106.7H71.2252V105.166H76.5881ZM72.6634 102.814H74.5746V112.101C74.5746 112.472 74.63 112.751 74.7408 112.939C74.8516 113.122 74.9944 113.248 75.1691 113.316C75.3481 113.38 75.5419 113.412 75.7508 113.412C75.9042 113.412 76.0384 113.401 76.1535 113.38C76.2685 113.358 76.358 113.341 76.4219 113.329L76.7671 114.907C76.6563 114.95 76.4986 114.993 76.2941 115.035C76.0895 115.082 75.8339 115.108 75.527 115.112C75.0242 115.12 74.5554 115.031 74.1208 114.844C73.6861 114.656 73.3346 114.366 73.0661 113.974C72.7976 113.582 72.6634 113.09 72.6634 112.498V102.814ZM78.7023 114.984V105.166H80.5496V106.726H80.6519C80.8308 106.197 81.1462 105.782 81.5979 105.479C82.0538 105.172 82.5695 105.019 83.1448 105.019C83.2641 105.019 83.4047 105.023 83.5666 105.032C83.7328 105.04 83.8628 105.051 83.9565 105.064V106.892C83.8798 106.87 83.7435 106.847 83.5475 106.821C83.3514 106.792 83.1554 106.777 82.9594 106.777C82.5077 106.777 82.105 106.873 81.7513 107.064C81.4019 107.252 81.1249 107.514 80.9203 107.851C80.7158 108.183 80.6135 108.562 80.6135 108.988V114.984H78.7023ZM87.1174 118.666C86.8319 118.666 86.572 118.643 86.3376 118.596C86.1032 118.553 85.9285 118.506 85.8134 118.455L86.2737 116.889C86.6231 116.983 86.9342 117.023 87.2069 117.01C87.4796 116.998 87.7204 116.895 87.9292 116.704C88.1423 116.512 88.3298 116.199 88.4917 115.764L88.7282 115.112L85.1359 105.166H87.1813L89.6678 112.785H89.7701L92.2566 105.166H94.3085L90.2623 116.295C90.0748 116.806 89.8362 117.238 89.5464 117.592C89.2566 117.95 88.9114 118.219 88.5109 118.397C88.1103 118.576 87.6458 118.666 87.1174 118.666ZM97.3639 115.106C97.0144 115.106 96.714 114.982 96.4626 114.735C96.2112 114.483 96.0854 114.181 96.0854 113.827C96.0854 113.478 96.2112 113.179 96.4626 112.932C96.714 112.681 97.0144 112.555 97.3639 112.555C97.7133 112.555 98.0137 112.681 98.2651 112.932C98.5166 113.179 98.6423 113.478 98.6423 113.827C98.6423 114.062 98.5826 114.277 98.4633 114.473C98.3482 114.665 98.1948 114.818 98.0031 114.933C97.8113 115.048 97.5982 115.106 97.3639 115.106ZM97.3639 107.959C97.0144 107.959 96.714 107.834 96.4626 107.582C96.2112 107.331 96.0854 107.03 96.0854 106.681C96.0854 106.331 96.2112 106.033 96.4626 105.786C96.714 105.535 97.0144 105.409 97.3639 105.409C97.7133 105.409 98.0137 105.535 98.2651 105.786C98.5166 106.033 98.6423 106.331 98.6423 106.681C98.6423 106.915 98.5826 107.13 98.4633 107.326C98.3482 107.518 98.1948 107.672 98.0031 107.787C97.8113 107.902 97.5982 107.959 97.3639 107.959Z" fill="#767676"/>
<path d="M265.959 112.979V102.07H269.773C270.533 102.07 271.16 102.201 271.653 102.464C272.147 102.723 272.514 103.073 272.756 103.513C272.997 103.95 273.118 104.435 273.118 104.967C273.118 105.436 273.035 105.823 272.868 106.129C272.704 106.434 272.488 106.675 272.218 106.853C271.952 107.031 271.662 107.162 271.35 107.247V107.354C271.683 107.375 272.019 107.492 272.356 107.705C272.694 107.918 272.976 108.224 273.203 108.622C273.431 109.019 273.544 109.506 273.544 110.081C273.544 110.628 273.42 111.12 273.171 111.557C272.923 111.993 272.53 112.34 271.994 112.595C271.458 112.851 270.76 112.979 269.901 112.979H265.959ZM267.28 111.807H269.901C270.764 111.807 271.376 111.64 271.739 111.306C272.104 110.969 272.287 110.56 272.287 110.081C272.287 109.712 272.193 109.371 272.005 109.058C271.817 108.742 271.549 108.49 271.201 108.302C270.853 108.11 270.441 108.014 269.965 108.014H267.28V111.807ZM267.28 106.864H269.73C270.128 106.864 270.487 106.786 270.806 106.629C271.13 106.473 271.385 106.253 271.573 105.969C271.765 105.685 271.861 105.351 271.861 104.967C271.861 104.488 271.694 104.081 271.36 103.748C271.027 103.41 270.497 103.242 269.773 103.242H267.28V106.864ZM277.952 113.171C277.434 113.171 276.963 113.073 276.541 112.878C276.118 112.679 275.782 112.393 275.534 112.02C275.285 111.644 275.161 111.189 275.161 110.656C275.161 110.188 275.253 109.808 275.438 109.516C275.623 109.222 275.869 108.991 276.178 108.824C276.487 108.657 276.828 108.533 277.201 108.451C277.577 108.366 277.956 108.298 278.336 108.249C278.833 108.185 279.236 108.137 279.545 108.105C279.857 108.069 280.085 108.011 280.227 107.929C280.372 107.847 280.445 107.705 280.445 107.503V107.46C280.445 106.935 280.301 106.526 280.014 106.235C279.729 105.944 279.298 105.798 278.719 105.798C278.119 105.798 277.649 105.93 277.308 106.193C276.967 106.455 276.727 106.736 276.589 107.034L275.395 106.608C275.608 106.111 275.892 105.724 276.248 105.447C276.606 105.166 276.997 104.971 277.419 104.861C277.846 104.747 278.265 104.69 278.677 104.69C278.939 104.69 279.241 104.722 279.582 104.786C279.927 104.847 280.259 104.973 280.578 105.164C280.901 105.356 281.169 105.646 281.383 106.033C281.596 106.42 281.702 106.938 281.702 107.588V112.979H280.445V111.871H280.381C280.296 112.048 280.154 112.238 279.955 112.441C279.756 112.643 279.492 112.815 279.161 112.957C278.831 113.099 278.428 113.171 277.952 113.171ZM278.144 112.041C278.641 112.041 279.06 111.944 279.401 111.748C279.745 111.553 280.005 111.301 280.179 110.992C280.356 110.683 280.445 110.358 280.445 110.017V108.867C280.392 108.93 280.275 108.989 280.093 109.042C279.916 109.092 279.71 109.136 279.476 109.175C279.245 109.211 279.019 109.243 278.799 109.271C278.582 109.296 278.407 109.318 278.272 109.335C277.945 109.378 277.64 109.447 277.356 109.543C277.075 109.635 276.848 109.776 276.674 109.964C276.503 110.149 276.418 110.401 276.418 110.72C276.418 111.157 276.58 111.487 276.903 111.711C277.229 111.931 277.643 112.041 278.144 112.041ZM285.254 108.057V112.979H283.997V104.797H285.211V106.075H285.318C285.509 105.66 285.801 105.326 286.191 105.074C286.582 104.818 287.086 104.69 287.704 104.69C288.258 104.69 288.743 104.804 289.158 105.031C289.574 105.255 289.897 105.596 290.128 106.054C290.358 106.509 290.474 107.084 290.474 107.78V112.979H289.217V107.865C289.217 107.222 289.05 106.722 288.716 106.363C288.382 106.001 287.924 105.82 287.342 105.82C286.941 105.82 286.582 105.907 286.266 106.081C285.953 106.255 285.706 106.509 285.525 106.842C285.344 107.176 285.254 107.581 285.254 108.057ZM296.074 116.217C295.466 116.217 294.944 116.139 294.508 115.983C294.071 115.83 293.707 115.628 293.416 115.376C293.128 115.127 292.899 114.861 292.728 114.577L293.73 113.874C293.843 114.023 293.987 114.193 294.161 114.385C294.335 114.58 294.573 114.749 294.875 114.891C295.18 115.037 295.58 115.109 296.074 115.109C296.734 115.109 297.279 114.95 297.709 114.63C298.139 114.31 298.353 113.81 298.353 113.128V111.466H298.247C298.155 111.615 298.023 111.8 297.853 112.02C297.686 112.237 297.444 112.43 297.128 112.601C296.816 112.767 296.393 112.851 295.861 112.851C295.2 112.851 294.607 112.695 294.081 112.382C293.559 112.07 293.146 111.615 292.84 111.019C292.538 110.422 292.388 109.698 292.388 108.845C292.388 108.007 292.535 107.277 292.83 106.656C293.124 106.031 293.535 105.548 294.06 105.207C294.586 104.863 295.193 104.69 295.882 104.69C296.414 104.69 296.837 104.779 297.15 104.957C297.466 105.131 297.707 105.33 297.874 105.553C298.044 105.774 298.176 105.955 298.268 106.097H298.396V104.797H299.611V113.213C299.611 113.916 299.451 114.488 299.131 114.928C298.815 115.372 298.389 115.697 297.853 115.903C297.32 116.113 296.727 116.217 296.074 116.217ZM296.031 111.722C296.535 111.722 296.961 111.606 297.309 111.375C297.657 111.145 297.922 110.813 298.103 110.379C298.284 109.946 298.375 109.428 298.375 108.824C298.375 108.234 298.286 107.714 298.108 107.263C297.931 106.812 297.668 106.459 297.32 106.203C296.972 105.948 296.542 105.82 296.031 105.82C295.498 105.82 295.054 105.955 294.699 106.224C294.348 106.494 294.083 106.857 293.906 107.311C293.732 107.766 293.645 108.27 293.645 108.824C293.645 109.392 293.733 109.895 293.911 110.331C294.092 110.765 294.358 111.106 294.71 111.354C295.065 111.599 295.505 111.722 296.031 111.722ZM303.169 102.07V112.979H301.912V102.07H303.169ZM307.879 113.171C307.36 113.171 306.89 113.073 306.467 112.878C306.045 112.679 305.709 112.393 305.461 112.02C305.212 111.644 305.088 111.189 305.088 110.656C305.088 110.188 305.18 109.808 305.365 109.516C305.549 109.222 305.796 108.991 306.105 108.824C306.414 108.657 306.755 108.533 307.128 108.451C307.504 108.366 307.882 108.298 308.262 108.249C308.76 108.185 309.163 108.137 309.472 108.105C309.784 108.069 310.011 108.011 310.153 107.929C310.299 107.847 310.372 107.705 310.372 107.503V107.46C310.372 106.935 310.228 106.526 309.94 106.235C309.656 105.944 309.225 105.798 308.646 105.798C308.046 105.798 307.575 105.93 307.234 106.193C306.893 106.455 306.654 106.736 306.515 107.034L305.322 106.608C305.535 106.111 305.819 105.724 306.174 105.447C306.533 105.166 306.924 104.971 307.346 104.861C307.772 104.747 308.191 104.69 308.603 104.69C308.866 104.69 309.168 104.722 309.509 104.786C309.853 104.847 310.185 104.973 310.505 105.164C310.828 105.356 311.096 105.646 311.309 106.033C311.522 106.42 311.629 106.938 311.629 107.588V112.979H310.372V111.871H310.308C310.223 112.048 310.081 112.238 309.882 112.441C309.683 112.643 309.418 112.815 309.088 112.957C308.758 113.099 308.355 113.171 307.879 113.171ZM308.071 112.041C308.568 112.041 308.987 111.944 309.328 111.748C309.672 111.553 309.931 111.301 310.105 110.992C310.283 110.683 310.372 110.358 310.372 110.017V108.867C310.319 108.93 310.201 108.989 310.02 109.042C309.843 109.092 309.637 109.136 309.402 109.175C309.172 109.211 308.946 109.243 308.726 109.271C308.509 109.296 308.333 109.318 308.198 109.335C307.872 109.378 307.566 109.447 307.282 109.543C307.002 109.635 306.774 109.776 306.6 109.964C306.43 110.149 306.345 110.401 306.345 110.72C306.345 111.157 306.506 111.487 306.83 111.711C307.156 111.931 307.57 112.041 308.071 112.041ZM317.013 113.149C316.331 113.149 315.729 112.977 315.207 112.633C314.685 112.285 314.277 111.794 313.982 111.162C313.687 110.527 313.54 109.776 313.54 108.909C313.54 108.05 313.687 107.304 313.982 106.672C314.277 106.04 314.687 105.552 315.212 105.207C315.738 104.863 316.345 104.69 317.034 104.69C317.567 104.69 317.988 104.779 318.297 104.957C318.609 105.131 318.847 105.33 319.01 105.553C319.177 105.774 319.307 105.955 319.399 106.097H319.506V102.07H320.763V112.979H319.548V111.722H319.399C319.307 111.871 319.176 112.059 319.005 112.286C318.835 112.51 318.591 112.711 318.275 112.888C317.959 113.062 317.538 113.149 317.013 113.149ZM317.183 112.02C317.688 112.02 318.114 111.889 318.462 111.626C318.81 111.359 319.074 110.992 319.255 110.523C319.437 110.051 319.527 109.506 319.527 108.888C319.527 108.277 319.438 107.743 319.261 107.285C319.083 106.823 318.82 106.464 318.472 106.209C318.124 105.949 317.695 105.82 317.183 105.82C316.651 105.82 316.207 105.956 315.852 106.23C315.5 106.5 315.236 106.867 315.058 107.332C314.884 107.794 314.797 108.313 314.797 108.888C314.797 109.47 314.886 109.999 315.063 110.475C315.244 110.948 315.511 111.324 315.862 111.604C316.217 111.881 316.658 112.02 317.183 112.02ZM326.67 113.149C325.882 113.149 325.202 112.975 324.63 112.627C324.062 112.276 323.623 111.786 323.314 111.157C323.009 110.525 322.856 109.79 322.856 108.952C322.856 108.114 323.009 107.375 323.314 106.736C323.623 106.093 324.053 105.592 324.603 105.234C325.157 104.872 325.804 104.69 326.542 104.69C326.968 104.69 327.389 104.761 327.805 104.903C328.22 105.046 328.598 105.276 328.939 105.596C329.28 105.912 329.552 106.331 329.754 106.853C329.957 107.375 330.058 108.018 330.058 108.781V109.314H323.751V108.227H328.78C328.78 107.766 328.687 107.354 328.503 106.992C328.321 106.629 328.062 106.343 327.725 106.134C327.391 105.924 326.997 105.82 326.542 105.82C326.042 105.82 325.608 105.944 325.243 106.193C324.88 106.438 324.602 106.757 324.406 107.151C324.211 107.546 324.113 107.968 324.113 108.419V109.144C324.113 109.761 324.22 110.285 324.433 110.715C324.65 111.141 324.95 111.466 325.333 111.69C325.717 111.91 326.162 112.02 326.67 112.02C327 112.02 327.299 111.974 327.565 111.881C327.835 111.786 328.068 111.644 328.263 111.455C328.458 111.264 328.609 111.026 328.716 110.742L329.93 111.082C329.802 111.494 329.587 111.857 329.286 112.169C328.984 112.478 328.611 112.72 328.167 112.894C327.723 113.064 327.224 113.149 326.67 113.149ZM337.766 106.629L336.636 106.949C336.565 106.761 336.461 106.578 336.322 106.4C336.187 106.219 336.003 106.07 335.768 105.953C335.534 105.836 335.234 105.777 334.868 105.777C334.367 105.777 333.95 105.892 333.616 106.123C333.286 106.351 333.121 106.64 333.121 106.992C333.121 107.304 333.234 107.551 333.462 107.732C333.689 107.913 334.044 108.064 334.527 108.185L335.742 108.483C336.473 108.661 337.018 108.932 337.377 109.298C337.736 109.66 337.915 110.127 337.915 110.699C337.915 111.168 337.78 111.587 337.51 111.956C337.244 112.325 336.871 112.617 336.391 112.83C335.912 113.043 335.354 113.149 334.719 113.149C333.884 113.149 333.194 112.968 332.647 112.606C332.1 112.244 331.754 111.715 331.608 111.019L332.801 110.72C332.915 111.161 333.13 111.491 333.446 111.711C333.765 111.931 334.183 112.041 334.698 112.041C335.283 112.041 335.749 111.917 336.093 111.668C336.441 111.416 336.615 111.114 336.615 110.763C336.615 110.479 336.516 110.241 336.317 110.049C336.118 109.854 335.813 109.708 335.401 109.612L334.037 109.293C333.288 109.115 332.737 108.84 332.386 108.467C332.038 108.091 331.864 107.62 331.864 107.055C331.864 106.594 331.993 106.185 332.253 105.83C332.515 105.475 332.872 105.196 333.323 104.994C333.778 104.792 334.293 104.69 334.868 104.69C335.678 104.69 336.313 104.868 336.775 105.223C337.24 105.578 337.57 106.047 337.766 106.629ZM341.064 108.057V112.979H339.807V102.07H341.064V106.075H341.171C341.363 105.653 341.65 105.317 342.034 105.069C342.421 104.816 342.936 104.69 343.578 104.69C344.136 104.69 344.624 104.802 345.043 105.026C345.462 105.246 345.787 105.585 346.018 106.043C346.252 106.498 346.37 107.077 346.37 107.78V112.979H345.113V107.865C345.113 107.215 344.944 106.713 344.607 106.358C344.273 105.999 343.809 105.82 343.216 105.82C342.804 105.82 342.435 105.907 342.108 106.081C341.785 106.255 341.529 106.509 341.341 106.842C341.157 107.176 341.064 107.581 341.064 108.057Z" fill="#767676"/>
<path d="M37.4864 144.351H35.4921C35.4154 143.925 35.2726 143.55 35.0638 143.226C34.855 142.902 34.5993 142.628 34.2967 142.402C33.9942 142.176 33.6554 142.005 33.2804 141.89C32.9097 141.775 32.5155 141.718 32.0979 141.718C31.3436 141.718 30.6682 141.907 30.0716 142.287C29.4793 142.666 29.0105 143.222 28.6653 143.955C28.3244 144.688 28.154 145.583 28.154 146.64C28.154 147.705 28.3244 148.604 28.6653 149.337C29.0105 150.07 29.4814 150.624 30.078 150.999C30.6746 151.374 31.3457 151.561 32.0915 151.561C32.5048 151.561 32.8969 151.506 33.2676 151.395C33.6426 151.28 33.9814 151.112 34.284 150.89C34.5865 150.669 34.8422 150.398 35.051 150.079C35.2641 149.755 35.4111 149.384 35.4921 148.966L37.4864 148.973C37.3798 149.616 37.1732 150.208 36.8663 150.75C36.5638 151.287 36.1739 151.751 35.6966 152.143C35.2236 152.531 34.6824 152.831 34.073 153.044C33.4636 153.258 32.7989 153.364 32.0787 153.364C30.9452 153.364 29.9352 153.096 29.0489 152.559C28.1625 152.017 27.4636 151.244 26.9523 150.238C26.4452 149.233 26.1916 148.033 26.1916 146.64C26.1916 145.242 26.4473 144.042 26.9587 143.041C27.47 142.035 28.1689 141.264 29.0553 140.727C29.9416 140.186 30.9494 139.915 32.0787 139.915C32.7733 139.915 33.421 140.015 34.0219 140.216C34.627 140.412 35.1703 140.701 35.6519 141.085C36.1334 141.464 36.5318 141.929 36.8472 142.478C37.1625 143.024 37.3756 143.648 37.4864 144.351ZM39.6964 153.185V143.367H41.6076V153.185H39.6964ZM40.6616 141.852C40.3292 141.852 40.0437 141.741 39.8051 141.52C39.5707 141.294 39.4535 141.025 39.4535 140.714C39.4535 140.399 39.5707 140.13 39.8051 139.909C40.0437 139.683 40.3292 139.57 40.6616 139.57C40.994 139.57 41.2774 139.683 41.5118 139.909C41.7504 140.13 41.8697 140.399 41.8697 140.714C41.8697 141.025 41.7504 141.294 41.5118 141.52C41.2774 141.741 40.994 141.852 40.6616 141.852ZM48.7619 143.367V144.901H43.399V143.367H48.7619ZM44.8372 141.015H46.7484V150.302C46.7484 150.673 46.8038 150.952 46.9146 151.14C47.0254 151.323 47.1682 151.449 47.3429 151.517C47.5219 151.581 47.7158 151.613 47.9246 151.613C48.078 151.613 48.2122 151.602 48.3273 151.581C48.4423 151.559 48.5318 151.542 48.5957 151.53L48.9409 153.108C48.8301 153.151 48.6725 153.194 48.4679 153.236C48.2634 153.283 48.0077 153.309 47.7009 153.313C47.198 153.321 46.7293 153.232 46.2946 153.044C45.86 152.857 45.5084 152.567 45.2399 152.175C44.9715 151.783 44.8372 151.291 44.8372 150.699V141.015ZM52.0842 156.867C51.7987 156.867 51.5388 156.843 51.3044 156.797C51.07 156.754 50.8953 156.707 50.7802 156.656L51.2405 155.09C51.5899 155.184 51.901 155.224 52.1737 155.211C52.4464 155.199 52.6872 155.096 52.896 154.905C53.1091 154.713 53.2966 154.4 53.4585 153.965L53.695 153.313L50.1027 143.367H52.1481L54.6346 150.986H54.7369L57.2234 143.367H59.2753L55.2291 154.495C55.0416 155.007 54.803 155.439 54.5132 155.793C54.2234 156.151 53.8782 156.419 53.4777 156.598C53.0771 156.777 52.6126 156.867 52.0842 156.867ZM62.3307 153.307C61.9812 153.307 61.6808 153.183 61.4294 152.936C61.178 152.684 61.0522 152.382 61.0522 152.028C61.0522 151.679 61.178 151.38 61.4294 151.133C61.6808 150.882 61.9812 150.756 62.3307 150.756C62.6801 150.756 62.9805 150.882 63.2319 151.133C63.4834 151.38 63.6091 151.679 63.6091 152.028C63.6091 152.262 63.5494 152.478 63.4301 152.674C63.315 152.865 63.1616 153.019 62.9699 153.134C62.7781 153.249 62.565 153.307 62.3307 153.307ZM62.3307 146.16C61.9812 146.16 61.6808 146.034 61.4294 145.783C61.178 145.532 61.0522 145.231 61.0522 144.882C61.0522 144.532 61.178 144.234 61.4294 143.987C61.6808 143.735 61.9812 143.61 62.3307 143.61C62.6801 143.61 62.9805 143.735 63.2319 143.987C63.4834 144.234 63.6091 144.532 63.6091 144.882C63.6091 145.116 63.5494 145.331 63.4301 145.527C63.315 145.719 63.1616 145.873 62.9699 145.988C62.7781 146.103 62.565 146.16 62.3307 146.16Z" fill="#767676"/>
<path d="M307.49 151.18H304.123V140.271H307.639C308.697 140.271 309.602 140.489 310.355 140.926C311.108 141.359 311.685 141.982 312.086 142.796C312.488 143.605 312.688 144.575 312.688 145.704C312.688 146.84 312.486 147.819 312.081 148.639C311.676 149.456 311.087 150.084 310.313 150.525C309.539 150.962 308.598 151.18 307.49 151.18ZM305.444 150.008H307.404C308.306 150.008 309.054 149.834 309.647 149.486C310.24 149.138 310.682 148.643 310.973 148C311.264 147.357 311.41 146.592 311.41 145.704C311.41 144.823 311.266 144.065 310.979 143.43C310.691 142.79 310.261 142.3 309.689 141.959C309.118 141.615 308.406 141.443 307.553 141.443H305.444V150.008ZM315.991 146.258V151.18H314.734V140.271H315.991V144.277H316.098C316.289 143.854 316.577 143.518 316.96 143.27C317.348 143.018 317.862 142.892 318.505 142.892C319.063 142.892 319.551 143.003 319.97 143.227C320.389 143.447 320.714 143.786 320.945 144.245C321.179 144.699 321.296 145.278 321.296 145.981V151.18H320.039V146.066C320.039 145.416 319.871 144.914 319.533 144.559C319.199 144.2 318.736 144.021 318.143 144.021C317.731 144.021 317.362 144.108 317.035 144.282C316.712 144.456 316.456 144.71 316.268 145.044C316.083 145.377 315.991 145.782 315.991 146.258ZM326.004 151.372C325.485 151.372 325.015 151.274 324.592 151.079C324.17 150.88 323.834 150.594 323.586 150.221C323.337 149.845 323.213 149.39 323.213 148.857C323.213 148.389 323.305 148.009 323.49 147.718C323.674 147.423 323.921 147.192 324.23 147.025C324.539 146.858 324.88 146.734 325.253 146.652C325.629 146.567 326.007 146.5 326.387 146.45C326.885 146.386 327.288 146.338 327.597 146.306C327.909 146.27 328.136 146.212 328.278 146.13C328.424 146.049 328.497 145.906 328.497 145.704V145.661C328.497 145.136 328.353 144.728 328.065 144.436C327.781 144.145 327.35 144 326.771 144C326.171 144 325.7 144.131 325.359 144.394C325.018 144.656 324.779 144.937 324.64 145.235L323.447 144.809C323.66 144.312 323.944 143.925 324.299 143.648C324.658 143.367 325.049 143.172 325.471 143.062C325.897 142.948 326.316 142.892 326.728 142.892C326.991 142.892 327.293 142.924 327.634 142.987C327.978 143.048 328.31 143.174 328.63 143.366C328.953 143.557 329.221 143.847 329.434 144.234C329.647 144.621 329.754 145.139 329.754 145.789V151.18H328.497V150.072H328.433C328.348 150.25 328.206 150.44 328.007 150.642C327.808 150.844 327.543 151.017 327.213 151.159C326.883 151.301 326.48 151.372 326.004 151.372ZM326.196 150.242C326.693 150.242 327.112 150.145 327.453 149.949C327.797 149.754 328.056 149.502 328.23 149.193C328.408 148.884 328.497 148.559 328.497 148.218V147.068C328.443 147.132 328.326 147.19 328.145 147.243C327.968 147.293 327.762 147.338 327.527 147.377C327.296 147.412 327.071 147.444 326.851 147.473C326.634 147.497 326.458 147.519 326.323 147.536C325.997 147.579 325.691 147.648 325.407 147.744C325.127 147.837 324.899 147.977 324.725 148.165C324.555 148.35 324.47 148.602 324.47 148.921C324.47 149.358 324.631 149.688 324.954 149.912C325.281 150.132 325.695 150.242 326.196 150.242ZM333.22 148.197L333.199 146.642H333.455L337.034 142.998H338.59L334.776 146.855H334.669L333.22 148.197ZM332.048 151.18V140.271H333.305V151.18H332.048ZM337.247 151.18L334.051 147.132L334.946 146.258L338.845 151.18H337.247ZM342.615 151.372C342.097 151.372 341.626 151.274 341.204 151.079C340.781 150.88 340.445 150.594 340.197 150.221C339.948 149.845 339.824 149.39 339.824 148.857C339.824 148.389 339.916 148.009 340.101 147.718C340.286 147.423 340.532 147.192 340.841 147.025C341.15 146.858 341.491 146.734 341.864 146.652C342.241 146.567 342.619 146.5 342.999 146.45C343.496 146.386 343.899 146.338 344.208 146.306C344.52 146.27 344.748 146.212 344.89 146.13C345.035 146.049 345.108 145.906 345.108 145.704V145.661C345.108 145.136 344.964 144.728 344.677 144.436C344.393 144.145 343.961 144 343.382 144C342.782 144 342.312 144.131 341.971 144.394C341.63 144.656 341.39 144.937 341.252 145.235L340.058 144.809C340.271 144.312 340.556 143.925 340.911 143.648C341.269 143.367 341.66 143.172 342.082 143.062C342.509 142.948 342.928 142.892 343.34 142.892C343.602 142.892 343.904 142.924 344.245 142.987C344.59 143.048 344.922 143.174 345.241 143.366C345.564 143.557 345.832 143.847 346.046 144.234C346.259 144.621 346.365 145.139 346.365 145.789V151.18H345.108V150.072H345.044C344.959 150.25 344.817 150.44 344.618 150.642C344.419 150.844 344.155 151.017 343.824 151.159C343.494 151.301 343.091 151.372 342.615 151.372ZM342.807 150.242C343.304 150.242 343.723 150.145 344.064 149.949C344.408 149.754 344.668 149.502 344.842 149.193C345.019 148.884 345.108 148.559 345.108 148.218V147.068C345.055 147.132 344.938 147.19 344.757 147.243C344.579 147.293 344.373 147.338 344.139 147.377C343.908 147.412 343.682 147.444 343.462 147.473C343.245 147.497 343.07 147.519 342.935 147.536C342.608 147.579 342.303 147.648 342.019 147.744C341.738 147.837 341.511 147.977 341.337 148.165C341.166 148.35 341.081 148.602 341.081 148.921C341.081 149.358 341.243 149.688 341.566 149.912C341.893 150.132 342.306 150.242 342.807 150.242Z" fill="#767676"/>
<path d="M33.7534 181.734C33.6852 181.129 33.404 180.66 32.9097 180.328C32.4154 179.991 31.7932 179.823 31.0432 179.823C30.5063 179.823 30.0418 179.908 29.6497 180.079C29.2577 180.245 28.953 180.475 28.7357 180.769C28.5226 181.059 28.4161 181.389 28.4161 181.76C28.4161 182.071 28.4885 182.339 28.6334 182.565C28.7825 182.791 28.9764 182.981 29.2151 183.134C29.458 183.283 29.7179 183.409 29.9949 183.511C30.2719 183.609 30.5382 183.69 30.7939 183.754L32.0723 184.087C32.4899 184.189 32.9182 184.327 33.3571 184.502C33.796 184.677 34.203 184.907 34.578 185.192C34.953 185.478 35.2555 185.832 35.4857 186.253C35.72 186.675 35.8372 187.18 35.8372 187.768C35.8372 188.51 35.6455 189.168 35.2619 189.743C34.8827 190.319 34.3308 190.773 33.6064 191.105C32.8862 191.437 32.0148 191.604 30.9921 191.604C30.0119 191.604 29.1639 191.448 28.448 191.137C27.7321 190.826 27.1717 190.385 26.7669 189.814C26.3621 189.239 26.1384 188.557 26.0957 187.768H28.0773C28.1156 188.241 28.269 188.636 28.5375 188.951C28.8102 189.262 29.1575 189.494 29.5794 189.648C30.0055 189.797 30.4722 189.871 30.9793 189.871C31.5375 189.871 32.034 189.784 32.4686 189.609C32.9075 189.43 33.2527 189.183 33.5041 188.868C33.7555 188.548 33.8813 188.175 33.8813 187.749C33.8813 187.361 33.7705 187.044 33.5489 186.797C33.3315 186.55 33.0354 186.345 32.6604 186.183C32.2896 186.021 31.8699 185.878 31.4011 185.755L29.8543 185.333C28.806 185.047 27.975 184.628 27.3614 184.074C26.752 183.52 26.4473 182.787 26.4473 181.875C26.4473 181.121 26.6519 180.462 27.0609 179.9C27.47 179.337 28.024 178.9 28.7229 178.589C29.4217 178.274 30.2101 178.116 31.0879 178.116C31.9743 178.116 32.7563 178.272 33.4338 178.583C34.1156 178.894 34.6526 179.322 35.0446 179.868C35.4367 180.409 35.6412 181.031 35.6582 181.734H33.7534ZM42.6272 181.568V183.102H37.2642V181.568H42.6272ZM38.7025 179.216H40.6137V188.503C40.6137 188.874 40.6691 189.153 40.7799 189.341C40.8907 189.524 41.0334 189.65 41.2081 189.718C41.3871 189.782 41.581 189.814 41.7898 189.814C41.9432 189.814 42.0775 189.803 42.1925 189.782C42.3076 189.761 42.3971 189.743 42.461 189.731L42.8062 191.31C42.6954 191.352 42.5377 191.395 42.3331 191.437C42.1286 191.484 41.8729 191.51 41.5661 191.514C41.0633 191.523 40.5945 191.433 40.1598 191.246C39.7252 191.058 39.3736 190.768 39.1052 190.376C38.8367 189.984 38.7025 189.492 38.7025 188.9V179.216ZM44.7413 191.386V181.568H46.5886V183.128H46.6909C46.8699 182.599 47.1852 182.184 47.6369 181.881C48.0929 181.574 48.6085 181.421 49.1838 181.421C49.3031 181.421 49.4438 181.425 49.6057 181.434C49.7719 181.442 49.9019 181.453 49.9956 181.466V183.294C49.9189 183.273 49.7825 183.249 49.5865 183.224C49.3905 183.194 49.1945 183.179 48.9984 183.179C48.5467 183.179 48.144 183.275 47.7903 183.466C47.4409 183.654 47.1639 183.916 46.9594 184.253C46.7548 184.585 46.6526 184.964 46.6526 185.39V191.386H44.7413ZM55.5295 191.584C54.5622 191.584 53.7291 191.378 53.0302 190.964C52.3356 190.547 51.7987 189.961 51.4194 189.207C51.0444 188.448 50.8569 187.56 50.8569 186.541C50.8569 185.535 51.0444 184.649 51.4194 183.882C51.7987 183.115 52.3271 182.516 53.0047 182.086C53.6865 181.655 54.4834 181.44 55.3953 181.44C55.9493 181.44 56.4862 181.532 57.0061 181.715C57.526 181.898 57.9926 182.186 58.4059 182.578C58.8193 182.97 59.1453 183.479 59.3839 184.106C59.6226 184.728 59.7419 185.484 59.7419 186.375V187.052H51.9372V185.621H57.869C57.869 185.118 57.7667 184.672 57.5622 184.285C57.3576 183.893 57.07 183.584 56.6993 183.358C56.3328 183.132 55.9024 183.019 55.4081 183.019C54.8711 183.019 54.4024 183.151 54.0018 183.415C53.6055 183.675 53.2987 184.016 53.0814 184.438C52.8683 184.856 52.7618 185.31 52.7618 185.8V186.918C52.7618 187.574 52.8768 188.133 53.1069 188.593C53.3413 189.053 53.6673 189.405 54.0849 189.648C54.5025 189.886 54.9905 190.006 55.5487 190.006C55.9109 190.006 56.2412 189.954 56.5395 189.852C56.8378 189.746 57.0956 189.588 57.3129 189.379C57.5302 189.17 57.6964 188.913 57.8115 188.606L59.6204 188.932C59.4755 189.464 59.2156 189.931 58.8406 190.332C58.4699 190.728 58.0032 191.037 57.4407 191.258C56.8825 191.476 56.2454 191.584 55.5295 191.584ZM64.7197 191.604C64.0975 191.604 63.535 191.489 63.0322 191.258C62.5293 191.024 62.1309 190.685 61.8369 190.242C61.5471 189.799 61.4022 189.256 61.4022 188.612C61.4022 188.058 61.5087 187.602 61.7218 187.244C61.9349 186.886 62.2225 186.603 62.5847 186.394C62.947 186.185 63.3518 186.028 63.7992 185.921C64.2467 185.814 64.7026 185.734 65.1671 185.678C65.7552 185.61 66.2325 185.555 66.5989 185.512C66.9654 185.465 67.2318 185.39 67.3979 185.288C67.5641 185.186 67.6472 185.02 67.6472 184.79V184.745C67.6472 184.187 67.4896 183.754 67.1742 183.447C66.8631 183.14 66.3987 182.987 65.7808 182.987C65.1373 182.987 64.6302 183.13 64.2595 183.415C63.893 183.697 63.6394 184.01 63.4988 184.355L61.7026 183.946C61.9157 183.349 62.2268 182.868 62.6359 182.501C63.0492 182.131 63.5244 181.862 64.0613 181.696C64.5982 181.525 65.1629 181.44 65.7552 181.44C66.1472 181.44 66.5627 181.487 67.0016 181.581C67.4448 181.67 67.8582 181.837 68.2417 182.079C68.6295 182.322 68.947 182.67 69.1941 183.121C69.4413 183.569 69.5649 184.15 69.5649 184.866V191.386H67.6984V190.044H67.6217C67.4981 190.291 67.3127 190.534 67.0656 190.773C66.8184 191.011 66.5009 191.209 66.1131 191.367C65.7254 191.525 65.2609 191.604 64.7197 191.604ZM65.1352 190.069C65.6636 190.069 66.1153 189.965 66.4903 189.756C66.8695 189.547 67.1572 189.275 67.3532 188.938C67.5535 188.597 67.6536 188.233 67.6536 187.845V186.579C67.5854 186.648 67.4533 186.712 67.2573 186.771C67.0656 186.827 66.8461 186.876 66.5989 186.918C66.3518 186.957 66.111 186.993 65.8766 187.027C65.6423 187.057 65.4462 187.082 65.2886 187.104C64.9178 187.15 64.5791 187.229 64.2722 187.34C63.9697 187.451 63.7268 187.611 63.5435 187.819C63.3646 188.024 63.2751 188.297 63.2751 188.638C63.2751 189.111 63.4498 189.469 63.7992 189.712C64.1487 189.95 64.594 190.069 65.1352 190.069ZM76.6936 181.568V183.102H71.3307V181.568H76.6936ZM72.7689 179.216H74.6801V188.503C74.6801 188.874 74.7355 189.153 74.8463 189.341C74.9571 189.524 75.0998 189.65 75.2745 189.718C75.4535 189.782 75.6474 189.814 75.8562 189.814C76.0096 189.814 76.1439 189.803 76.2589 189.782C76.374 189.761 76.4635 189.743 76.5274 189.731L76.8726 191.31C76.7618 191.352 76.6041 191.395 76.3995 191.437C76.195 191.484 75.9393 191.51 75.6325 191.514C75.1297 191.523 74.6609 191.433 74.2263 191.246C73.7916 191.058 73.44 190.768 73.1716 190.376C72.9031 189.984 72.7689 189.492 72.7689 188.9V179.216ZM80.067 191.508C79.7176 191.508 79.4171 191.384 79.1657 191.137C78.9143 190.886 78.7886 190.583 78.7886 190.229C78.7886 189.88 78.9143 189.582 79.1657 189.334C79.4171 189.083 79.7176 188.957 80.067 188.957C80.4164 188.957 80.7168 189.083 80.9683 189.334C81.2197 189.582 81.3454 189.88 81.3454 190.229C81.3454 190.464 81.2857 190.679 81.1664 190.875C81.0514 191.067 80.8979 191.22 80.7062 191.335C80.5144 191.45 80.3014 191.508 80.067 191.508ZM80.067 184.361C79.7176 184.361 79.4171 184.236 79.1657 183.984C78.9143 183.733 78.7886 183.432 78.7886 183.083C78.7886 182.734 78.9143 182.435 79.1657 182.188C79.4171 181.937 79.7176 181.811 80.067 181.811C80.4164 181.811 80.7168 181.937 80.9683 182.188C81.2197 182.435 81.3454 182.734 81.3454 183.083C81.3454 183.317 81.2857 183.533 81.1664 183.729C81.0514 183.92 80.8979 184.074 80.7062 184.189C80.5144 184.304 80.3014 184.361 80.067 184.361Z" fill="#767676"/>
<path d="M220.324 189.53C219.621 189.53 218.994 189.409 218.444 189.168C217.897 188.926 217.462 188.591 217.139 188.161C216.819 187.728 216.645 187.225 216.617 186.654H217.959C217.987 187.005 218.108 187.309 218.321 187.564C218.534 187.817 218.813 188.012 219.158 188.15C219.502 188.289 219.884 188.358 220.303 188.358C220.772 188.358 221.187 188.276 221.549 188.113C221.911 187.95 222.196 187.722 222.401 187.431C222.607 187.14 222.71 186.803 222.71 186.419C222.71 186.018 222.611 185.665 222.412 185.359C222.213 185.05 221.922 184.809 221.539 184.635C221.155 184.461 220.686 184.374 220.132 184.374H219.259V183.202H220.132C220.566 183.202 220.946 183.124 221.272 182.968C221.602 182.811 221.86 182.591 222.045 182.307C222.233 182.023 222.327 181.689 222.327 181.306C222.327 180.936 222.245 180.615 222.082 180.341C221.919 180.068 221.688 179.855 221.389 179.702C221.095 179.55 220.747 179.473 220.345 179.473C219.969 179.473 219.614 179.542 219.28 179.681C218.95 179.816 218.68 180.013 218.47 180.272C218.261 180.528 218.147 180.837 218.129 181.199H216.851C216.872 180.627 217.045 180.127 217.368 179.697C217.691 179.264 218.113 178.926 218.636 178.685C219.161 178.443 219.738 178.323 220.367 178.323C221.041 178.323 221.62 178.459 222.103 178.733C222.586 179.003 222.957 179.36 223.216 179.803C223.476 180.247 223.605 180.727 223.605 181.242C223.605 181.856 223.444 182.38 223.121 182.813C222.801 183.246 222.366 183.546 221.816 183.713V183.798C222.504 183.912 223.042 184.205 223.43 184.677C223.817 185.146 224.01 185.727 224.01 186.419C224.01 187.012 223.849 187.545 223.525 188.017C223.206 188.486 222.769 188.855 222.215 189.125C221.661 189.395 221.031 189.53 220.324 189.53ZM229.598 189.53C228.973 189.53 228.41 189.406 227.909 189.157C227.409 188.909 227.007 188.568 226.705 188.134C226.404 187.701 226.238 187.208 226.21 186.654H227.488C227.538 187.147 227.762 187.556 228.16 187.879C228.561 188.198 229.04 188.358 229.598 188.358C230.045 188.358 230.443 188.253 230.791 188.044C231.143 187.834 231.418 187.547 231.617 187.181C231.819 186.812 231.92 186.394 231.92 185.929C231.92 185.453 231.816 185.029 231.606 184.656C231.4 184.28 231.116 183.983 230.754 183.767C230.392 183.55 229.978 183.44 229.513 183.436C229.179 183.433 228.836 183.484 228.485 183.591C228.133 183.694 227.844 183.827 227.616 183.99L226.381 183.841L227.041 178.472H232.709V179.644H228.149L227.765 182.861H227.829C228.053 182.683 228.334 182.536 228.671 182.419C229.008 182.302 229.36 182.243 229.726 182.243C230.393 182.243 230.988 182.403 231.51 182.722C232.036 183.039 232.448 183.472 232.746 184.022C233.048 184.573 233.199 185.201 233.199 185.908C233.199 186.604 233.042 187.225 232.73 187.772C232.421 188.316 231.995 188.745 231.452 189.061C230.908 189.374 230.29 189.53 229.598 189.53ZM240.173 178.472L243.411 187.655H243.539L246.778 178.472H248.163L244.157 189.381H242.793L238.788 178.472H240.173ZM250.949 184.459V189.381H249.692V178.472H250.949V182.477H251.055C251.247 182.055 251.535 181.719 251.918 181.471C252.305 181.219 252.82 181.093 253.463 181.093C254.02 181.093 254.509 181.204 254.928 181.428C255.347 181.648 255.672 181.987 255.902 182.445C256.137 182.9 256.254 183.479 256.254 184.182V189.381H254.997V184.267C254.997 183.617 254.828 183.115 254.491 182.76C254.157 182.401 253.694 182.222 253.101 182.222C252.689 182.222 252.319 182.309 251.993 182.483C251.67 182.657 251.414 182.911 251.226 183.244C251.041 183.578 250.949 183.983 250.949 184.459ZM260.961 189.573C260.443 189.573 259.973 189.475 259.55 189.28C259.127 189.081 258.792 188.795 258.543 188.422C258.295 188.046 258.17 187.591 258.17 187.058C258.17 186.59 258.263 186.21 258.447 185.919C258.632 185.624 258.879 185.393 259.188 185.226C259.497 185.059 259.838 184.935 260.21 184.853C260.587 184.768 260.965 184.7 261.345 184.651C261.842 184.587 262.245 184.539 262.554 184.507C262.867 184.471 263.094 184.413 263.236 184.331C263.382 184.249 263.454 184.107 263.454 183.905V183.862C263.454 183.337 263.311 182.928 263.023 182.637C262.739 182.346 262.307 182.2 261.729 182.2C261.128 182.2 260.658 182.332 260.317 182.595C259.976 182.857 259.736 183.138 259.598 183.436L258.405 183.01C258.618 182.513 258.902 182.126 259.257 181.849C259.616 181.568 260.006 181.373 260.429 181.263C260.855 181.149 261.274 181.093 261.686 181.093C261.949 181.093 262.251 181.124 262.591 181.188C262.936 181.249 263.268 181.375 263.588 181.567C263.911 181.758 264.179 182.048 264.392 182.435C264.605 182.822 264.711 183.34 264.711 183.99V189.381H263.454V188.273H263.39C263.305 188.45 263.163 188.64 262.964 188.843C262.765 189.045 262.501 189.218 262.171 189.36C261.84 189.502 261.437 189.573 260.961 189.573ZM261.153 188.443C261.65 188.443 262.069 188.346 262.41 188.15C262.755 187.955 263.014 187.703 263.188 187.394C263.366 187.085 263.454 186.76 263.454 186.419V185.269C263.401 185.333 263.284 185.391 263.103 185.444C262.925 185.494 262.719 185.539 262.485 185.578C262.254 185.613 262.029 185.645 261.808 185.673C261.592 185.698 261.416 185.72 261.281 185.737C260.954 185.78 260.649 185.849 260.365 185.945C260.084 186.037 259.857 186.178 259.683 186.366C259.513 186.551 259.427 186.803 259.427 187.122C259.427 187.559 259.589 187.889 259.912 188.113C260.239 188.333 260.653 188.443 261.153 188.443ZM270.564 181.199V182.264H266.324V181.199H270.564ZM267.56 179.239H268.817V187.037C268.817 187.392 268.869 187.659 268.972 187.836C269.078 188.01 269.213 188.127 269.376 188.188C269.543 188.244 269.719 188.273 269.904 188.273C270.042 188.273 270.156 188.266 270.245 188.252C270.333 188.234 270.404 188.22 270.458 188.209L270.713 189.338C270.628 189.37 270.509 189.402 270.356 189.434C270.204 189.47 270.01 189.487 269.776 189.487C269.421 189.487 269.073 189.411 268.732 189.258C268.394 189.106 268.114 188.873 267.89 188.561C267.67 188.248 267.56 187.854 267.56 187.378V179.239ZM274.863 189.573C274.344 189.573 273.874 189.475 273.451 189.28C273.029 189.081 272.693 188.795 272.445 188.422C272.196 188.046 272.072 187.591 272.072 187.058C272.072 186.59 272.164 186.21 272.349 185.919C272.533 185.624 272.78 185.393 273.089 185.226C273.398 185.059 273.739 184.935 274.112 184.853C274.488 184.768 274.866 184.7 275.246 184.651C275.744 184.587 276.147 184.539 276.456 184.507C276.768 184.471 276.995 184.413 277.137 184.331C277.283 184.249 277.356 184.107 277.356 183.905V183.862C277.356 183.337 277.212 182.928 276.924 182.637C276.64 182.346 276.209 182.2 275.63 182.2C275.03 182.2 274.559 182.332 274.218 182.595C273.877 182.857 273.638 183.138 273.499 183.436L272.306 183.01C272.519 182.513 272.803 182.126 273.158 181.849C273.517 181.568 273.908 181.373 274.33 181.263C274.756 181.149 275.175 181.093 275.587 181.093C275.85 181.093 276.152 181.124 276.493 181.188C276.837 181.249 277.169 181.375 277.489 181.567C277.812 181.758 278.08 182.048 278.293 182.435C278.506 182.822 278.613 183.34 278.613 183.99V189.381H277.356V188.273H277.292C277.207 188.45 277.065 188.64 276.866 188.843C276.667 189.045 276.402 189.218 276.072 189.36C275.742 189.502 275.339 189.573 274.863 189.573ZM275.055 188.443C275.552 188.443 275.971 188.346 276.312 188.15C276.656 187.955 276.915 187.703 277.089 187.394C277.267 187.085 277.356 186.76 277.356 186.419V185.269C277.302 185.333 277.185 185.391 277.004 185.444C276.827 185.494 276.621 185.539 276.386 185.578C276.155 185.613 275.93 185.645 275.71 185.673C275.493 185.698 275.317 185.72 275.182 185.737C274.856 185.78 274.55 185.849 274.266 185.945C273.986 186.037 273.758 186.178 273.584 186.366C273.414 186.551 273.329 186.803 273.329 187.122C273.329 187.559 273.49 187.889 273.814 188.113C274.14 188.333 274.554 188.443 275.055 188.443ZM280.907 189.381V181.199H282.122V182.435H282.207C282.356 182.03 282.626 181.702 283.017 181.449C283.407 181.197 283.848 181.071 284.338 181.071C284.43 181.071 284.545 181.073 284.684 181.077C284.822 181.08 284.927 181.085 284.998 181.093V182.371C284.956 182.36 284.858 182.344 284.705 182.323C284.556 182.298 284.398 182.286 284.231 182.286C283.833 182.286 283.478 182.369 283.166 182.536C282.857 182.699 282.612 182.927 282.431 183.218C282.253 183.506 282.164 183.834 282.164 184.203V189.381H280.907ZM288.896 189.573C288.378 189.573 287.907 189.475 287.484 189.28C287.062 189.081 286.726 188.795 286.478 188.422C286.229 188.046 286.105 187.591 286.105 187.058C286.105 186.59 286.197 186.21 286.382 185.919C286.567 185.624 286.813 185.393 287.122 185.226C287.431 185.059 287.772 184.935 288.145 184.853C288.521 184.768 288.9 184.7 289.28 184.651C289.777 184.587 290.18 184.539 290.489 184.507C290.801 184.471 291.029 184.413 291.171 184.331C291.316 184.249 291.389 184.107 291.389 183.905V183.862C291.389 183.337 291.245 182.928 290.958 182.637C290.673 182.346 290.242 182.2 289.663 182.2C289.063 182.2 288.592 182.332 288.252 182.595C287.911 182.857 287.671 183.138 287.532 183.436L286.339 183.01C286.552 182.513 286.836 182.126 287.192 181.849C287.55 181.568 287.941 181.373 288.363 181.263C288.79 181.149 289.209 181.093 289.621 181.093C289.883 181.093 290.185 181.124 290.526 181.188C290.871 181.249 291.203 181.375 291.522 181.567C291.845 181.758 292.113 182.048 292.326 182.435C292.54 182.822 292.646 183.34 292.646 183.99V189.381H291.389V188.273H291.325C291.24 188.45 291.098 188.64 290.899 188.843C290.7 189.045 290.435 189.218 290.105 189.36C289.775 189.502 289.372 189.573 288.896 189.573ZM289.088 188.443C289.585 188.443 290.004 188.346 290.345 188.15C290.689 187.955 290.949 187.703 291.123 187.394C291.3 187.085 291.389 186.76 291.389 186.419V185.269C291.336 185.333 291.219 185.391 291.037 185.444C290.86 185.494 290.654 185.539 290.42 185.578C290.189 185.613 289.963 185.645 289.743 185.673C289.526 185.698 289.351 185.72 289.216 185.737C288.889 185.78 288.584 185.849 288.299 185.945C288.019 186.037 287.792 186.178 287.618 186.366C287.447 186.551 287.362 186.803 287.362 187.122C287.362 187.559 287.524 187.889 287.847 188.113C288.173 188.333 288.587 188.443 289.088 188.443ZM296.816 187.889L296.73 188.465C296.67 188.869 296.578 189.303 296.453 189.764C296.333 190.226 296.207 190.661 296.075 191.069C295.944 191.478 295.835 191.803 295.75 192.044H294.791C294.838 191.817 294.898 191.517 294.973 191.144C295.047 190.771 295.122 190.354 295.196 189.892C295.274 189.434 295.338 188.965 295.388 188.486L295.452 187.889H296.816ZM303.534 189.381V178.472H307.348C308.108 178.472 308.734 178.603 309.228 178.866C309.722 179.125 310.089 179.475 310.331 179.915C310.572 180.352 310.693 180.837 310.693 181.369C310.693 181.838 310.609 182.225 310.443 182.531C310.279 182.836 310.063 183.078 309.793 183.255C309.526 183.433 309.237 183.564 308.924 183.649V183.756C309.258 183.777 309.594 183.894 309.931 184.107C310.269 184.32 310.551 184.626 310.778 185.024C311.005 185.421 311.119 185.908 311.119 186.483C311.119 187.03 310.995 187.522 310.746 187.959C310.498 188.395 310.105 188.742 309.569 188.997C309.033 189.253 308.335 189.381 307.476 189.381H303.534ZM304.855 188.209H307.476C308.339 188.209 308.951 188.042 309.313 187.708C309.679 187.371 309.862 186.963 309.862 186.483C309.862 186.114 309.768 185.773 309.58 185.46C309.391 185.144 309.123 184.892 308.775 184.704C308.427 184.512 308.015 184.416 307.54 184.416H304.855V188.209ZM304.855 183.266H307.305C307.703 183.266 308.062 183.188 308.381 183.031C308.704 182.875 308.96 182.655 309.148 182.371C309.34 182.087 309.436 181.753 309.436 181.369C309.436 180.89 309.269 180.483 308.935 180.15C308.601 179.812 308.072 179.644 307.348 179.644H304.855V183.266ZM315.527 189.573C315.008 189.573 314.538 189.475 314.115 189.28C313.693 189.081 313.357 188.795 313.109 188.422C312.86 188.046 312.736 187.591 312.736 187.058C312.736 186.59 312.828 186.21 313.013 185.919C313.197 185.624 313.444 185.393 313.753 185.226C314.062 185.059 314.403 184.935 314.776 184.853C315.152 184.768 315.53 184.7 315.91 184.651C316.408 184.587 316.811 184.539 317.12 184.507C317.432 184.471 317.659 184.413 317.801 184.331C317.947 184.249 318.02 184.107 318.02 183.905V183.862C318.02 183.337 317.876 182.928 317.588 182.637C317.304 182.346 316.873 182.2 316.294 182.2C315.694 182.2 315.223 182.332 314.882 182.595C314.541 182.857 314.302 183.138 314.163 183.436L312.97 183.01C313.183 182.513 313.467 182.126 313.822 181.849C314.181 181.568 314.572 181.373 314.994 181.263C315.42 181.149 315.839 181.093 316.251 181.093C316.514 181.093 316.816 181.124 317.157 181.188C317.501 181.249 317.833 181.375 318.153 181.567C318.476 181.758 318.744 182.048 318.957 182.435C319.17 182.822 319.277 183.34 319.277 183.99V189.381H318.02V188.273H317.956C317.871 188.45 317.729 188.64 317.53 188.843C317.331 189.045 317.066 189.218 316.736 189.36C316.406 189.502 316.003 189.573 315.527 189.573ZM315.719 188.443C316.216 188.443 316.635 188.346 316.976 188.15C317.32 187.955 317.579 187.703 317.753 187.394C317.931 187.085 318.02 186.76 318.02 186.419V185.269C317.967 185.333 317.849 185.391 317.668 185.444C317.491 185.494 317.285 185.539 317.05 185.578C316.82 185.613 316.594 185.645 316.374 185.673C316.157 185.698 315.981 185.72 315.847 185.737C315.52 185.78 315.214 185.849 314.93 185.945C314.65 186.037 314.423 186.178 314.249 186.366C314.078 186.551 313.993 186.803 313.993 187.122C313.993 187.559 314.154 187.889 314.478 188.113C314.804 188.333 315.218 188.443 315.719 188.443ZM324.661 189.551C323.979 189.551 323.377 189.379 322.855 189.035C322.333 188.687 321.925 188.197 321.63 187.564C321.335 186.929 321.188 186.178 321.188 185.311C321.188 184.452 321.335 183.706 321.63 183.074C321.925 182.442 322.335 181.954 322.86 181.609C323.386 181.265 323.993 181.093 324.682 181.093C325.215 181.093 325.636 181.181 325.945 181.359C326.257 181.533 326.495 181.732 326.658 181.955C326.825 182.176 326.955 182.357 327.047 182.499H327.154V178.472H328.411V189.381H327.196V188.124H327.047C326.955 188.273 326.824 188.461 326.653 188.688C326.483 188.912 326.239 189.113 325.923 189.29C325.607 189.464 325.186 189.551 324.661 189.551ZM324.831 188.422C325.336 188.422 325.762 188.291 326.11 188.028C326.458 187.762 326.722 187.394 326.903 186.925C327.085 186.453 327.175 185.908 327.175 185.29C327.175 184.679 327.086 184.145 326.909 183.687C326.731 183.225 326.468 182.866 326.12 182.611C325.772 182.351 325.343 182.222 324.831 182.222C324.299 182.222 323.855 182.358 323.5 182.632C323.148 182.902 322.884 183.269 322.706 183.735C322.532 184.196 322.445 184.715 322.445 185.29C322.445 185.872 322.534 186.401 322.711 186.877C322.892 187.35 323.159 187.726 323.51 188.007C323.865 188.284 324.306 188.422 324.831 188.422ZM333.977 189.551C333.295 189.551 332.694 189.379 332.172 189.035C331.65 188.687 331.241 188.197 330.946 187.564C330.652 186.929 330.504 186.178 330.504 185.311C330.504 184.452 330.652 183.706 330.946 183.074C331.241 182.442 331.651 181.954 332.177 181.609C332.702 181.265 333.31 181.093 333.999 181.093C334.531 181.093 334.952 181.181 335.261 181.359C335.574 181.533 335.811 181.732 335.975 181.955C336.142 182.176 336.271 182.357 336.364 182.499H336.47V178.472H337.727V189.381H336.513V188.124H336.364C336.271 188.273 336.14 188.461 335.969 188.688C335.799 188.912 335.556 189.113 335.24 189.29C334.924 189.464 334.503 189.551 333.977 189.551ZM334.148 188.422C334.652 188.422 335.078 188.291 335.426 188.028C335.774 187.762 336.039 187.394 336.22 186.925C336.401 186.453 336.492 185.908 336.492 185.29C336.492 184.679 336.403 184.145 336.225 183.687C336.048 183.225 335.785 182.866 335.437 182.611C335.089 182.351 334.659 182.222 334.148 182.222C333.615 182.222 333.171 182.358 332.816 182.632C332.465 182.902 332.2 183.269 332.022 183.735C331.848 184.196 331.761 184.715 331.761 185.29C331.761 185.872 331.85 186.401 332.028 186.877C332.209 187.35 332.475 187.726 332.827 188.007C333.182 188.284 333.622 188.422 334.148 188.422ZM342.612 189.573C342.093 189.573 341.623 189.475 341.2 189.28C340.778 189.081 340.442 188.795 340.194 188.422C339.945 188.046 339.821 187.591 339.821 187.058C339.821 186.59 339.913 186.21 340.098 185.919C340.282 185.624 340.529 185.393 340.838 185.226C341.147 185.059 341.488 184.935 341.861 184.853C342.237 184.768 342.615 184.7 342.995 184.651C343.493 184.587 343.896 184.539 344.205 184.507C344.517 184.471 344.744 184.413 344.886 184.331C345.032 184.249 345.105 184.107 345.105 183.905V183.862C345.105 183.337 344.961 182.928 344.673 182.637C344.389 182.346 343.958 182.2 343.379 182.2C342.779 182.2 342.308 182.332 341.967 182.595C341.626 182.857 341.387 183.138 341.248 183.436L340.055 183.01C340.268 182.513 340.552 182.126 340.907 181.849C341.266 181.568 341.657 181.373 342.079 181.263C342.505 181.149 342.924 181.093 343.336 181.093C343.599 181.093 343.901 181.124 344.242 181.188C344.586 181.249 344.918 181.375 345.238 181.567C345.561 181.758 345.829 182.048 346.042 182.435C346.255 182.822 346.362 183.34 346.362 183.99V189.381H345.105V188.273H345.041C344.956 188.45 344.814 188.64 344.615 188.843C344.416 189.045 344.151 189.218 343.821 189.36C343.491 189.502 343.088 189.573 342.612 189.573ZM342.804 188.443C343.301 188.443 343.72 188.346 344.061 188.15C344.405 187.955 344.664 187.703 344.838 187.394C345.016 187.085 345.105 186.76 345.105 186.419V185.269C345.052 185.333 344.934 185.391 344.753 185.444C344.576 185.494 344.37 185.539 344.135 185.578C343.905 185.613 343.679 185.645 343.459 185.673C343.242 185.698 343.066 185.72 342.931 185.737C342.605 185.78 342.299 185.849 342.015 185.945C341.735 186.037 341.507 186.178 341.333 186.366C341.163 186.551 341.078 186.803 341.078 187.122C341.078 187.559 341.239 187.889 341.563 188.113C341.889 188.333 342.303 188.443 342.804 188.443Z" fill="#767676"/>
<ellipse cx="186.344" cy="45.7142" rx="20.1458" ry="20.1058" fill="#FFB400"/>
<g clip-path="url(#clip0_1_2339)">
<path d="M178.791 40.4366L184.079 38.1747L188.612 40.4366L193.374 38.4001C193.431 38.3755 193.494 38.3656 193.556 38.3711C193.619 38.3767 193.679 38.3976 193.731 38.432C193.783 38.4664 193.826 38.5131 193.855 38.5681C193.885 38.6231 193.901 38.6845 193.9 38.7469V50.9921L188.612 53.254L184.079 50.9921L179.318 53.0286C179.26 53.0532 179.198 53.0632 179.135 53.0576C179.073 53.052 179.013 53.0311 178.961 52.9968C178.909 52.9624 178.866 52.9156 178.836 52.8606C178.807 52.8057 178.791 52.7442 178.791 52.6818V40.4366ZM188.612 51.5682V42.0772L188.563 42.0983L184.079 39.8606V49.3515L184.129 49.3304L188.612 51.5682Z" fill="#2B2B2B"/>
</g>
<defs>
<clipPath id="clip0_1_2339">
<rect width="18.1312" height="18.0952" fill="white" transform="translate(177.28 36.6667)"/>
</clipPath>
</defs>
</svg>
