<svg width="373" height="212" viewBox="0 0 373 212" fill="none" xmlns="http://www.w3.org/2000/svg">
<rect x="-0.00012207" y="0.888672" width="372.696" height="211.111" fill="white"/>
<path d="M33.7534 104.74C33.6852 104.134 33.404 103.666 32.9097 103.333C32.4154 102.997 31.7932 102.828 31.0432 102.828C30.5063 102.828 30.0418 102.914 29.6497 103.084C29.2577 103.25 28.953 103.48 28.7357 103.774C28.5226 104.064 28.4161 104.394 28.4161 104.765C28.4161 105.076 28.4885 105.345 28.6334 105.571C28.7825 105.796 28.9764 105.986 29.2151 106.139C29.458 106.289 29.7179 106.414 29.9949 106.517C30.2719 106.615 30.5382 106.696 30.7939 106.759L32.0723 107.092C32.4899 107.194 32.9182 107.333 33.3571 107.507C33.796 107.682 34.203 107.912 34.578 108.198C34.953 108.483 35.2555 108.837 35.4857 109.259C35.72 109.681 35.8372 110.186 35.8372 110.774C35.8372 111.515 35.6455 112.174 35.2619 112.749C34.8827 113.324 34.3308 113.778 33.6064 114.11C32.8862 114.443 32.0148 114.609 30.9921 114.609C30.0119 114.609 29.1639 114.453 28.448 114.142C27.7321 113.831 27.1717 113.39 26.7669 112.819C26.3621 112.244 26.1384 111.562 26.0957 110.774H28.0773C28.1156 111.247 28.269 111.641 28.5375 111.956C28.8102 112.267 29.1575 112.5 29.5794 112.653C30.0055 112.802 30.4722 112.877 30.9793 112.877C31.5375 112.877 32.034 112.789 32.4686 112.615C32.9075 112.436 33.2527 112.188 33.5041 111.873C33.7555 111.554 33.8813 111.181 33.8813 110.755C33.8813 110.367 33.7705 110.049 33.5489 109.802C33.3315 109.555 33.0354 109.35 32.6604 109.188C32.2896 109.027 31.8699 108.884 31.4011 108.76L29.8543 108.338C28.806 108.053 27.975 107.633 27.3614 107.079C26.752 106.525 26.4473 105.792 26.4473 104.88C26.4473 104.126 26.6519 103.468 27.0609 102.905C27.47 102.343 28.024 101.906 28.7229 101.595C29.4217 101.279 30.2101 101.122 31.0879 101.122C31.9743 101.122 32.7563 101.277 33.4338 101.588C34.1156 101.899 34.6526 102.328 35.0446 102.873C35.4367 103.414 35.6412 104.036 35.6582 104.74H33.7534ZM44.2635 110.32V104.573H46.1812V114.392H44.3019V112.691H44.1996C43.9738 113.215 43.6116 113.652 43.113 114.002C42.6187 114.347 42.0029 114.519 41.2657 114.519C40.635 114.519 40.0767 114.381 39.591 114.104C39.1094 113.823 38.7302 113.407 38.4532 112.858C38.1804 112.308 38.0441 111.628 38.0441 110.818V104.573H39.9553V110.588C39.9553 111.257 40.1407 111.79 40.5114 112.186C40.8821 112.583 41.3637 112.781 41.956 112.781C42.314 112.781 42.6698 112.691 43.0235 112.512C43.3814 112.333 43.6776 112.063 43.912 111.701C44.1506 111.338 44.2678 110.878 44.2635 110.32ZM48.7492 118.073V104.573H50.6156V106.165H50.7754C50.8862 105.96 51.046 105.724 51.2548 105.456C51.4636 105.187 51.7534 104.953 52.1242 104.752C52.4949 104.548 52.985 104.446 53.5943 104.446C54.3869 104.446 55.0943 104.646 55.7165 105.046C56.3386 105.447 56.8266 106.024 57.1803 106.779C57.5382 107.533 57.7172 108.441 57.7172 109.502C57.7172 110.563 57.5404 111.473 57.1867 112.231C56.833 112.985 56.3472 113.567 55.7293 113.976C55.1114 114.381 54.4061 114.583 53.6135 114.583C53.0169 114.583 52.529 114.483 52.1497 114.283C51.7747 114.083 51.4807 113.848 51.2676 113.58C51.0546 113.311 50.8905 113.073 50.7754 112.864H50.6604V118.073H48.7492ZM50.622 109.483C50.622 110.173 50.7222 110.778 50.9225 111.298C51.1227 111.818 51.4125 112.225 51.7918 112.519C52.171 112.809 52.6355 112.953 53.1852 112.953C53.7563 112.953 54.2335 112.802 54.6171 112.5C55.0006 112.193 55.2904 111.777 55.4864 111.253C55.6867 110.729 55.7868 110.139 55.7868 109.483C55.7868 108.835 55.6888 108.253 55.4928 107.737C55.301 107.222 55.0112 106.815 54.6234 106.517C54.2399 106.218 53.7605 106.069 53.1852 106.069C52.6313 106.069 52.1625 106.212 51.779 106.497C51.3997 106.783 51.1121 107.181 50.9161 107.693C50.72 108.204 50.622 108.801 50.622 109.483ZM59.8585 118.073V104.573H61.725V106.165H61.8848C61.9956 105.96 62.1554 105.724 62.3642 105.456C62.573 105.187 62.8628 104.953 63.2335 104.752C63.6043 104.548 64.0943 104.446 64.7037 104.446C65.4963 104.446 66.2037 104.646 66.8259 105.046C67.448 105.447 67.9359 106.024 68.2896 106.779C68.6476 107.533 68.8266 108.441 68.8266 109.502C68.8266 110.563 68.6497 111.473 68.296 112.231C67.9423 112.985 67.4565 113.567 66.8386 113.976C66.2207 114.381 65.5155 114.583 64.7229 114.583C64.1263 114.583 63.6384 114.483 63.2591 114.283C62.8841 114.083 62.5901 113.848 62.377 113.58C62.1639 113.311 61.9999 113.073 61.8848 112.864H61.7698V118.073H59.8585ZM61.7314 109.483C61.7314 110.173 61.8315 110.778 62.0318 111.298C62.2321 111.818 62.5219 112.225 62.9011 112.519C63.2804 112.809 63.7449 112.953 64.2946 112.953C64.8656 112.953 65.3429 112.802 65.7264 112.5C66.11 112.193 66.3997 111.777 66.5957 111.253C66.796 110.729 66.8962 110.139 66.8962 109.483C66.8962 108.835 66.7982 108.253 66.6021 107.737C66.4104 107.222 66.1206 106.815 65.7328 106.517C65.3493 106.218 64.8699 106.069 64.2946 106.069C63.7406 106.069 63.2719 106.212 62.8884 106.497C62.5091 106.783 62.2215 107.181 62.0254 107.693C61.8294 108.204 61.7314 108.801 61.7314 109.483ZM75.1036 114.59C74.1831 114.59 73.3798 114.379 72.6938 113.957C72.0077 113.535 71.475 112.945 71.0957 112.186C70.7165 111.428 70.5269 110.541 70.5269 109.527C70.5269 108.509 70.7165 107.618 71.0957 106.855C71.475 106.093 72.0077 105.5 72.6938 105.078C73.3798 104.657 74.1831 104.446 75.1036 104.446C76.024 104.446 76.8273 104.657 77.5134 105.078C78.1994 105.5 78.7321 106.093 79.1114 106.855C79.4906 107.618 79.6803 108.509 79.6803 109.527C79.6803 110.541 79.4906 111.428 79.1114 112.186C78.7321 112.945 78.1994 113.535 77.5134 113.957C76.8273 114.379 76.024 114.59 75.1036 114.59ZM75.11 112.985C75.7065 112.985 76.2009 112.828 76.5929 112.512C76.985 112.197 77.2747 111.777 77.4622 111.253C77.654 110.729 77.7499 110.152 77.7499 109.521C77.7499 108.894 77.654 108.319 77.4622 107.795C77.2747 107.267 76.985 106.843 76.5929 106.523C76.2009 106.203 75.7065 106.044 75.11 106.044C74.5091 106.044 74.0105 106.203 73.6142 106.523C73.2222 106.843 72.9303 107.267 72.7385 107.795C72.551 108.319 72.4573 108.894 72.4573 109.521C72.4573 110.152 72.551 110.729 72.7385 111.253C72.9303 111.777 73.2222 112.197 73.6142 112.512C74.0105 112.828 74.5091 112.985 75.11 112.985ZM81.8136 114.392V104.573H83.6609V106.133H83.7632C83.9422 105.605 84.2575 105.189 84.7092 104.887C85.1652 104.58 85.6808 104.426 86.2561 104.426C86.3754 104.426 86.516 104.431 86.678 104.439C86.8441 104.448 86.9741 104.458 87.0679 104.471V106.299C86.9912 106.278 86.8548 106.255 86.6588 106.229C86.4628 106.199 86.2667 106.184 86.0707 106.184C85.619 106.184 85.2163 106.28 84.8626 106.472C84.5132 106.659 84.2362 106.921 84.0316 107.258C83.8271 107.59 83.7248 107.97 83.7248 108.396V114.392H81.8136ZM93.885 104.573V106.108H88.5221V104.573H93.885ZM89.9603 102.221H91.8715V111.509C91.8715 111.88 91.9269 112.159 92.0377 112.346C92.1485 112.529 92.2912 112.655 92.466 112.723C92.6449 112.787 92.8388 112.819 93.0476 112.819C93.201 112.819 93.3353 112.809 93.4503 112.787C93.5654 112.766 93.6549 112.749 93.7188 112.736L94.064 114.315C93.9532 114.358 93.7955 114.4 93.591 114.443C93.3864 114.49 93.1307 114.515 92.8239 114.519C92.3211 114.528 91.8523 114.438 91.4177 114.251C90.983 114.063 90.6314 113.774 90.363 113.382C90.0945 112.99 89.9603 112.497 89.9603 111.905V102.221ZM108.056 104.74C107.988 104.134 107.707 103.666 107.212 103.333C106.718 102.997 106.096 102.828 105.346 102.828C104.809 102.828 104.345 102.914 103.952 103.084C103.56 103.25 103.256 103.48 103.038 103.774C102.825 104.064 102.719 104.394 102.719 104.765C102.719 105.076 102.791 105.345 102.936 105.571C103.085 105.796 103.279 105.986 103.518 106.139C103.761 106.289 104.021 106.414 104.298 106.517C104.575 106.615 104.841 106.696 105.097 106.759L106.375 107.092C106.793 107.194 107.221 107.333 107.66 107.507C108.099 107.682 108.506 107.912 108.881 108.198C109.256 108.483 109.558 108.837 109.788 109.259C110.023 109.681 110.14 110.186 110.14 110.774C110.14 111.515 109.948 112.174 109.565 112.749C109.185 113.324 108.634 113.778 107.909 114.11C107.189 114.443 106.318 114.609 105.295 114.609C104.315 114.609 103.467 114.453 102.751 114.142C102.035 113.831 101.474 113.39 101.07 112.819C100.665 112.244 100.441 111.562 100.398 110.774H102.38C102.418 111.247 102.572 111.641 102.84 111.956C103.113 112.267 103.46 112.5 103.882 112.653C104.308 112.802 104.775 112.877 105.282 112.877C105.84 112.877 106.337 112.789 106.771 112.615C107.21 112.436 107.555 112.188 107.807 111.873C108.058 111.554 108.184 111.181 108.184 110.755C108.184 110.367 108.073 110.049 107.852 109.802C107.634 109.555 107.338 109.35 106.963 109.188C106.592 109.027 106.173 108.884 105.704 108.76L104.157 108.338C103.109 108.053 102.278 107.633 101.664 107.079C101.055 106.525 100.75 105.792 100.75 104.88C100.75 104.126 100.955 103.468 101.364 102.905C101.773 102.343 102.327 101.906 103.026 101.595C103.724 101.279 104.513 101.122 105.391 101.122C106.277 101.122 107.059 101.277 107.737 101.588C108.418 101.899 108.955 102.328 109.347 102.873C109.739 103.414 109.944 104.036 109.961 104.74H108.056ZM116.578 114.59C115.611 114.59 114.778 114.383 114.079 113.97C113.384 113.552 112.848 112.966 112.468 112.212C112.093 111.453 111.906 110.565 111.906 109.546C111.906 108.541 112.093 107.654 112.468 106.887C112.848 106.12 113.376 105.522 114.053 105.091C114.735 104.661 115.532 104.446 116.444 104.446C116.998 104.446 117.535 104.537 118.055 104.72C118.575 104.904 119.041 105.191 119.455 105.583C119.868 105.975 120.194 106.485 120.433 107.111C120.671 107.733 120.791 108.49 120.791 109.38V110.058H112.986V108.626H118.918C118.918 108.123 118.816 107.678 118.611 107.29C118.406 106.898 118.119 106.589 117.748 106.363C117.382 106.137 116.951 106.024 116.457 106.024C115.92 106.024 115.451 106.157 115.051 106.421C114.654 106.681 114.348 107.022 114.13 107.443C113.917 107.861 113.811 108.315 113.811 108.805V109.924C113.811 110.58 113.926 111.138 114.156 111.598C114.39 112.059 114.716 112.41 115.134 112.653C115.551 112.892 116.039 113.011 116.598 113.011C116.96 113.011 117.29 112.96 117.588 112.858C117.887 112.751 118.144 112.593 118.362 112.384C118.579 112.176 118.745 111.918 118.86 111.611L120.669 111.937C120.524 112.47 120.264 112.936 119.889 113.337C119.519 113.733 119.052 114.042 118.49 114.264C117.931 114.481 117.294 114.59 116.578 114.59ZM122.911 114.392V104.573H124.759V106.133H124.861C125.04 105.605 125.355 105.189 125.807 104.887C126.263 104.58 126.778 104.426 127.354 104.426C127.473 104.426 127.614 104.431 127.776 104.439C127.942 104.448 128.072 104.458 128.166 104.471V106.299C128.089 106.278 127.952 106.255 127.756 106.229C127.56 106.199 127.364 106.184 127.168 106.184C126.717 106.184 126.314 106.28 125.96 106.472C125.611 106.659 125.334 106.921 125.129 107.258C124.925 107.59 124.822 107.97 124.822 108.396V114.392H122.911ZM138.517 104.573L134.957 114.392H132.912L129.345 104.573H131.397L133.883 112.129H133.985L136.466 104.573H138.517ZM140.314 114.392V104.573H142.225V114.392H140.314ZM141.279 103.059C140.946 103.059 140.661 102.948 140.422 102.726C140.188 102.5 140.071 102.232 140.071 101.921C140.071 101.605 140.188 101.337 140.422 101.115C140.661 100.889 140.946 100.777 141.279 100.777C141.611 100.777 141.895 100.889 142.129 101.115C142.368 101.337 142.487 101.605 142.487 101.921C142.487 102.232 142.368 102.5 142.129 102.726C141.895 102.948 141.611 103.059 141.279 103.059ZM148.932 114.59C147.981 114.59 147.163 114.375 146.477 113.944C145.795 113.509 145.271 112.911 144.905 112.148C144.538 111.385 144.355 110.512 144.355 109.527C144.355 108.53 144.542 107.65 144.917 106.887C145.292 106.12 145.821 105.522 146.503 105.091C147.185 104.661 147.988 104.446 148.913 104.446C149.658 104.446 150.323 104.584 150.907 104.861C151.491 105.134 151.962 105.517 152.319 106.012C152.682 106.506 152.897 107.083 152.965 107.744H151.105C151.003 107.284 150.768 106.887 150.402 106.555C150.04 106.223 149.554 106.056 148.944 106.056C148.412 106.056 147.945 106.197 147.545 106.478C147.148 106.755 146.839 107.152 146.618 107.667C146.396 108.179 146.285 108.784 146.285 109.483C146.285 110.198 146.394 110.816 146.611 111.336C146.829 111.856 147.136 112.259 147.532 112.544C147.932 112.83 148.403 112.973 148.944 112.973C149.307 112.973 149.635 112.907 149.929 112.774C150.227 112.638 150.476 112.444 150.677 112.193C150.881 111.941 151.024 111.639 151.105 111.285H152.965C152.897 111.92 152.69 112.487 152.345 112.985C152 113.484 151.538 113.876 150.958 114.161C150.383 114.447 149.707 114.59 148.932 114.59ZM159.24 114.59C158.273 114.59 157.44 114.383 156.741 113.97C156.047 113.552 155.51 112.966 155.13 112.212C154.755 111.453 154.568 110.565 154.568 109.546C154.568 108.541 154.755 107.654 155.13 106.887C155.51 106.12 156.038 105.522 156.716 105.091C157.397 104.661 158.194 104.446 159.106 104.446C159.66 104.446 160.197 104.537 160.717 104.72C161.237 104.904 161.704 105.191 162.117 105.583C162.53 105.975 162.856 106.485 163.095 107.111C163.333 107.733 163.453 108.49 163.453 109.38V110.058H155.648V108.626H161.58C161.58 108.123 161.478 107.678 161.273 107.29C161.069 106.898 160.781 106.589 160.41 106.363C160.044 106.137 159.613 106.024 159.119 106.024C158.582 106.024 158.113 106.157 157.713 106.421C157.316 106.681 157.01 107.022 156.792 107.443C156.579 107.861 156.473 108.315 156.473 108.805V109.924C156.473 110.58 156.588 111.138 156.818 111.598C157.052 112.059 157.378 112.41 157.796 112.653C158.213 112.892 158.701 113.011 159.26 113.011C159.622 113.011 159.952 112.96 160.25 112.858C160.549 112.751 160.807 112.593 161.024 112.384C161.241 112.176 161.407 111.918 161.522 111.611L163.331 111.937C163.186 112.47 162.927 112.936 162.552 113.337C162.181 113.733 161.714 114.042 161.152 114.264C160.593 114.481 159.956 114.59 159.24 114.59ZM172.931 106.97L171.198 107.277C171.126 107.056 171.011 106.845 170.853 106.644C170.7 106.444 170.491 106.28 170.227 106.152C169.963 106.024 169.632 105.96 169.236 105.96C168.695 105.96 168.243 106.082 167.881 106.325C167.519 106.563 167.338 106.872 167.338 107.252C167.338 107.58 167.459 107.844 167.702 108.044C167.945 108.245 168.337 108.409 168.878 108.536L170.438 108.894C171.341 109.103 172.014 109.425 172.458 109.86C172.901 110.294 173.122 110.859 173.122 111.554C173.122 112.142 172.952 112.666 172.611 113.126C172.274 113.582 171.803 113.94 171.198 114.2C170.598 114.46 169.901 114.59 169.108 114.59C168.009 114.59 167.112 114.355 166.417 113.887C165.723 113.414 165.296 112.742 165.139 111.873L166.986 111.592C167.101 112.073 167.338 112.438 167.696 112.685C168.053 112.928 168.52 113.049 169.095 113.049C169.722 113.049 170.223 112.919 170.598 112.659C170.973 112.395 171.16 112.073 171.16 111.694C171.16 111.387 171.045 111.13 170.815 110.921C170.589 110.712 170.242 110.554 169.773 110.448L168.111 110.083C167.195 109.875 166.517 109.542 166.078 109.086C165.644 108.63 165.426 108.053 165.426 107.354C165.426 106.774 165.588 106.267 165.912 105.833C166.236 105.398 166.683 105.059 167.254 104.816C167.826 104.569 168.48 104.446 169.217 104.446C170.278 104.446 171.113 104.676 171.723 105.136C172.332 105.592 172.735 106.203 172.931 106.97ZM176.483 114.513C176.134 114.513 175.833 114.389 175.582 114.142C175.33 113.891 175.205 113.588 175.205 113.235C175.205 112.885 175.33 112.587 175.582 112.34C175.833 112.088 176.134 111.963 176.483 111.963C176.832 111.963 177.133 112.088 177.384 112.34C177.636 112.587 177.761 112.885 177.761 113.235C177.761 113.469 177.702 113.684 177.582 113.88C177.467 114.072 177.314 114.225 177.122 114.34C176.93 114.456 176.717 114.513 176.483 114.513ZM176.483 107.367C176.134 107.367 175.833 107.241 175.582 106.99C175.33 106.738 175.205 106.438 175.205 106.088C175.205 105.739 175.33 105.441 175.582 105.193C175.833 104.942 176.134 104.816 176.483 104.816C176.832 104.816 177.133 104.942 177.384 105.193C177.636 105.441 177.761 105.739 177.761 106.088C177.761 106.323 177.702 106.538 177.582 106.734C177.467 106.926 177.314 107.079 177.122 107.194C176.93 107.309 176.717 107.367 176.483 107.367Z" fill="#767676"/>
<path d="M308.103 101.477V112.386H306.782V102.862H306.719L304.055 104.631V103.288L306.782 101.477H308.103ZM314.65 112.535C314.025 112.535 313.462 112.411 312.961 112.163C312.461 111.914 312.059 111.573 311.758 111.14C311.456 110.707 311.291 110.213 311.262 109.659H312.541C312.59 110.153 312.814 110.561 313.212 110.884C313.613 111.204 314.092 111.364 314.65 111.364C315.097 111.364 315.495 111.259 315.843 111.049C316.195 110.84 316.47 110.552 316.669 110.186C316.871 109.817 316.972 109.4 316.972 108.935C316.972 108.459 316.868 108.034 316.658 107.661C316.452 107.285 316.168 106.989 315.806 106.772C315.444 106.555 315.03 106.445 314.565 106.442C314.231 106.438 313.888 106.49 313.537 106.596C313.185 106.699 312.896 106.832 312.668 106.996L311.433 106.846L312.093 101.477H317.761V102.649H313.201L312.818 105.866H312.882C313.105 105.689 313.386 105.541 313.723 105.424C314.06 105.307 314.412 105.248 314.778 105.248C315.445 105.248 316.04 105.408 316.562 105.728C317.088 106.044 317.5 106.477 317.798 107.028C318.1 107.578 318.251 108.207 318.251 108.913C318.251 109.609 318.095 110.231 317.782 110.778C317.473 111.321 317.047 111.751 316.504 112.067C315.96 112.379 315.342 112.535 314.65 112.535ZM324.053 112.535C323.35 112.535 322.723 112.415 322.173 112.173C321.626 111.932 321.191 111.596 320.868 111.166C320.548 110.733 320.374 110.231 320.346 109.659H321.688C321.716 110.011 321.837 110.314 322.05 110.57C322.263 110.822 322.542 111.017 322.886 111.156C323.231 111.294 323.613 111.364 324.032 111.364C324.5 111.364 324.916 111.282 325.278 111.118C325.64 110.955 325.924 110.728 326.13 110.437C326.336 110.145 326.439 109.808 326.439 109.425C326.439 109.023 326.34 108.67 326.141 108.365C325.942 108.056 325.651 107.814 325.267 107.64C324.884 107.466 324.415 107.379 323.861 107.379H322.988V106.207H323.861C324.294 106.207 324.674 106.129 325.001 105.973C325.331 105.817 325.589 105.596 325.773 105.312C325.962 105.028 326.056 104.694 326.056 104.311C326.056 103.942 325.974 103.62 325.811 103.347C325.647 103.073 325.417 102.86 325.118 102.708C324.824 102.555 324.476 102.479 324.074 102.479C323.698 102.479 323.343 102.548 323.009 102.686C322.679 102.821 322.409 103.018 322.199 103.278C321.99 103.533 321.876 103.842 321.858 104.204H320.58C320.601 103.633 320.773 103.132 321.097 102.702C321.42 102.269 321.842 101.932 322.364 101.69C322.89 101.449 323.467 101.328 324.096 101.328C324.77 101.328 325.349 101.465 325.832 101.738C326.315 102.008 326.686 102.365 326.945 102.809C327.205 103.253 327.334 103.732 327.334 104.247C327.334 104.861 327.173 105.385 326.849 105.818C326.53 106.252 326.095 106.552 325.544 106.719V106.804C326.233 106.917 326.771 107.21 327.158 107.683C327.545 108.152 327.739 108.732 327.739 109.425C327.739 110.018 327.577 110.55 327.254 111.023C326.935 111.491 326.498 111.861 325.944 112.131C325.39 112.4 324.76 112.535 324.053 112.535ZM333.54 112.535C333.092 112.528 332.645 112.443 332.197 112.28C331.75 112.116 331.342 111.841 330.972 111.454C330.603 111.063 330.306 110.536 330.083 109.872C329.859 109.204 329.747 108.366 329.747 107.358C329.747 106.392 329.838 105.536 330.019 104.79C330.2 104.041 330.463 103.411 330.807 102.899C331.152 102.384 331.567 101.994 332.054 101.727C332.544 101.461 333.096 101.328 333.71 101.328C334.321 101.328 334.864 101.451 335.34 101.696C335.82 101.937 336.21 102.274 336.512 102.708C336.814 103.141 337.009 103.64 337.098 104.204H335.798C335.678 103.714 335.443 103.308 335.095 102.985C334.747 102.661 334.286 102.5 333.71 102.5C332.865 102.5 332.199 102.867 331.713 103.602C331.23 104.338 330.987 105.369 330.983 106.697H331.068C331.267 106.395 331.503 106.138 331.777 105.925C332.054 105.708 332.359 105.541 332.693 105.424C333.027 105.307 333.38 105.248 333.753 105.248C334.378 105.248 334.95 105.405 335.468 105.717C335.987 106.026 336.402 106.454 336.715 107.001C337.027 107.544 337.183 108.167 337.183 108.871C337.183 109.545 337.032 110.163 336.73 110.724C336.429 111.282 336.004 111.726 335.457 112.056C334.914 112.383 334.275 112.542 333.54 112.535ZM333.54 111.364C333.987 111.364 334.389 111.252 334.744 111.028C335.102 110.804 335.385 110.504 335.591 110.128C335.8 109.751 335.905 109.332 335.905 108.871C335.905 108.42 335.804 108.009 335.601 107.64C335.402 107.267 335.127 106.971 334.776 106.751C334.428 106.53 334.03 106.42 333.582 106.42C333.245 106.42 332.931 106.488 332.64 106.623C332.348 106.754 332.093 106.935 331.873 107.166C331.656 107.397 331.485 107.661 331.361 107.96C331.237 108.254 331.175 108.565 331.175 108.892C331.175 109.325 331.276 109.73 331.478 110.106C331.684 110.483 331.965 110.786 332.32 111.017C332.679 111.248 333.085 111.364 333.54 111.364ZM342.751 101.328C343.198 101.332 343.646 101.417 344.093 101.584C344.541 101.751 344.949 102.028 345.318 102.415C345.688 102.798 345.984 103.322 346.208 103.986C346.432 104.65 346.544 105.483 346.544 106.484C346.544 107.454 346.451 108.315 346.267 109.068C346.086 109.817 345.823 110.449 345.478 110.964C345.137 111.479 344.722 111.87 344.232 112.136C343.745 112.402 343.195 112.535 342.581 112.535C341.97 112.535 341.425 112.415 340.945 112.173C340.469 111.928 340.079 111.589 339.773 111.156C339.472 110.719 339.278 110.213 339.193 109.638H340.492C340.61 110.138 340.842 110.552 341.19 110.879C341.542 111.202 342.005 111.364 342.581 111.364C343.422 111.364 344.086 110.996 344.573 110.261C345.063 109.526 345.308 108.487 345.308 107.145H345.223C345.024 107.443 344.788 107.701 344.514 107.917C344.241 108.134 343.937 108.301 343.603 108.418C343.269 108.535 342.914 108.594 342.538 108.594C341.913 108.594 341.339 108.439 340.817 108.13C340.299 107.818 339.883 107.39 339.571 106.846C339.262 106.3 339.108 105.675 339.108 104.971C339.108 104.304 339.257 103.693 339.555 103.139C339.857 102.582 340.279 102.138 340.823 101.807C341.37 101.477 342.012 101.317 342.751 101.328ZM342.751 102.5C342.304 102.5 341.901 102.612 341.542 102.835C341.187 103.056 340.904 103.354 340.695 103.73C340.489 104.103 340.386 104.517 340.386 104.971C340.386 105.426 340.485 105.84 340.684 106.213C340.887 106.582 341.162 106.877 341.51 107.097C341.861 107.313 342.261 107.422 342.708 107.422C343.046 107.422 343.36 107.356 343.651 107.225C343.942 107.09 344.196 106.907 344.413 106.676C344.633 106.442 344.805 106.177 344.93 105.882C345.054 105.584 345.116 105.273 345.116 104.95C345.116 104.524 345.013 104.125 344.807 103.752C344.605 103.379 344.324 103.077 343.965 102.846C343.61 102.615 343.206 102.5 342.751 102.5Z" fill="#767676"/>
<path d="M37.985 145.042C37.985 146.44 37.7293 147.641 37.2179 148.647C36.7065 149.648 36.0055 150.42 35.1149 150.961C34.2286 151.498 33.2207 151.766 32.0915 151.766C30.958 151.766 29.9459 151.498 29.0553 150.961C28.1689 150.42 27.47 149.646 26.9587 148.641C26.4473 147.635 26.1916 146.435 26.1916 145.042C26.1916 143.644 26.4473 142.445 26.9587 141.443C27.47 140.438 28.1689 139.666 29.0553 139.129C29.9459 138.588 30.958 138.318 32.0915 138.318C33.2207 138.318 34.2286 138.588 35.1149 139.129C36.0055 139.666 36.7065 140.438 37.2179 141.443C37.7293 142.445 37.985 143.644 37.985 145.042ZM36.029 145.042C36.029 143.977 35.8564 143.08 35.5112 142.351C35.1703 141.618 34.7016 141.064 34.105 140.689C33.5127 140.31 32.8415 140.12 32.0915 140.12C31.3372 140.12 30.6639 140.31 30.0716 140.689C29.4793 141.064 29.0105 141.618 28.6653 142.351C28.3244 143.08 28.154 143.977 28.154 145.042C28.154 146.107 28.3244 147.006 28.6653 147.739C29.0105 148.468 29.4793 149.022 30.0716 149.401C30.6639 149.776 31.3372 149.964 32.0915 149.964C32.8415 149.964 33.5127 149.776 34.105 149.401C34.7016 149.022 35.1703 148.468 35.5112 147.739C35.8564 147.006 36.029 146.107 36.029 145.042ZM44.9667 141.769V143.303H39.4184V141.769H44.9667ZM40.9397 151.587V140.631C40.9397 140.018 41.0739 139.509 41.3424 139.104C41.6108 138.695 41.9667 138.39 42.4098 138.19C42.853 137.985 43.3346 137.883 43.8544 137.883C44.238 137.883 44.5661 137.915 44.8388 137.979C45.1116 138.038 45.314 138.094 45.4461 138.145L44.9986 139.692C44.9091 139.666 44.7941 139.636 44.6535 139.602C44.5128 139.564 44.3424 139.545 44.1421 139.545C43.6776 139.545 43.3452 139.66 43.1449 139.89C42.9489 140.12 42.8509 140.452 42.8509 140.887V151.587H40.9397ZM51.6112 141.769V143.303H46.0629V141.769H51.6112ZM47.5842 151.587V140.631C47.5842 140.018 47.7184 139.509 47.9869 139.104C48.2554 138.695 48.6112 138.39 49.0544 138.19C49.4976 137.985 49.9791 137.883 50.499 137.883C50.8825 137.883 51.2106 137.915 51.4834 137.979C51.7561 138.038 51.9585 138.094 52.0906 138.145L51.6432 139.692C51.5537 139.666 51.4386 139.636 51.298 139.602C51.1574 139.564 50.9869 139.545 50.7866 139.545C50.3221 139.545 49.9897 139.66 49.7895 139.89C49.5934 140.12 49.4954 140.452 49.4954 140.887V151.587H47.5842ZM53.5831 151.587V141.769H55.4944V151.587H53.5831ZM54.5483 140.254C54.216 140.254 53.9304 140.144 53.6918 139.922C53.4574 139.696 53.3402 139.428 53.3402 139.117C53.3402 138.801 53.4574 138.533 53.6918 138.311C53.9304 138.085 54.216 137.972 54.5483 137.972C54.8807 137.972 55.1641 138.085 55.3985 138.311C55.6371 138.533 55.7564 138.801 55.7564 139.117C55.7564 139.428 55.6371 139.696 55.3985 139.922C55.1641 140.144 54.8807 140.254 54.5483 140.254ZM62.2012 151.786C61.2509 151.786 60.4328 151.57 59.7467 151.14C59.0649 150.705 58.5407 150.107 58.1742 149.344C57.8078 148.581 57.6245 147.707 57.6245 146.723C57.6245 145.726 57.812 144.846 58.187 144.083C58.562 143.316 59.0904 142.717 59.7722 142.287C60.4541 141.857 61.2573 141.641 62.182 141.641C62.9278 141.641 63.5926 141.78 64.1764 142.057C64.7602 142.33 65.231 142.713 65.589 143.207C65.9512 143.702 66.1664 144.279 66.2346 144.94H64.3745C64.2722 144.479 64.0379 144.083 63.6714 143.751C63.3092 143.418 62.8234 143.252 62.214 143.252C61.6813 143.252 61.2147 143.393 60.8141 143.674C60.4178 143.951 60.1089 144.347 59.8873 144.863C59.6657 145.374 59.5549 145.979 59.5549 146.678C59.5549 147.394 59.6636 148.012 59.8809 148.532C60.0982 149.052 60.4051 149.455 60.8014 149.74C61.2019 150.026 61.6728 150.168 62.214 150.168C62.5762 150.168 62.9043 150.102 63.1984 149.97C63.4967 149.834 63.746 149.64 63.9462 149.389C64.1508 149.137 64.2935 148.835 64.3745 148.481H66.2346C66.1664 149.116 65.9597 149.683 65.6146 150.181C65.2694 150.68 64.807 151.072 64.2275 151.357C63.6522 151.643 62.9768 151.786 62.2012 151.786ZM72.51 151.786C71.5427 151.786 70.7096 151.579 70.0107 151.166C69.3161 150.748 68.7792 150.162 68.3999 149.408C68.0249 148.649 67.8374 147.761 67.8374 146.742C67.8374 145.737 68.0249 144.85 68.3999 144.083C68.7792 143.316 69.3076 142.717 69.9851 142.287C70.6669 141.857 71.4638 141.641 72.3758 141.641C72.9297 141.641 73.4667 141.733 73.9866 141.916C74.5064 142.099 74.9731 142.387 75.3864 142.779C75.7998 143.171 76.1258 143.68 76.3644 144.307C76.603 144.929 76.7223 145.685 76.7223 146.576V147.254H68.9177V145.822H74.8495C74.8495 145.319 74.7472 144.874 74.5427 144.486C74.3381 144.094 74.0505 143.785 73.6797 143.559C73.3133 143.333 72.8829 143.22 72.3885 143.22C71.8516 143.22 71.3829 143.352 70.9823 143.617C70.586 143.876 70.2792 144.217 70.0618 144.639C69.8488 145.057 69.7422 145.511 69.7422 146.001V147.119C69.7422 147.776 69.8573 148.334 70.0874 148.794C70.3218 149.254 70.6478 149.606 71.0654 149.849C71.483 150.087 71.9709 150.207 72.5292 150.207C72.8914 150.207 73.2216 150.156 73.5199 150.053C73.8182 149.947 74.076 149.789 74.2934 149.58C74.5107 149.371 74.6769 149.114 74.7919 148.807L76.6009 149.133C76.456 149.666 76.1961 150.132 75.8211 150.533C75.4503 150.929 74.9837 151.238 74.4212 151.46C73.863 151.677 73.2259 151.786 72.51 151.786ZM80.1021 151.709C79.7527 151.709 79.4523 151.585 79.2009 151.338C78.9494 151.087 78.8237 150.784 78.8237 150.43C78.8237 150.081 78.9494 149.783 79.2009 149.536C79.4523 149.284 79.7527 149.158 80.1021 149.158C80.4516 149.158 80.752 149.284 81.0034 149.536C81.2548 149.783 81.3805 150.081 81.3805 150.43C81.3805 150.665 81.3209 150.88 81.2016 151.076C81.0865 151.268 80.9331 151.421 80.7413 151.536C80.5496 151.651 80.3365 151.709 80.1021 151.709ZM80.1021 144.563C79.7527 144.563 79.4523 144.437 79.2009 144.185C78.9494 143.934 78.8237 143.634 78.8237 143.284C78.8237 142.935 78.9494 142.636 79.2009 142.389C79.4523 142.138 79.7527 142.012 80.1021 142.012C80.4516 142.012 80.752 142.138 81.0034 142.389C81.2548 142.636 81.3805 142.935 81.3805 143.284C81.3805 143.519 81.3209 143.734 81.2016 143.93C81.0865 144.121 80.9331 144.275 80.7413 144.39C80.5496 144.505 80.3365 144.563 80.1021 144.563Z" fill="#767676"/>
<path d="M191.906 149.842V142.81H193.099V149.842H191.906ZM188.987 146.923V145.729H196.018V146.923H188.987ZM201.985 150.737C201.36 150.737 200.797 150.612 200.297 150.364C199.796 150.115 199.395 149.774 199.093 149.341C198.791 148.908 198.626 148.414 198.597 147.86H199.876C199.926 148.354 200.149 148.762 200.547 149.085C200.948 149.405 201.428 149.565 201.985 149.565C202.433 149.565 202.83 149.46 203.178 149.25C203.53 149.041 203.805 148.753 204.004 148.387C204.206 148.018 204.308 147.601 204.308 147.136C204.308 146.66 204.203 146.235 203.993 145.863C203.787 145.486 203.503 145.19 203.141 144.973C202.779 144.756 202.365 144.646 201.9 144.643C201.566 144.639 201.224 144.691 200.872 144.797C200.52 144.9 200.231 145.033 200.004 145.197L198.768 145.048L199.428 139.678H205.096V140.85H200.536L200.153 144.068H200.217C200.441 143.89 200.721 143.743 201.058 143.625C201.396 143.508 201.747 143.45 202.113 143.45C202.781 143.45 203.376 143.609 203.898 143.929C204.423 144.245 204.835 144.678 205.133 145.229C205.435 145.779 205.586 146.408 205.586 147.114C205.586 147.81 205.43 148.432 205.117 148.979C204.808 149.522 204.382 149.952 203.839 150.268C203.296 150.58 202.678 150.737 201.985 150.737ZM211.196 150.737C210.465 150.737 209.819 150.607 209.258 150.348C208.7 150.085 208.265 149.724 207.952 149.266C207.64 148.805 207.486 148.279 207.489 147.69C207.486 147.228 207.576 146.802 207.761 146.411C207.945 146.017 208.198 145.689 208.517 145.426C208.84 145.159 209.201 144.991 209.598 144.92V144.856C209.076 144.721 208.661 144.428 208.352 143.977C208.043 143.522 207.89 143.006 207.894 142.427C207.89 141.873 208.031 141.378 208.315 140.941C208.599 140.504 208.989 140.159 209.487 139.907C209.987 139.655 210.557 139.529 211.196 139.529C211.829 139.529 212.393 139.655 212.89 139.907C213.388 140.159 213.778 140.504 214.062 140.941C214.35 141.378 214.495 141.873 214.499 142.427C214.495 143.006 214.337 143.522 214.025 143.977C213.716 144.428 213.306 144.721 212.794 144.856V144.92C213.189 144.991 213.544 145.159 213.86 145.426C214.176 145.689 214.428 146.017 214.616 146.411C214.804 146.802 214.9 147.228 214.904 147.69C214.9 148.279 214.74 148.805 214.424 149.266C214.112 149.724 213.677 150.085 213.119 150.348C212.565 150.607 211.924 150.737 211.196 150.737ZM211.196 149.565C211.69 149.565 212.116 149.485 212.475 149.325C212.834 149.165 213.111 148.94 213.306 148.648C213.501 148.357 213.601 148.016 213.604 147.626C213.601 147.214 213.494 146.85 213.285 146.534C213.075 146.218 212.789 145.969 212.427 145.788C212.068 145.607 211.658 145.516 211.196 145.516C210.731 145.516 210.316 145.607 209.95 145.788C209.588 145.969 209.302 146.218 209.092 146.534C208.886 146.85 208.785 147.214 208.789 147.626C208.785 148.016 208.879 148.357 209.071 148.648C209.266 148.94 209.545 149.165 209.907 149.325C210.27 149.485 210.699 149.565 211.196 149.565ZM211.196 144.387C211.587 144.387 211.933 144.309 212.235 144.153C212.541 143.996 212.78 143.778 212.954 143.498C213.128 143.217 213.217 142.889 213.221 142.512C213.217 142.143 213.13 141.821 212.96 141.548C212.789 141.271 212.553 141.058 212.251 140.909C211.949 140.756 211.598 140.68 211.196 140.68C210.788 140.68 210.431 140.756 210.126 140.909C209.82 141.058 209.584 141.271 209.417 141.548C209.25 141.821 209.169 142.143 209.172 142.512C209.169 142.889 209.252 143.217 209.423 143.498C209.597 143.778 209.836 143.996 210.142 144.153C210.447 144.309 210.799 144.387 211.196 144.387ZM221.633 145.985C221.633 144.643 221.807 143.409 222.155 142.283C222.506 141.154 223.007 140.115 223.657 139.167H224.765C224.509 139.519 224.27 139.952 224.046 140.467C223.826 140.978 223.632 141.541 223.465 142.155C223.298 142.766 223.167 143.398 223.071 144.052C222.979 144.705 222.933 145.349 222.933 145.985C222.933 146.83 223.014 147.688 223.178 148.558C223.341 149.428 223.561 150.236 223.838 150.982C224.115 151.727 224.424 152.335 224.765 152.803H223.657C223.007 151.855 222.506 150.818 222.155 149.693C221.807 148.563 221.633 147.327 221.633 145.985ZM230.157 150.737C229.354 150.737 228.671 150.518 228.106 150.081C227.541 149.641 227.11 149.004 226.812 148.169C226.513 147.331 226.364 146.319 226.364 145.133C226.364 143.954 226.513 142.947 226.812 142.113C227.114 141.275 227.547 140.635 228.111 140.195C228.68 139.751 229.361 139.529 230.157 139.529C230.952 139.529 231.632 139.751 232.197 140.195C232.765 140.635 233.198 141.275 233.497 142.113C233.799 142.947 233.949 143.954 233.949 145.133C233.949 146.319 233.8 147.331 233.502 148.169C233.204 149.004 232.772 149.641 232.208 150.081C231.643 150.518 230.959 150.737 230.157 150.737ZM230.157 149.565C230.952 149.565 231.57 149.181 232.011 148.414C232.451 147.647 232.671 146.553 232.671 145.133C232.671 144.188 232.57 143.384 232.367 142.72C232.169 142.056 231.881 141.55 231.505 141.202C231.132 140.854 230.682 140.68 230.157 140.68C229.369 140.68 228.752 141.069 228.308 141.846C227.865 142.62 227.643 143.716 227.643 145.133C227.643 146.077 227.742 146.88 227.941 147.541C228.14 148.201 228.426 148.704 228.799 149.048C229.175 149.392 229.628 149.565 230.157 149.565ZM235.974 150.587V149.629L239.574 145.687C239.997 145.225 240.345 144.824 240.619 144.483C240.892 144.139 241.094 143.815 241.226 143.514C241.361 143.208 241.428 142.889 241.428 142.555C241.428 142.171 241.336 141.839 241.151 141.559C240.97 141.278 240.721 141.061 240.405 140.909C240.089 140.756 239.734 140.68 239.34 140.68C238.921 140.68 238.555 140.767 238.243 140.941C237.934 141.111 237.694 141.351 237.524 141.66C237.357 141.969 237.273 142.331 237.273 142.746H236.016C236.016 142.107 236.164 141.546 236.458 141.063C236.753 140.58 237.154 140.204 237.662 139.934C238.174 139.664 238.747 139.529 239.383 139.529C240.022 139.529 240.588 139.664 241.082 139.934C241.576 140.204 241.963 140.568 242.243 141.026C242.524 141.484 242.664 141.994 242.664 142.555C242.664 142.956 242.591 143.348 242.446 143.732C242.304 144.112 242.055 144.536 241.7 145.005C241.348 145.47 240.86 146.038 240.235 146.71L237.785 149.33V149.416H242.856V150.587H235.974ZM248.891 139.678V150.587H247.57V141.063H247.506L244.843 142.832V141.489L247.57 139.678H248.891ZM254.734 145.985C254.734 147.327 254.558 148.563 254.207 149.693C253.859 150.818 253.36 151.855 252.71 152.803H251.602C251.858 152.452 252.096 152.019 252.316 151.504C252.54 150.992 252.735 150.431 252.902 149.82C253.069 149.206 253.198 148.572 253.291 147.919C253.387 147.262 253.435 146.617 253.435 145.985C253.435 145.14 253.353 144.282 253.19 143.412C253.026 142.542 252.806 141.734 252.529 140.989C252.252 140.243 251.943 139.636 251.602 139.167H252.71C253.36 140.115 253.859 141.154 254.207 142.283C254.558 143.409 254.734 144.643 254.734 145.985ZM261.149 150.737C260.446 150.737 259.819 150.616 259.269 150.374C258.722 150.133 258.287 149.797 257.964 149.368C257.644 148.934 257.47 148.432 257.442 147.86H258.784C258.812 148.212 258.933 148.515 259.146 148.771C259.359 149.023 259.638 149.218 259.982 149.357C260.327 149.495 260.709 149.565 261.128 149.565C261.596 149.565 262.012 149.483 262.374 149.32C262.736 149.156 263.02 148.929 263.226 148.638C263.432 148.347 263.535 148.009 263.535 147.626C263.535 147.224 263.436 146.871 263.237 146.566C263.038 146.257 262.747 146.015 262.363 145.841C261.98 145.667 261.511 145.58 260.957 145.58H260.084V144.408H260.957C261.39 144.408 261.77 144.33 262.097 144.174C262.427 144.018 262.685 143.798 262.869 143.514C263.058 143.229 263.152 142.896 263.152 142.512C263.152 142.143 263.07 141.821 262.907 141.548C262.743 141.275 262.513 141.061 262.214 140.909C261.92 140.756 261.572 140.68 261.17 140.68C260.794 140.68 260.439 140.749 260.105 140.887C259.775 141.022 259.505 141.22 259.295 141.479C259.086 141.734 258.972 142.043 258.954 142.406H257.676C257.697 141.834 257.869 141.333 258.193 140.903C258.516 140.47 258.938 140.133 259.46 139.891C259.986 139.65 260.563 139.529 261.192 139.529C261.866 139.529 262.445 139.666 262.928 139.939C263.411 140.209 263.782 140.566 264.041 141.01C264.301 141.454 264.43 141.933 264.43 142.448C264.43 143.063 264.269 143.586 263.945 144.02C263.626 144.453 263.191 144.753 262.64 144.92V145.005C263.329 145.119 263.867 145.412 264.254 145.884C264.642 146.353 264.835 146.933 264.835 147.626C264.835 148.219 264.673 148.751 264.35 149.224C264.031 149.693 263.594 150.062 263.04 150.332C262.486 150.602 261.856 150.737 261.149 150.737ZM270.423 150.737C269.798 150.737 269.235 150.612 268.734 150.364C268.233 150.115 267.832 149.774 267.53 149.341C267.229 148.908 267.063 148.414 267.035 147.86H268.313C268.363 148.354 268.587 148.762 268.985 149.085C269.386 149.405 269.865 149.565 270.423 149.565C270.87 149.565 271.268 149.46 271.616 149.25C271.967 149.041 272.243 148.753 272.442 148.387C272.644 148.018 272.745 147.601 272.745 147.136C272.745 146.66 272.64 146.235 272.431 145.863C272.225 145.486 271.941 145.19 271.579 144.973C271.216 144.756 270.803 144.646 270.338 144.643C270.004 144.639 269.661 144.691 269.309 144.797C268.958 144.9 268.668 145.033 268.441 145.197L267.205 145.048L267.866 139.678H273.534V140.85H268.974L268.59 144.068H268.654C268.878 143.89 269.159 143.743 269.496 143.625C269.833 143.508 270.185 143.45 270.551 143.45C271.218 143.45 271.813 143.609 272.335 143.929C272.861 144.245 273.273 144.678 273.571 145.229C273.873 145.779 274.024 146.408 274.024 147.114C274.024 147.81 273.867 148.432 273.555 148.979C273.246 149.522 272.82 149.952 272.276 150.268C271.733 150.58 271.115 150.737 270.423 150.737ZM279.762 150.737C279.314 150.729 278.867 150.644 278.419 150.481C277.972 150.318 277.564 150.042 277.194 149.655C276.825 149.265 276.528 148.737 276.305 148.073C276.081 147.406 275.969 146.568 275.969 145.559C275.969 144.593 276.06 143.737 276.241 142.992C276.422 142.242 276.685 141.612 277.029 141.101C277.374 140.586 277.789 140.195 278.276 139.929C278.766 139.662 279.318 139.529 279.932 139.529C280.543 139.529 281.086 139.652 281.562 139.897C282.042 140.138 282.432 140.476 282.734 140.909C283.036 141.342 283.231 141.841 283.32 142.406H282.02C281.9 141.916 281.665 141.509 281.317 141.186C280.969 140.863 280.508 140.701 279.932 140.701C279.087 140.701 278.421 141.069 277.935 141.804C277.452 142.539 277.209 143.57 277.205 144.898H277.29C277.489 144.597 277.725 144.339 277.999 144.126C278.276 143.909 278.581 143.743 278.915 143.625C279.249 143.508 279.602 143.45 279.975 143.45C280.6 143.45 281.172 143.606 281.69 143.918C282.209 144.227 282.624 144.655 282.937 145.202C283.249 145.745 283.405 146.369 283.405 147.072C283.405 147.746 283.254 148.364 282.952 148.925C282.651 149.483 282.226 149.927 281.679 150.257C281.136 150.584 280.497 150.744 279.762 150.737ZM279.762 149.565C280.209 149.565 280.611 149.453 280.966 149.229C281.324 149.005 281.607 148.705 281.813 148.329C282.022 147.952 282.127 147.533 282.127 147.072C282.127 146.621 282.026 146.211 281.823 145.841C281.624 145.468 281.349 145.172 280.998 144.952C280.65 144.732 280.252 144.621 279.804 144.621C279.467 144.621 279.153 144.689 278.862 144.824C278.57 144.955 278.315 145.136 278.095 145.367C277.878 145.598 277.707 145.863 277.583 146.161C277.459 146.456 277.397 146.766 277.397 147.093C277.397 147.526 277.498 147.931 277.7 148.308C277.906 148.684 278.187 148.988 278.542 149.218C278.901 149.449 279.307 149.565 279.762 149.565ZM293.128 150.737C292.503 150.737 291.94 150.612 291.439 150.364C290.939 150.115 290.537 149.774 290.235 149.341C289.934 148.908 289.768 148.414 289.74 147.86H291.018C291.068 148.354 291.292 148.762 291.69 149.085C292.091 149.405 292.57 149.565 293.128 149.565C293.575 149.565 293.973 149.46 294.321 149.25C294.673 149.041 294.948 148.753 295.147 148.387C295.349 148.018 295.45 147.601 295.45 147.136C295.45 146.66 295.346 146.235 295.136 145.863C294.93 145.486 294.646 145.19 294.284 144.973C293.922 144.756 293.508 144.646 293.043 144.643C292.709 144.639 292.366 144.691 292.015 144.797C291.663 144.9 291.374 145.033 291.146 145.197L289.911 145.048L290.571 139.678H296.239V140.85H291.679L291.295 144.068H291.359C291.583 143.89 291.864 143.743 292.201 143.625C292.538 143.508 292.89 143.45 293.256 143.45C293.923 143.45 294.518 143.609 295.04 143.929C295.566 144.245 295.978 144.678 296.276 145.229C296.578 145.779 296.729 146.408 296.729 147.114C296.729 147.81 296.572 148.432 296.26 148.979C295.951 149.522 295.525 149.952 294.982 150.268C294.438 150.58 293.82 150.737 293.128 150.737ZM302.339 150.737C301.607 150.737 300.961 150.607 300.4 150.348C299.843 150.085 299.408 149.724 299.095 149.266C298.783 148.805 298.628 148.279 298.632 147.69C298.628 147.228 298.719 146.802 298.903 146.411C299.088 146.017 299.34 145.689 299.66 145.426C299.983 145.159 300.343 144.991 300.741 144.92V144.856C300.219 144.721 299.804 144.428 299.495 143.977C299.186 143.522 299.033 143.006 299.036 142.427C299.033 141.873 299.173 141.378 299.457 140.941C299.741 140.504 300.132 140.159 300.629 139.907C301.13 139.655 301.7 139.529 302.339 139.529C302.971 139.529 303.536 139.655 304.033 139.907C304.53 140.159 304.921 140.504 305.205 140.941C305.492 141.378 305.638 141.873 305.642 142.427C305.638 143.006 305.48 143.522 305.168 143.977C304.859 144.428 304.448 144.721 303.937 144.856V144.92C304.331 144.991 304.686 145.159 305.002 145.426C305.318 145.689 305.571 146.017 305.759 146.411C305.947 146.802 306.043 147.228 306.046 147.69C306.043 148.279 305.883 148.805 305.567 149.266C305.255 149.724 304.82 150.085 304.262 150.348C303.708 150.607 303.067 150.737 302.339 150.737ZM302.339 149.565C302.833 149.565 303.259 149.485 303.617 149.325C303.976 149.165 304.253 148.94 304.448 148.648C304.644 148.357 304.743 148.016 304.747 147.626C304.743 147.214 304.637 146.85 304.427 146.534C304.218 146.218 303.932 145.969 303.57 145.788C303.211 145.607 302.801 145.516 302.339 145.516C301.874 145.516 301.458 145.607 301.093 145.788C300.73 145.969 300.445 146.218 300.235 146.534C300.029 146.85 299.928 147.214 299.931 147.626C299.928 148.016 300.022 148.357 300.214 148.648C300.409 148.94 300.688 149.165 301.05 149.325C301.412 149.485 301.842 149.565 302.339 149.565ZM302.339 144.387C302.73 144.387 303.076 144.309 303.378 144.153C303.683 143.996 303.923 143.778 304.097 143.498C304.271 143.217 304.36 142.889 304.363 142.512C304.36 142.143 304.273 141.821 304.102 141.548C303.932 141.271 303.696 141.058 303.394 140.909C303.092 140.756 302.74 140.68 302.339 140.68C301.931 140.68 301.574 140.756 301.268 140.909C300.963 141.058 300.727 141.271 300.56 141.548C300.393 141.821 300.311 142.143 300.315 142.512C300.311 142.889 300.395 143.217 300.565 143.498C300.739 143.778 300.979 143.996 301.284 144.153C301.59 144.309 301.941 144.387 302.339 144.387ZM308.429 150.587L313.308 140.935V140.85H307.683V139.678H314.672V140.914L309.814 150.587H308.429ZM320.876 150.587V149.629L324.477 145.687C324.899 145.225 325.247 144.824 325.521 144.483C325.794 144.139 325.997 143.815 326.128 143.514C326.263 143.208 326.331 142.889 326.331 142.555C326.331 142.171 326.238 141.839 326.054 141.559C325.872 141.278 325.624 141.061 325.308 140.909C324.992 140.756 324.637 140.68 324.242 140.68C323.823 140.68 323.458 140.767 323.145 140.941C322.836 141.111 322.596 141.351 322.426 141.66C322.259 141.969 322.176 142.331 322.176 142.746H320.919C320.919 142.107 321.066 141.546 321.361 141.063C321.655 140.58 322.057 140.204 322.565 139.934C323.076 139.664 323.649 139.529 324.285 139.529C324.924 139.529 325.491 139.664 325.984 139.934C326.478 140.204 326.865 140.568 327.145 141.026C327.426 141.484 327.566 141.994 327.566 142.555C327.566 142.956 327.494 143.348 327.348 143.732C327.206 144.112 326.957 144.536 326.602 145.005C326.251 145.47 325.762 146.038 325.137 146.71L322.687 149.33V149.416H327.758V150.587H320.876ZM333.644 150.737C332.941 150.737 332.314 150.616 331.764 150.374C331.217 150.133 330.782 149.797 330.459 149.368C330.139 148.934 329.965 148.432 329.937 147.86H331.279C331.307 148.212 331.428 148.515 331.641 148.771C331.854 149.023 332.133 149.218 332.478 149.357C332.822 149.495 333.204 149.565 333.623 149.565C334.092 149.565 334.507 149.483 334.869 149.32C335.231 149.156 335.516 148.929 335.721 148.638C335.927 148.347 336.03 148.009 336.03 147.626C336.03 147.224 335.931 146.871 335.732 146.566C335.533 146.257 335.242 146.015 334.859 145.841C334.475 145.667 334.006 145.58 333.452 145.58H332.579V144.408H333.452C333.886 144.408 334.266 144.33 334.592 144.174C334.922 144.018 335.18 143.798 335.365 143.514C335.553 143.229 335.647 142.896 335.647 142.512C335.647 142.143 335.565 141.821 335.402 141.548C335.239 141.275 335.008 141.061 334.709 140.909C334.415 140.756 334.067 140.68 333.665 140.68C333.289 140.68 332.934 140.749 332.6 140.887C332.27 141.022 332 141.22 331.79 141.479C331.581 141.734 331.467 142.043 331.449 142.406H330.171C330.192 141.834 330.365 141.333 330.688 140.903C331.011 140.47 331.433 140.133 331.956 139.891C332.481 139.65 333.058 139.529 333.687 139.529C334.361 139.529 334.94 139.666 335.423 139.939C335.906 140.209 336.277 140.566 336.536 141.01C336.796 141.454 336.925 141.933 336.925 142.448C336.925 143.063 336.764 143.586 336.441 144.02C336.121 144.453 335.686 144.753 335.136 144.92V145.005C335.824 145.119 336.362 145.412 336.75 145.884C337.137 146.353 337.33 146.933 337.33 147.626C337.33 148.219 337.169 148.751 336.845 149.224C336.526 149.693 336.089 150.062 335.535 150.332C334.981 150.602 334.351 150.737 333.644 150.737ZM342.918 150.737C342.293 150.737 341.73 150.612 341.229 150.364C340.729 150.115 340.327 149.774 340.025 149.341C339.724 148.908 339.558 148.414 339.53 147.86H340.808C340.858 148.354 341.082 148.762 341.48 149.085C341.881 149.405 342.36 149.565 342.918 149.565C343.365 149.565 343.763 149.46 344.111 149.25C344.463 149.041 344.738 148.753 344.937 148.387C345.139 148.018 345.24 147.601 345.24 147.136C345.24 146.66 345.136 146.235 344.926 145.863C344.72 145.486 344.436 145.19 344.074 144.973C343.712 144.756 343.298 144.646 342.833 144.643C342.499 144.639 342.156 144.691 341.805 144.797C341.453 144.9 341.164 145.033 340.936 145.197L339.701 145.048L340.361 139.678H346.029V140.85H341.469L341.085 144.068H341.149C341.373 143.89 341.654 143.743 341.991 143.625C342.328 143.508 342.68 143.45 343.046 143.45C343.713 143.45 344.308 143.609 344.83 143.929C345.356 144.245 345.768 144.678 346.066 145.229C346.368 145.779 346.519 146.408 346.519 147.114C346.519 147.81 346.362 148.432 346.05 148.979C345.741 149.522 345.315 149.952 344.772 150.268C344.228 150.58 343.61 150.737 342.918 150.737Z" fill="#767676"/>
<path d="M26.6135 190.793V177.703H31.2797C32.2982 177.703 33.1419 177.888 33.8109 178.259C34.48 178.629 34.9807 179.136 35.3131 179.78C35.6455 180.419 35.8117 181.139 35.8117 181.94C35.8117 182.746 35.6433 183.47 35.3067 184.114C34.9743 184.753 34.4715 185.26 33.7982 185.635C33.1291 186.006 32.2875 186.191 31.2733 186.191H28.0645V184.516H31.0943C31.7378 184.516 32.2598 184.406 32.6604 184.184C33.0609 183.958 33.355 183.651 33.5425 183.264C33.73 182.876 33.8237 182.435 33.8237 181.94C33.8237 181.446 33.73 181.007 33.5425 180.624C33.355 180.24 33.0588 179.94 32.654 179.722C32.2534 179.505 31.725 179.396 31.0688 179.396H28.5886V190.793H26.6135ZM42.0823 190.992C41.1149 190.992 40.2818 190.785 39.583 190.372C38.8884 189.954 38.3514 189.368 37.9722 188.614C37.5972 187.855 37.4097 186.967 37.4097 185.948C37.4097 184.943 37.5972 184.056 37.9722 183.289C38.3514 182.522 38.8798 181.923 39.5574 181.493C40.2392 181.063 41.0361 180.847 41.948 180.847C42.502 180.847 43.0389 180.939 43.5588 181.122C44.0787 181.306 44.5453 181.593 44.9587 181.985C45.372 182.377 45.698 182.886 45.9367 183.513C46.1753 184.135 46.2946 184.891 46.2946 185.782V186.46H38.4899V185.028H44.4217C44.4217 184.525 44.3195 184.08 44.1149 183.692C43.9104 183.3 43.6227 182.991 43.252 182.765C42.8855 182.539 42.4551 182.426 41.9608 182.426C41.4239 182.426 40.9551 182.558 40.5546 182.823C40.1582 183.083 39.8514 183.423 39.6341 183.845C39.421 184.263 39.3145 184.717 39.3145 185.207V186.325C39.3145 186.982 39.4296 187.54 39.6597 188C39.894 188.46 40.22 188.812 40.6377 189.055C41.0553 189.293 41.5432 189.413 42.1014 189.413C42.4636 189.413 42.7939 189.362 43.0922 189.259C43.3905 189.153 43.6483 188.995 43.8656 188.786C44.083 188.578 44.2492 188.32 44.3642 188.013L46.1732 188.339C46.0283 188.872 45.7683 189.338 45.3933 189.739C45.0226 190.135 44.556 190.444 43.9935 190.666C43.4352 190.883 42.7982 190.992 42.0823 190.992ZM48.4152 190.793V180.975H50.2625V182.535H50.3647C50.5437 182.007 50.8591 181.591 51.3108 181.288C51.7667 180.982 52.2824 180.828 52.8576 180.828C52.977 180.828 53.1176 180.833 53.2795 180.841C53.4457 180.85 53.5757 180.86 53.6694 180.873V182.701C53.5927 182.68 53.4564 182.656 53.2603 182.631C53.0643 182.601 52.8683 182.586 52.6723 182.586C52.2206 182.586 51.8179 182.682 51.4642 182.874C51.1147 183.061 50.8378 183.323 50.6332 183.66C50.4287 183.992 50.3264 184.372 50.3264 184.798V190.793H48.4152ZM62.6806 183.372L60.9484 183.679C60.8759 183.458 60.7609 183.247 60.6032 183.046C60.4498 182.846 60.241 182.682 59.9768 182.554C59.7126 182.426 59.3823 182.362 58.986 182.362C58.4448 182.362 57.9931 182.484 57.6309 182.727C57.2687 182.965 57.0876 183.274 57.0876 183.654C57.0876 183.982 57.209 184.246 57.4519 184.446C57.6948 184.646 58.0869 184.811 58.6281 184.938L60.1877 185.296C61.0911 185.505 61.7644 185.827 62.2076 186.261C62.6508 186.696 62.8724 187.261 62.8724 187.955C62.8724 188.543 62.7019 189.068 62.361 189.528C62.0244 189.984 61.5535 190.342 60.9484 190.602C60.3475 190.862 59.6508 190.992 58.8582 190.992C57.7587 190.992 56.8617 190.757 56.1671 190.288C55.4725 189.815 55.0464 189.144 54.8887 188.275L56.736 187.994C56.8511 188.475 57.0876 188.84 57.4455 189.087C57.8035 189.33 58.2701 189.451 58.8454 189.451C59.4718 189.451 59.9725 189.321 60.3475 189.061C60.7225 188.797 60.91 188.475 60.91 188.096C60.91 187.789 60.795 187.531 60.5649 187.323C60.339 187.114 59.9917 186.956 59.5229 186.85L57.861 186.485C56.9448 186.276 56.2673 185.944 55.8283 185.488C55.3937 185.032 55.1764 184.455 55.1764 183.756C55.1764 183.176 55.3383 182.669 55.6622 182.235C55.986 181.8 56.4335 181.461 57.0045 181.218C57.5755 180.971 58.2296 180.847 58.9668 180.847C60.0279 180.847 60.8631 181.078 61.4725 181.538C62.0819 181.994 62.4846 182.605 62.6806 183.372ZM69.1094 190.992C68.189 190.992 67.3857 190.781 66.6996 190.359C66.0135 189.937 65.4809 189.347 65.1016 188.588C64.7223 187.83 64.5327 186.943 64.5327 185.929C64.5327 184.911 64.7223 184.02 65.1016 183.257C65.4809 182.494 66.0135 181.902 66.6996 181.48C67.3857 181.058 68.189 180.847 69.1094 180.847C70.0299 180.847 70.8331 181.058 71.5192 181.48C72.2053 181.902 72.738 182.494 73.1172 183.257C73.4965 184.02 73.6861 184.911 73.6861 185.929C73.6861 186.943 73.4965 187.83 73.1172 188.588C72.738 189.347 72.2053 189.937 71.5192 190.359C70.8331 190.781 70.0299 190.992 69.1094 190.992ZM69.1158 189.387C69.7124 189.387 70.2067 189.23 70.5988 188.914C70.9908 188.599 71.2806 188.179 71.4681 187.655C71.6598 187.131 71.7557 186.553 71.7557 185.923C71.7557 185.296 71.6598 184.721 71.4681 184.197C71.2806 183.668 70.9908 183.244 70.5988 182.925C70.2067 182.605 69.7124 182.445 69.1158 182.445C68.515 182.445 68.0164 182.605 67.6201 182.925C67.228 183.244 66.9361 183.668 66.7444 184.197C66.5569 184.721 66.4631 185.296 66.4631 185.923C66.4631 186.553 66.5569 187.131 66.7444 187.655C66.9361 188.179 67.228 188.599 67.6201 188.914C68.0164 189.23 68.515 189.387 69.1158 189.387ZM77.7307 184.964V190.793H75.8195V180.975H77.654V182.573H77.7754C78.0013 182.053 78.355 181.636 78.8365 181.32C79.3223 181.005 79.9338 180.847 80.671 180.847C81.3401 180.847 81.926 180.988 82.4288 181.269C82.9317 181.546 83.3216 181.96 83.5986 182.509C83.8756 183.059 84.0141 183.739 84.0141 184.548V190.793H82.1029V184.779C82.1029 184.067 81.9175 183.511 81.5467 183.11C81.176 182.705 80.6668 182.503 80.019 182.503C79.5759 182.503 79.1817 182.599 78.8365 182.791C78.4956 182.982 78.225 183.264 78.0247 183.634C77.8287 184.001 77.7307 184.444 77.7307 184.964ZM89.4345 191.011C88.8124 191.011 88.2499 190.896 87.747 190.666C87.2442 190.431 86.8457 190.092 86.5517 189.649C86.2619 189.206 86.1171 188.663 86.1171 188.019C86.1171 187.465 86.2236 187.009 86.4367 186.651C86.6497 186.293 86.9374 186.01 87.2996 185.801C87.6618 185.592 88.0666 185.435 88.5141 185.328C88.9615 185.222 89.4175 185.141 89.882 185.085C90.47 185.017 90.9473 184.962 91.3138 184.919C91.6803 184.872 91.9466 184.798 92.1128 184.695C92.279 184.593 92.3621 184.427 92.3621 184.197V184.152C92.3621 183.594 92.2044 183.161 91.8891 182.855C91.578 182.548 91.1135 182.394 90.4956 182.394C89.8521 182.394 89.345 182.537 88.9743 182.823C88.6078 183.104 88.3543 183.417 88.2136 183.762L86.4175 183.353C86.6305 182.757 86.9416 182.275 87.3507 181.909C87.7641 181.538 88.2392 181.269 88.7761 181.103C89.3131 180.933 89.8777 180.847 90.47 180.847C90.8621 180.847 91.2776 180.894 91.7165 180.988C92.1597 181.078 92.573 181.244 92.9565 181.487C93.3443 181.73 93.6618 182.077 93.909 182.529C94.1561 182.976 94.2797 183.558 94.2797 184.274V190.793H92.4132V189.451H92.3365C92.2129 189.698 92.0276 189.941 91.7804 190.18C91.5332 190.418 91.2158 190.617 90.828 190.774C90.4402 190.932 89.9757 191.011 89.4345 191.011ZM89.85 189.477C90.3784 189.477 90.8301 189.372 91.2051 189.163C91.5844 188.955 91.872 188.682 92.068 188.345C92.2683 188.004 92.3685 187.64 92.3685 187.252V185.987C92.3003 186.055 92.1682 186.119 91.9722 186.178C91.7804 186.234 91.5609 186.283 91.3138 186.325C91.0666 186.364 90.8259 186.4 90.5915 186.434C90.3571 186.464 90.1611 186.489 90.0034 186.511C89.6327 186.558 89.2939 186.636 88.9871 186.747C88.6845 186.858 88.4416 187.018 88.2584 187.227C88.0794 187.431 87.9899 187.704 87.9899 188.045C87.9899 188.518 88.1646 188.876 88.5141 189.119C88.8635 189.357 89.3088 189.477 89.85 189.477ZM98.7366 177.703V190.793H96.8253V177.703H98.7366ZM102.567 190.915C102.218 190.915 101.917 190.791 101.666 190.544C101.414 190.293 101.289 189.99 101.289 189.636C101.289 189.287 101.414 188.989 101.666 188.742C101.917 188.49 102.218 188.364 102.567 188.364C102.916 188.364 103.217 188.49 103.468 188.742C103.72 188.989 103.845 189.287 103.845 189.636C103.845 189.871 103.786 190.086 103.666 190.282C103.551 190.474 103.398 190.627 103.206 190.742C103.014 190.857 102.801 190.915 102.567 190.915ZM102.567 183.769C102.218 183.769 101.917 183.643 101.666 183.391C101.414 183.14 101.289 182.84 101.289 182.49C101.289 182.141 101.414 181.842 101.666 181.595C101.917 181.344 102.218 181.218 102.567 181.218C102.916 181.218 103.217 181.344 103.468 181.595C103.72 181.842 103.845 182.141 103.845 182.49C103.845 182.725 103.786 182.94 103.666 183.136C103.551 183.328 103.398 183.481 103.206 183.596C103.014 183.711 102.801 183.769 102.567 183.769Z" fill="#767676"/>
<path d="M191.906 188.042V181.011H193.099V188.042H191.906ZM188.987 185.123V183.93H196.018V185.123H188.987ZM201.985 188.937C201.36 188.937 200.797 188.813 200.297 188.564C199.796 188.316 199.395 187.975 199.093 187.542C198.791 187.108 198.626 186.615 198.597 186.061H199.876C199.926 186.554 200.149 186.963 200.547 187.286C200.948 187.606 201.428 187.765 201.985 187.765C202.433 187.765 202.83 187.661 203.178 187.451C203.53 187.242 203.805 186.954 204.004 186.588C204.206 186.219 204.308 185.802 204.308 185.336C204.308 184.861 204.203 184.436 203.993 184.063C203.787 183.687 203.503 183.39 203.141 183.174C202.779 182.957 202.365 182.847 201.9 182.843C201.566 182.84 201.224 182.891 200.872 182.998C200.52 183.101 200.231 183.234 200.004 183.397L198.768 183.248L199.428 177.879H205.096V179.051H200.536L200.153 182.268H200.217C200.441 182.091 200.721 181.943 201.058 181.826C201.396 181.709 201.747 181.65 202.113 181.65C202.781 181.65 203.376 181.81 203.898 182.13C204.423 182.446 204.835 182.879 205.133 183.429C205.435 183.98 205.586 184.608 205.586 185.315C205.586 186.011 205.43 186.633 205.117 187.179C204.808 187.723 204.382 188.152 203.839 188.468C203.296 188.781 202.678 188.937 201.985 188.937ZM211.196 188.937C210.465 188.937 209.819 188.808 209.258 188.548C208.7 188.286 208.265 187.925 207.952 187.467C207.64 187.005 207.486 186.48 207.489 185.89C207.486 185.429 207.576 185.003 207.761 184.612C207.945 184.218 208.198 183.889 208.517 183.627C208.84 183.36 209.201 183.191 209.598 183.12V183.057C209.076 182.922 208.661 182.629 208.352 182.178C208.043 181.723 207.89 181.206 207.894 180.628C207.89 180.074 208.031 179.578 208.315 179.141C208.599 178.705 208.989 178.36 209.487 178.108C209.987 177.856 210.557 177.73 211.196 177.73C211.829 177.73 212.393 177.856 212.89 178.108C213.388 178.36 213.778 178.705 214.062 179.141C214.35 179.578 214.495 180.074 214.499 180.628C214.495 181.206 214.337 181.723 214.025 182.178C213.716 182.629 213.306 182.922 212.794 183.057V183.12C213.189 183.191 213.544 183.36 213.86 183.627C214.176 183.889 214.428 184.218 214.616 184.612C214.804 185.003 214.9 185.429 214.904 185.89C214.9 186.48 214.74 187.005 214.424 187.467C214.112 187.925 213.677 188.286 213.119 188.548C212.565 188.808 211.924 188.937 211.196 188.937ZM211.196 187.765C211.69 187.765 212.116 187.685 212.475 187.526C212.834 187.366 213.111 187.14 213.306 186.849C213.501 186.558 213.601 186.217 213.604 185.826C213.601 185.415 213.494 185.051 213.285 184.734C213.075 184.418 212.789 184.17 212.427 183.989C212.068 183.808 211.658 183.717 211.196 183.717C210.731 183.717 210.316 183.808 209.95 183.989C209.588 184.17 209.302 184.418 209.092 184.734C208.886 185.051 208.785 185.415 208.789 185.826C208.785 186.217 208.879 186.558 209.071 186.849C209.266 187.14 209.545 187.366 209.907 187.526C210.27 187.685 210.699 187.765 211.196 187.765ZM211.196 182.588C211.587 182.588 211.933 182.51 212.235 182.353C212.541 182.197 212.78 181.979 212.954 181.698C213.128 181.418 213.217 181.089 213.221 180.713C213.217 180.343 213.13 180.022 212.96 179.749C212.789 179.472 212.553 179.259 212.251 179.109C211.949 178.957 211.598 178.88 211.196 178.88C210.788 178.88 210.431 178.957 210.126 179.109C209.82 179.259 209.584 179.472 209.417 179.749C209.25 180.022 209.169 180.343 209.172 180.713C209.169 181.089 209.252 181.418 209.423 181.698C209.597 181.979 209.836 182.197 210.142 182.353C210.447 182.51 210.799 182.588 211.196 182.588ZM221.633 184.186C221.633 182.843 221.807 181.609 222.155 180.484C222.506 179.354 223.007 178.316 223.657 177.368H224.765C224.509 177.719 224.27 178.152 224.046 178.667C223.826 179.179 223.632 179.742 223.465 180.356C223.298 180.967 223.167 181.599 223.071 182.252C222.979 182.906 222.933 183.55 222.933 184.186C222.933 185.031 223.014 185.889 223.178 186.759C223.341 187.629 223.561 188.437 223.838 189.182C224.115 189.928 224.424 190.535 224.765 191.004H223.657C223.007 190.056 222.506 189.019 222.155 187.893C221.807 186.764 221.633 185.528 221.633 184.186ZM230.157 188.937C229.354 188.937 228.671 188.719 228.106 188.282C227.541 187.842 227.11 187.204 226.812 186.37C226.513 185.532 226.364 184.52 226.364 183.334C226.364 182.155 226.513 181.148 226.812 180.313C227.114 179.475 227.547 178.836 228.111 178.396C228.68 177.952 229.361 177.73 230.157 177.73C230.952 177.73 231.632 177.952 232.197 178.396C232.765 178.836 233.198 179.475 233.497 180.313C233.799 181.148 233.949 182.155 233.949 183.334C233.949 184.52 233.8 185.532 233.502 186.37C233.204 187.204 232.772 187.842 232.208 188.282C231.643 188.719 230.959 188.937 230.157 188.937ZM230.157 187.765C230.952 187.765 231.57 187.382 232.011 186.615C232.451 185.848 232.671 184.754 232.671 183.334C232.671 182.389 232.57 181.585 232.367 180.921C232.169 180.256 231.881 179.75 231.505 179.402C231.132 179.054 230.682 178.88 230.157 178.88C229.369 178.88 228.752 179.269 228.308 180.047C227.865 180.821 227.643 181.917 227.643 183.334C227.643 184.278 227.742 185.081 227.941 185.741C228.14 186.402 228.426 186.904 228.799 187.249C229.175 187.593 229.628 187.765 230.157 187.765ZM235.974 188.788V187.829L239.574 183.888C239.997 183.426 240.345 183.025 240.619 182.684C240.892 182.339 241.094 182.016 241.226 181.714C241.361 181.409 241.428 181.089 241.428 180.755C241.428 180.372 241.336 180.04 241.151 179.759C240.97 179.479 240.721 179.262 240.405 179.109C240.089 178.957 239.734 178.88 239.34 178.88C238.921 178.88 238.555 178.967 238.243 179.141C237.934 179.312 237.694 179.552 237.524 179.861C237.357 180.169 237.273 180.532 237.273 180.947H236.016C236.016 180.308 236.164 179.747 236.458 179.264C236.753 178.781 237.154 178.405 237.662 178.135C238.174 177.865 238.747 177.73 239.383 177.73C240.022 177.73 240.588 177.865 241.082 178.135C241.576 178.405 241.963 178.769 242.243 179.227C242.524 179.685 242.664 180.194 242.664 180.755C242.664 181.157 242.591 181.549 242.446 181.933C242.304 182.313 242.055 182.737 241.7 183.206C241.348 183.671 240.86 184.239 240.235 184.91L237.785 187.531V187.616H242.856V188.788H235.974ZM248.891 177.879V188.788H247.57V179.264H247.506L244.843 181.032V179.69L247.57 177.879H248.891ZM254.734 184.186C254.734 185.528 254.558 186.764 254.207 187.893C253.859 189.019 253.36 190.056 252.71 191.004H251.602C251.858 190.652 252.096 190.219 252.316 189.704C252.54 189.193 252.735 188.632 252.902 188.021C253.069 187.407 253.198 186.773 253.291 186.119C253.387 185.462 253.435 184.818 253.435 184.186C253.435 183.341 253.353 182.483 253.19 181.613C253.026 180.743 252.806 179.935 252.529 179.189C252.252 178.444 251.943 177.836 251.602 177.368H252.71C253.36 178.316 253.859 179.354 254.207 180.484C254.558 181.609 254.734 182.843 254.734 184.186ZM261.149 188.937C260.446 188.937 259.819 188.816 259.269 188.575C258.722 188.334 258.287 187.998 257.964 187.568C257.644 187.135 257.47 186.633 257.442 186.061H258.784C258.812 186.412 258.933 186.716 259.146 186.972C259.359 187.224 259.638 187.419 259.982 187.558C260.327 187.696 260.709 187.765 261.128 187.765C261.596 187.765 262.012 187.684 262.374 187.52C262.736 187.357 263.02 187.13 263.226 186.839C263.432 186.547 263.535 186.21 263.535 185.826C263.535 185.425 263.436 185.072 263.237 184.766C263.038 184.457 262.747 184.216 262.363 184.042C261.98 183.868 261.511 183.781 260.957 183.781H260.084V182.609H260.957C261.39 182.609 261.77 182.531 262.097 182.375C262.427 182.218 262.685 181.998 262.869 181.714C263.058 181.43 263.152 181.096 263.152 180.713C263.152 180.343 263.07 180.022 262.907 179.749C262.743 179.475 262.513 179.262 262.214 179.109C261.92 178.957 261.572 178.88 261.17 178.88C260.794 178.88 260.439 178.95 260.105 179.088C259.775 179.223 259.505 179.42 259.295 179.679C259.086 179.935 258.972 180.244 258.954 180.606H257.676C257.697 180.035 257.869 179.534 258.193 179.104C258.516 178.671 258.938 178.334 259.46 178.092C259.986 177.851 260.563 177.73 261.192 177.73C261.866 177.73 262.445 177.867 262.928 178.14C263.411 178.41 263.782 178.767 264.041 179.211C264.301 179.655 264.43 180.134 264.43 180.649C264.43 181.263 264.269 181.787 263.945 182.22C263.626 182.653 263.191 182.954 262.64 183.12V183.206C263.329 183.319 263.867 183.612 264.254 184.085C264.642 184.553 264.835 185.134 264.835 185.826C264.835 186.419 264.673 186.952 264.35 187.424C264.031 187.893 263.594 188.263 263.04 188.532C262.486 188.802 261.856 188.937 261.149 188.937ZM270.423 188.937C269.798 188.937 269.235 188.813 268.734 188.564C268.233 188.316 267.832 187.975 267.53 187.542C267.229 187.108 267.063 186.615 267.035 186.061H268.313C268.363 186.554 268.587 186.963 268.985 187.286C269.386 187.606 269.865 187.765 270.423 187.765C270.87 187.765 271.268 187.661 271.616 187.451C271.967 187.242 272.243 186.954 272.442 186.588C272.644 186.219 272.745 185.802 272.745 185.336C272.745 184.861 272.64 184.436 272.431 184.063C272.225 183.687 271.941 183.39 271.579 183.174C271.216 182.957 270.803 182.847 270.338 182.843C270.004 182.84 269.661 182.891 269.309 182.998C268.958 183.101 268.668 183.234 268.441 183.397L267.205 183.248L267.866 177.879H273.534V179.051H268.974L268.59 182.268H268.654C268.878 182.091 269.159 181.943 269.496 181.826C269.833 181.709 270.185 181.65 270.551 181.65C271.218 181.65 271.813 181.81 272.335 182.13C272.861 182.446 273.273 182.879 273.571 183.429C273.873 183.98 274.024 184.608 274.024 185.315C274.024 186.011 273.867 186.633 273.555 187.179C273.246 187.723 272.82 188.152 272.276 188.468C271.733 188.781 271.115 188.937 270.423 188.937ZM279.762 188.937C279.314 188.93 278.867 188.845 278.419 188.682C277.972 188.518 277.564 188.243 277.194 187.856C276.825 187.465 276.528 186.938 276.305 186.274C276.081 185.606 275.969 184.768 275.969 183.76C275.969 182.794 276.06 181.938 276.241 181.192C276.422 180.443 276.685 179.813 277.029 179.301C277.374 178.786 277.789 178.396 278.276 178.129C278.766 177.863 279.318 177.73 279.932 177.73C280.543 177.73 281.086 177.852 281.562 178.097C282.042 178.339 282.432 178.676 282.734 179.109C283.036 179.543 283.231 180.042 283.32 180.606H282.02C281.9 180.116 281.665 179.71 281.317 179.386C280.969 179.063 280.508 178.902 279.932 178.902C279.087 178.902 278.421 179.269 277.935 180.004C277.452 180.739 277.209 181.771 277.205 183.099H277.29C277.489 182.797 277.725 182.54 277.999 182.327C278.276 182.11 278.581 181.943 278.915 181.826C279.249 181.709 279.602 181.65 279.975 181.65C280.6 181.65 281.172 181.807 281.69 182.119C282.209 182.428 282.624 182.856 282.937 183.403C283.249 183.946 283.405 184.569 283.405 185.272C283.405 185.947 283.254 186.565 282.952 187.126C282.651 187.684 282.226 188.128 281.679 188.458C281.136 188.785 280.497 188.944 279.762 188.937ZM279.762 187.765C280.209 187.765 280.611 187.653 280.966 187.43C281.324 187.206 281.607 186.906 281.813 186.53C282.022 186.153 282.127 185.734 282.127 185.272C282.127 184.821 282.026 184.411 281.823 184.042C281.624 183.669 281.349 183.373 280.998 183.152C280.65 182.932 280.252 182.822 279.804 182.822C279.467 182.822 279.153 182.89 278.862 183.025C278.57 183.156 278.315 183.337 278.095 183.568C277.878 183.799 277.707 184.063 277.583 184.362C277.459 184.656 277.397 184.967 277.397 185.294C277.397 185.727 277.498 186.132 277.7 186.508C277.906 186.885 278.187 187.188 278.542 187.419C278.901 187.65 279.307 187.765 279.762 187.765ZM293.128 188.937C292.503 188.937 291.94 188.813 291.439 188.564C290.939 188.316 290.537 187.975 290.235 187.542C289.934 187.108 289.768 186.615 289.74 186.061H291.018C291.068 186.554 291.292 186.963 291.69 187.286C292.091 187.606 292.57 187.765 293.128 187.765C293.575 187.765 293.973 187.661 294.321 187.451C294.673 187.242 294.948 186.954 295.147 186.588C295.349 186.219 295.45 185.802 295.45 185.336C295.45 184.861 295.346 184.436 295.136 184.063C294.93 183.687 294.646 183.39 294.284 183.174C293.922 182.957 293.508 182.847 293.043 182.843C292.709 182.84 292.366 182.891 292.015 182.998C291.663 183.101 291.374 183.234 291.146 183.397L289.911 183.248L290.571 177.879H296.239V179.051H291.679L291.295 182.268H291.359C291.583 182.091 291.864 181.943 292.201 181.826C292.538 181.709 292.89 181.65 293.256 181.65C293.923 181.65 294.518 181.81 295.04 182.13C295.566 182.446 295.978 182.879 296.276 183.429C296.578 183.98 296.729 184.608 296.729 185.315C296.729 186.011 296.572 186.633 296.26 187.179C295.951 187.723 295.525 188.152 294.982 188.468C294.438 188.781 293.82 188.937 293.128 188.937ZM302.339 188.937C301.607 188.937 300.961 188.808 300.4 188.548C299.843 188.286 299.408 187.925 299.095 187.467C298.783 187.005 298.628 186.48 298.632 185.89C298.628 185.429 298.719 185.003 298.903 184.612C299.088 184.218 299.34 183.889 299.66 183.627C299.983 183.36 300.343 183.191 300.741 183.12V183.057C300.219 182.922 299.804 182.629 299.495 182.178C299.186 181.723 299.033 181.206 299.036 180.628C299.033 180.074 299.173 179.578 299.457 179.141C299.741 178.705 300.132 178.36 300.629 178.108C301.13 177.856 301.7 177.73 302.339 177.73C302.971 177.73 303.536 177.856 304.033 178.108C304.53 178.36 304.921 178.705 305.205 179.141C305.492 179.578 305.638 180.074 305.642 180.628C305.638 181.206 305.48 181.723 305.168 182.178C304.859 182.629 304.448 182.922 303.937 183.057V183.12C304.331 183.191 304.686 183.36 305.002 183.627C305.318 183.889 305.571 184.218 305.759 184.612C305.947 185.003 306.043 185.429 306.046 185.89C306.043 186.48 305.883 187.005 305.567 187.467C305.255 187.925 304.82 188.286 304.262 188.548C303.708 188.808 303.067 188.937 302.339 188.937ZM302.339 187.765C302.833 187.765 303.259 187.685 303.617 187.526C303.976 187.366 304.253 187.14 304.448 186.849C304.644 186.558 304.743 186.217 304.747 185.826C304.743 185.415 304.637 185.051 304.427 184.734C304.218 184.418 303.932 184.17 303.57 183.989C303.211 183.808 302.801 183.717 302.339 183.717C301.874 183.717 301.458 183.808 301.093 183.989C300.73 184.17 300.445 184.418 300.235 184.734C300.029 185.051 299.928 185.415 299.931 185.826C299.928 186.217 300.022 186.558 300.214 186.849C300.409 187.14 300.688 187.366 301.05 187.526C301.412 187.685 301.842 187.765 302.339 187.765ZM302.339 182.588C302.73 182.588 303.076 182.51 303.378 182.353C303.683 182.197 303.923 181.979 304.097 181.698C304.271 181.418 304.36 181.089 304.363 180.713C304.36 180.343 304.273 180.022 304.102 179.749C303.932 179.472 303.696 179.259 303.394 179.109C303.092 178.957 302.74 178.88 302.339 178.88C301.931 178.88 301.574 178.957 301.268 179.109C300.963 179.259 300.727 179.472 300.56 179.749C300.393 180.022 300.311 180.343 300.315 180.713C300.311 181.089 300.395 181.418 300.565 181.698C300.739 181.979 300.979 182.197 301.284 182.353C301.59 182.51 301.941 182.588 302.339 182.588ZM308.429 188.788L313.308 179.136V179.051H307.683V177.879H314.672V179.115L309.814 188.788H308.429ZM320.876 188.788V187.829L324.477 183.888C324.899 183.426 325.247 183.025 325.521 182.684C325.794 182.339 325.997 182.016 326.128 181.714C326.263 181.409 326.331 181.089 326.331 180.755C326.331 180.372 326.238 180.04 326.054 179.759C325.872 179.479 325.624 179.262 325.308 179.109C324.992 178.957 324.637 178.88 324.242 178.88C323.823 178.88 323.458 178.967 323.145 179.141C322.836 179.312 322.596 179.552 322.426 179.861C322.259 180.169 322.176 180.532 322.176 180.947H320.919C320.919 180.308 321.066 179.747 321.361 179.264C321.655 178.781 322.057 178.405 322.565 178.135C323.076 177.865 323.649 177.73 324.285 177.73C324.924 177.73 325.491 177.865 325.984 178.135C326.478 178.405 326.865 178.769 327.145 179.227C327.426 179.685 327.566 180.194 327.566 180.755C327.566 181.157 327.494 181.549 327.348 181.933C327.206 182.313 326.957 182.737 326.602 183.206C326.251 183.671 325.762 184.239 325.137 184.91L322.687 187.531V187.616H327.758V188.788H320.876ZM333.644 188.937C332.941 188.937 332.314 188.816 331.764 188.575C331.217 188.334 330.782 187.998 330.459 187.568C330.139 187.135 329.965 186.633 329.937 186.061H331.279C331.307 186.412 331.428 186.716 331.641 186.972C331.854 187.224 332.133 187.419 332.478 187.558C332.822 187.696 333.204 187.765 333.623 187.765C334.092 187.765 334.507 187.684 334.869 187.52C335.231 187.357 335.516 187.13 335.721 186.839C335.927 186.547 336.03 186.21 336.03 185.826C336.03 185.425 335.931 185.072 335.732 184.766C335.533 184.457 335.242 184.216 334.859 184.042C334.475 183.868 334.006 183.781 333.452 183.781H332.579V182.609H333.452C333.886 182.609 334.266 182.531 334.592 182.375C334.922 182.218 335.18 181.998 335.365 181.714C335.553 181.43 335.647 181.096 335.647 180.713C335.647 180.343 335.565 180.022 335.402 179.749C335.239 179.475 335.008 179.262 334.709 179.109C334.415 178.957 334.067 178.88 333.665 178.88C333.289 178.88 332.934 178.95 332.6 179.088C332.27 179.223 332 179.42 331.79 179.679C331.581 179.935 331.467 180.244 331.449 180.606H330.171C330.192 180.035 330.365 179.534 330.688 179.104C331.011 178.671 331.433 178.334 331.956 178.092C332.481 177.851 333.058 177.73 333.687 177.73C334.361 177.73 334.94 177.867 335.423 178.14C335.906 178.41 336.277 178.767 336.536 179.211C336.796 179.655 336.925 180.134 336.925 180.649C336.925 181.263 336.764 181.787 336.441 182.22C336.121 182.653 335.686 182.954 335.136 183.12V183.206C335.824 183.319 336.362 183.612 336.75 184.085C337.137 184.553 337.33 185.134 337.33 185.826C337.33 186.419 337.169 186.952 336.845 187.424C336.526 187.893 336.089 188.263 335.535 188.532C334.981 188.802 334.351 188.937 333.644 188.937ZM342.918 188.937C342.293 188.937 341.73 188.813 341.229 188.564C340.729 188.316 340.327 187.975 340.025 187.542C339.724 187.108 339.558 186.615 339.53 186.061H340.808C340.858 186.554 341.082 186.963 341.48 187.286C341.881 187.606 342.36 187.765 342.918 187.765C343.365 187.765 343.763 187.661 344.111 187.451C344.463 187.242 344.738 186.954 344.937 186.588C345.139 186.219 345.24 185.802 345.24 185.336C345.24 184.861 345.136 184.436 344.926 184.063C344.72 183.687 344.436 183.39 344.074 183.174C343.712 182.957 343.298 182.847 342.833 182.843C342.499 182.84 342.156 182.891 341.805 182.998C341.453 183.101 341.164 183.234 340.936 183.397L339.701 183.248L340.361 177.879H346.029V179.051H341.469L341.085 182.268H341.149C341.373 182.091 341.654 181.943 341.991 181.826C342.328 181.709 342.68 181.65 343.046 181.65C343.713 181.65 344.308 181.81 344.83 182.13C345.356 182.446 345.768 182.879 346.066 183.429C346.368 183.98 346.519 184.608 346.519 185.315C346.519 186.011 346.362 186.633 346.05 187.179C345.741 187.723 345.315 188.152 344.772 188.468C344.228 188.781 343.61 188.937 342.918 188.937Z" fill="#767676"/>
<ellipse cx="186.344" cy="46.1268" rx="20.1458" ry="20.1058" fill="#FFB400"/>
<g clip-path="url(#clip0_1_2329)">
<path d="M181.813 38.5875H190.879C191.079 38.5875 191.271 38.667 191.413 38.8084C191.554 38.9498 191.634 39.1415 191.634 39.3415V52.9129C191.634 53.1129 191.554 53.3047 191.413 53.4461C191.271 53.5875 191.079 53.6669 190.879 53.6669H181.813C181.613 53.6669 181.42 53.5875 181.279 53.4461C181.137 53.3047 181.057 53.1129 181.057 52.9129V39.3415C181.057 39.1415 181.137 38.9498 181.279 38.8084C181.42 38.667 181.613 38.5875 181.813 38.5875ZM186.346 49.897C186.145 49.897 185.953 49.9765 185.812 50.1179C185.67 50.2593 185.59 50.4511 185.59 50.651C185.59 50.851 185.67 51.0428 185.812 51.1842C185.953 51.3255 186.145 51.405 186.346 51.405C186.546 51.405 186.738 51.3255 186.88 51.1842C187.022 51.0428 187.101 50.851 187.101 50.651C187.101 50.4511 187.022 50.2593 186.88 50.1179C186.738 49.9765 186.546 49.897 186.346 49.897Z" fill="#2B2B2B"/>
</g>
<defs>
<clipPath id="clip0_1_2329">
<rect width="18.1312" height="18.0952" fill="white" transform="translate(177.28 37.0796)"/>
</clipPath>
</defs>
</svg>
