<svg width="373" height="212" viewBox="0 0 373 212" fill="none" xmlns="http://www.w3.org/2000/svg">
<rect x="-0.00012207" y="0.682617" width="372.696" height="211.111" fill="white"/>
<path d="M26.6135 119.211V106.121H34.8209V107.821H28.5886V111.809H34.3926V113.503H28.5886V117.511H34.8976V119.211H26.6135ZM37.3058 119.211V109.393H39.1403V110.991H39.2618C39.4663 110.45 39.8008 110.028 40.2653 109.726C40.7298 109.419 41.2859 109.265 41.9336 109.265C42.5899 109.265 43.1396 109.419 43.5828 109.726C44.0302 110.032 44.3605 110.454 44.5736 110.991H44.6758C44.9102 110.467 45.2831 110.049 45.7944 109.738C46.3058 109.423 46.9152 109.265 47.6226 109.265C48.5132 109.265 49.2397 109.545 49.8022 110.103C50.369 110.661 50.6524 111.503 50.6524 112.628V119.211H48.7412V112.807C48.7412 112.142 48.5601 111.66 48.1978 111.362C47.8356 111.064 47.4031 110.915 46.9003 110.915C46.2781 110.915 45.7944 111.106 45.4493 111.49C45.1041 111.869 44.9315 112.357 44.9315 112.954V119.211H43.0267V112.685C43.0267 112.152 42.8605 111.724 42.5281 111.4C42.1957 111.076 41.7632 110.915 41.2305 110.915C40.8683 110.915 40.5338 111.01 40.227 111.202C39.9244 111.39 39.6794 111.652 39.4919 111.988C39.3086 112.325 39.217 112.715 39.217 113.158V119.211H37.3058ZM56.0712 119.429C55.4491 119.429 54.8866 119.314 54.3837 119.084C53.8809 118.849 53.4825 118.51 53.1884 118.067C52.8987 117.624 52.7538 117.081 52.7538 116.437C52.7538 115.883 52.8603 115.427 53.0734 115.069C53.2864 114.711 53.5741 114.428 53.9363 114.219C54.2985 114.01 54.7033 113.853 55.1508 113.746C55.5982 113.64 56.0542 113.559 56.5187 113.503C57.1068 113.435 57.584 113.38 57.9505 113.337C58.317 113.29 58.5833 113.216 58.7495 113.113C58.9157 113.011 58.9988 112.845 58.9988 112.615V112.57C58.9988 112.012 58.8411 111.579 58.5258 111.273C58.2147 110.966 57.7502 110.812 57.1323 110.812C56.4889 110.812 55.9818 110.955 55.611 111.241C55.2445 111.522 54.991 111.835 54.8504 112.18L53.0542 111.771C53.2673 111.174 53.5783 110.693 53.9874 110.326C54.4008 109.956 54.8759 109.687 55.4129 109.521C55.9498 109.351 56.5144 109.265 57.1068 109.265C57.4988 109.265 57.9143 109.312 58.3532 109.406C58.7964 109.496 59.2097 109.662 59.5933 109.905C59.981 110.148 60.2985 110.495 60.5457 110.947C60.7928 111.394 60.9164 111.976 60.9164 112.692V119.211H59.0499V117.869H58.9732C58.8497 118.116 58.6643 118.359 58.4171 118.598C58.17 118.836 57.8525 119.035 57.4647 119.192C57.0769 119.35 56.6124 119.429 56.0712 119.429ZM56.4867 117.895C57.0151 117.895 57.4668 117.79 57.8418 117.581C58.2211 117.373 58.5087 117.1 58.7048 116.763C58.9051 116.422 59.0052 116.058 59.0052 115.67V114.405C58.937 114.473 58.8049 114.537 58.6089 114.596C58.4171 114.652 58.1977 114.701 57.9505 114.743C57.7033 114.782 57.4626 114.818 57.2282 114.852C56.9938 114.882 56.7978 114.907 56.6401 114.929C56.2694 114.976 55.9306 115.054 55.6238 115.165C55.3212 115.276 55.0783 115.436 54.8951 115.645C54.7161 115.849 54.6266 116.122 54.6266 116.463C54.6266 116.936 54.8014 117.294 55.1508 117.537C55.5002 117.775 55.9455 117.895 56.4867 117.895ZM63.462 119.211V109.393H65.3733V119.211H63.462ZM64.4272 107.878C64.0949 107.878 63.8093 107.768 63.5707 107.546C63.3363 107.32 63.2191 107.052 63.2191 106.741C63.2191 106.425 63.3363 106.157 63.5707 105.935C63.8093 105.709 64.0949 105.596 64.4272 105.596C64.7596 105.596 65.043 105.709 65.2774 105.935C65.516 106.157 65.6353 106.425 65.6353 106.741C65.6353 107.052 65.516 107.32 65.2774 107.546C65.043 107.768 64.7596 107.878 64.4272 107.878ZM69.8557 106.121V119.211H67.9445V106.121H69.8557ZM73.6861 119.333C73.3367 119.333 73.0363 119.209 72.7848 118.962C72.5334 118.711 72.4077 118.408 72.4077 118.054C72.4077 117.705 72.5334 117.407 72.7848 117.16C73.0363 116.908 73.3367 116.782 73.6861 116.782C74.0356 116.782 74.336 116.908 74.5874 117.16C74.8388 117.407 74.9645 117.705 74.9645 118.054C74.9645 118.289 74.9049 118.504 74.7856 118.7C74.6705 118.892 74.5171 119.045 74.3253 119.16C74.1336 119.275 73.9205 119.333 73.6861 119.333ZM73.6861 112.187C73.3367 112.187 73.0363 112.061 72.7848 111.809C72.5334 111.558 72.4077 111.258 72.4077 110.908C72.4077 110.559 72.5334 110.26 72.7848 110.013C73.0363 109.762 73.3367 109.636 73.6861 109.636C74.0356 109.636 74.336 109.762 74.5874 110.013C74.8388 110.26 74.9645 110.559 74.9645 110.908C74.9645 111.143 74.9049 111.358 74.7856 111.554C74.6705 111.746 74.5171 111.899 74.3253 112.014C74.1336 112.129 73.9205 112.187 73.6861 112.187Z" fill="#767676"/>
<path d="M186.494 106.297H188.007L191.033 111.39H191.16L194.186 106.297H195.699L191.757 112.711V117.207H190.436V112.711L186.494 106.297ZM200.561 117.377C199.822 117.377 199.174 117.201 198.616 116.85C198.062 116.498 197.629 116.006 197.317 115.374C197.008 114.742 196.853 114.003 196.853 113.158C196.853 112.306 197.008 111.562 197.317 110.926C197.629 110.291 198.062 109.797 198.616 109.446C199.174 109.094 199.822 108.918 200.561 108.918C201.299 108.918 201.946 109.094 202.5 109.446C203.057 109.797 203.49 110.291 203.799 110.926C204.112 111.562 204.268 112.306 204.268 113.158C204.268 114.003 204.112 114.742 203.799 115.374C203.49 116.006 203.057 116.498 202.5 116.85C201.946 117.201 201.299 117.377 200.561 117.377ZM200.561 116.248C201.122 116.248 201.583 116.104 201.946 115.816C202.308 115.529 202.576 115.15 202.75 114.682C202.924 114.213 203.011 113.705 203.011 113.158C203.011 112.611 202.924 112.102 202.75 111.629C202.576 111.157 202.308 110.775 201.946 110.484C201.583 110.193 201.122 110.047 200.561 110.047C200 110.047 199.538 110.193 199.176 110.484C198.813 110.775 198.545 111.157 198.371 111.629C198.197 112.102 198.11 112.611 198.11 113.158C198.11 113.705 198.197 114.213 198.371 114.682C198.545 115.15 198.813 115.529 199.176 115.816C199.538 116.104 200 116.248 200.561 116.248ZM211.343 113.861V109.025H212.6V117.207H211.343V115.822H211.258C211.066 116.237 210.768 116.59 210.363 116.882C209.958 117.169 209.447 117.313 208.829 117.313C208.318 117.313 207.863 117.201 207.465 116.977C207.068 116.75 206.755 116.409 206.528 115.955C206.301 115.497 206.187 114.92 206.187 114.224V109.025H207.444V114.138C207.444 114.735 207.611 115.211 207.945 115.566C208.282 115.921 208.712 116.099 209.234 116.099C209.546 116.099 209.864 116.019 210.187 115.859C210.514 115.699 210.787 115.454 211.008 115.124C211.231 114.794 211.343 114.373 211.343 113.861ZM214.903 117.207V109.025H216.117V110.261H216.203C216.352 109.856 216.622 109.527 217.012 109.275C217.403 109.023 217.843 108.897 218.333 108.897C218.426 108.897 218.541 108.899 218.679 108.902C218.818 108.906 218.923 108.911 218.994 108.918V110.197C218.951 110.186 218.853 110.17 218.701 110.149C218.552 110.124 218.394 110.111 218.227 110.111C217.829 110.111 217.474 110.195 217.161 110.362C216.852 110.525 216.607 110.752 216.426 111.044C216.249 111.331 216.16 111.66 216.16 112.029V117.207H214.903ZM223.914 117.377C223.126 117.377 222.446 117.203 221.874 116.855C221.306 116.503 220.867 116.013 220.558 115.385C220.253 114.753 220.1 114.018 220.1 113.18C220.1 112.341 220.253 111.603 220.558 110.964C220.867 110.321 221.297 109.82 221.847 109.462C222.401 109.099 223.048 108.918 223.786 108.918C224.213 108.918 224.633 108.989 225.049 109.131C225.464 109.273 225.843 109.504 226.183 109.824C226.524 110.14 226.796 110.559 226.998 111.081C227.201 111.603 227.302 112.246 227.302 113.009V113.542H220.995V112.455H226.024C226.024 111.993 225.931 111.582 225.747 111.219C225.566 110.857 225.306 110.571 224.969 110.362C224.635 110.152 224.241 110.047 223.786 110.047C223.286 110.047 222.852 110.172 222.487 110.42C222.124 110.665 221.846 110.985 221.65 111.379C221.455 111.773 221.357 112.196 221.357 112.647V113.371C221.357 113.989 221.464 114.513 221.677 114.943C221.894 115.369 222.194 115.694 222.577 115.917C222.961 116.138 223.406 116.248 223.914 116.248C224.245 116.248 224.543 116.202 224.809 116.109C225.079 116.013 225.312 115.871 225.507 115.683C225.702 115.491 225.853 115.253 225.96 114.969L227.174 115.31C227.046 115.722 226.832 116.084 226.53 116.397C226.228 116.706 225.855 116.947 225.411 117.121C224.967 117.292 224.468 117.377 223.914 117.377ZM229.214 117.207V109.025H230.429V110.303H230.535C230.706 109.866 230.981 109.527 231.361 109.286C231.741 109.041 232.197 108.918 232.73 108.918C233.27 108.918 233.719 109.041 234.078 109.286C234.44 109.527 234.722 109.866 234.925 110.303H235.01C235.219 109.881 235.534 109.545 235.953 109.296C236.372 109.044 236.874 108.918 237.46 108.918C238.192 108.918 238.79 109.147 239.255 109.605C239.72 110.06 239.953 110.768 239.953 111.731V117.207H238.696V111.731C238.696 111.127 238.531 110.696 238.2 110.436C237.87 110.177 237.481 110.047 237.034 110.047C236.459 110.047 236.013 110.221 235.697 110.569C235.381 110.914 235.223 111.351 235.223 111.88V117.207H233.944V111.603C233.944 111.138 233.794 110.763 233.492 110.479C233.19 110.191 232.801 110.047 232.325 110.047C231.998 110.047 231.693 110.134 231.409 110.308C231.128 110.482 230.901 110.724 230.727 111.033C230.557 111.338 230.471 111.692 230.471 112.093V117.207H229.214ZM244.659 117.398C244.141 117.398 243.67 117.301 243.248 117.105C242.825 116.906 242.489 116.621 242.241 116.248C241.992 115.871 241.868 115.417 241.868 114.884C241.868 114.415 241.96 114.035 242.145 113.744C242.33 113.449 242.576 113.219 242.885 113.052C243.194 112.885 243.535 112.761 243.908 112.679C244.284 112.594 244.663 112.526 245.043 112.476C245.54 112.413 245.943 112.365 246.252 112.333C246.564 112.297 246.792 112.239 246.934 112.157C247.079 112.075 247.152 111.933 247.152 111.731V111.688C247.152 111.163 247.008 110.754 246.721 110.463C246.436 110.172 246.005 110.026 245.426 110.026C244.826 110.026 244.355 110.158 244.015 110.42C243.674 110.683 243.434 110.964 243.295 111.262L242.102 110.836C242.315 110.339 242.599 109.952 242.955 109.675C243.313 109.394 243.704 109.199 244.126 109.089C244.553 108.975 244.972 108.918 245.384 108.918C245.646 108.918 245.948 108.95 246.289 109.014C246.634 109.074 246.966 109.201 247.285 109.392C247.608 109.584 247.876 109.873 248.089 110.261C248.303 110.648 248.409 111.166 248.409 111.816V117.207H247.152V116.099H247.088C247.003 116.276 246.861 116.466 246.662 116.669C246.463 116.871 246.199 117.043 245.868 117.185C245.538 117.327 245.135 117.398 244.659 117.398ZM244.851 116.269C245.348 116.269 245.767 116.171 246.108 115.976C246.452 115.781 246.712 115.529 246.886 115.22C247.063 114.911 247.152 114.586 247.152 114.245V113.094C247.099 113.158 246.982 113.217 246.8 113.27C246.623 113.32 246.417 113.364 246.183 113.403C245.952 113.439 245.726 113.471 245.506 113.499C245.289 113.524 245.114 113.545 244.979 113.563C244.652 113.606 244.347 113.675 244.063 113.771C243.782 113.863 243.555 114.003 243.381 114.192C243.21 114.376 243.125 114.628 243.125 114.948C243.125 115.385 243.287 115.715 243.61 115.939C243.936 116.159 244.35 116.269 244.851 116.269ZM250.704 117.207V109.025H251.961V117.207H250.704ZM251.343 107.661C251.098 107.661 250.886 107.578 250.709 107.411C250.535 107.244 250.448 107.043 250.448 106.809C250.448 106.574 250.535 106.374 250.709 106.207C250.886 106.04 251.098 105.957 251.343 105.957C251.588 105.957 251.797 106.04 251.971 106.207C252.149 106.374 252.238 106.574 252.238 106.809C252.238 107.043 252.149 107.244 251.971 107.411C251.797 107.578 251.588 107.661 251.343 107.661ZM255.52 106.297V117.207H254.263V106.297H255.52ZM264.108 120.083C263.022 120.083 262.061 119.934 261.226 119.636C260.392 119.341 259.691 118.906 259.122 118.33C258.554 117.755 258.125 117.05 257.833 116.216C257.542 115.381 257.397 114.426 257.397 113.35C257.397 112.31 257.544 111.379 257.839 110.559C258.137 109.739 258.568 109.042 259.133 108.471C259.701 107.895 260.39 107.457 261.2 107.155C262.013 106.853 262.933 106.702 263.959 106.702C264.957 106.702 265.831 106.866 266.58 107.192C267.333 107.515 267.961 107.954 268.465 108.508C268.973 109.058 269.353 109.678 269.605 110.367C269.861 111.056 269.989 111.766 269.989 112.498C269.989 113.013 269.964 113.535 269.914 114.064C269.865 114.593 269.76 115.079 269.6 115.523C269.44 115.964 269.193 116.319 268.86 116.589C268.529 116.859 268.082 116.993 267.517 116.993C267.269 116.993 266.995 116.954 266.697 116.876C266.399 116.798 266.134 116.669 265.903 116.487C265.673 116.306 265.536 116.063 265.493 115.758H265.429C265.344 115.964 265.213 116.159 265.035 116.344C264.861 116.528 264.632 116.676 264.348 116.786C264.067 116.896 263.725 116.944 263.32 116.93C262.858 116.912 262.452 116.809 262.1 116.621C261.748 116.429 261.454 116.17 261.216 115.843C260.981 115.513 260.804 115.131 260.683 114.698C260.566 114.261 260.507 113.79 260.507 113.286C260.507 112.807 260.578 112.368 260.72 111.97C260.862 111.573 261.06 111.225 261.312 110.926C261.567 110.628 261.866 110.39 262.207 110.213C262.551 110.031 262.922 109.92 263.32 109.877C263.675 109.841 263.998 109.857 264.289 109.925C264.581 109.989 264.82 110.087 265.008 110.218C265.197 110.346 265.316 110.488 265.365 110.644H265.429V110.047H266.559V114.863C266.559 115.161 266.642 115.424 266.809 115.651C266.976 115.878 267.219 115.992 267.539 115.992C267.901 115.992 268.178 115.868 268.37 115.619C268.565 115.371 268.698 114.987 268.769 114.469C268.844 113.95 268.881 113.286 268.881 112.476C268.881 112.001 268.815 111.532 268.684 111.07C268.556 110.605 268.361 110.17 268.098 109.765C267.839 109.36 267.51 109.003 267.112 108.694C266.715 108.386 266.248 108.144 265.712 107.97C265.179 107.792 264.573 107.704 263.895 107.704C263.061 107.704 262.313 107.833 261.653 108.093C260.996 108.348 260.436 108.723 259.975 109.216C259.517 109.707 259.167 110.303 258.925 111.006C258.687 111.706 258.568 112.501 258.568 113.393C258.568 114.298 258.687 115.102 258.925 115.806C259.167 116.509 259.522 117.102 259.991 117.585C260.463 118.068 261.047 118.433 261.743 118.682C262.439 118.934 263.242 119.06 264.151 119.06C264.541 119.06 264.927 119.023 265.307 118.948C265.687 118.874 266.022 118.792 266.313 118.703C266.605 118.615 266.814 118.549 266.942 118.506L267.24 119.486C267.02 119.579 266.733 119.671 266.377 119.763C266.026 119.856 265.649 119.932 265.248 119.992C264.85 120.053 264.47 120.083 264.108 120.083ZM263.49 115.843C263.966 115.843 264.351 115.747 264.646 115.555C264.941 115.364 265.156 115.074 265.291 114.687C265.426 114.3 265.493 113.812 265.493 113.222C265.493 112.626 265.419 112.16 265.269 111.827C265.12 111.493 264.9 111.258 264.609 111.123C264.318 110.989 263.959 110.921 263.533 110.921C263.128 110.921 262.782 111.028 262.494 111.241C262.21 111.45 261.992 111.731 261.839 112.082C261.69 112.43 261.615 112.81 261.615 113.222C261.615 113.677 261.676 114.105 261.796 114.506C261.917 114.904 262.114 115.227 262.388 115.475C262.661 115.72 263.029 115.843 263.49 115.843ZM279.498 109.707C279.381 109.348 279.227 109.027 279.035 108.742C278.847 108.455 278.621 108.21 278.358 108.007C278.099 107.805 277.805 107.65 277.474 107.544C277.144 107.437 276.782 107.384 276.388 107.384C275.741 107.384 275.154 107.551 274.624 107.885C274.095 108.219 273.675 108.71 273.362 109.36C273.05 110.01 272.893 110.807 272.893 111.752C272.893 112.697 273.051 113.494 273.367 114.144C273.683 114.794 274.111 115.285 274.651 115.619C275.191 115.953 275.798 116.12 276.473 116.12C277.098 116.12 277.648 115.987 278.124 115.72C278.604 115.451 278.976 115.071 279.243 114.58C279.513 114.087 279.648 113.506 279.648 112.839L280.052 112.924H276.771V111.752H280.926V112.924C280.926 113.822 280.734 114.604 280.351 115.268C279.971 115.932 279.445 116.447 278.774 116.812C278.106 117.175 277.339 117.356 276.473 117.356C275.507 117.356 274.658 117.128 273.927 116.674C273.199 116.219 272.631 115.573 272.222 114.735C271.817 113.897 271.615 112.903 271.615 111.752C271.615 110.889 271.73 110.113 271.961 109.424C272.195 108.732 272.526 108.142 272.952 107.656C273.378 107.169 273.882 106.796 274.465 106.537C275.047 106.278 275.688 106.148 276.388 106.148C276.963 106.148 277.499 106.235 277.996 106.409C278.497 106.58 278.943 106.823 279.333 107.139C279.727 107.452 280.056 107.826 280.319 108.263C280.582 108.696 280.763 109.177 280.862 109.707H279.498ZM283.018 117.207V109.025H284.233V110.303H284.339C284.51 109.866 284.785 109.527 285.165 109.286C285.545 109.041 286.001 108.918 286.534 108.918C287.073 108.918 287.523 109.041 287.881 109.286C288.244 109.527 288.526 109.866 288.728 110.303H288.813C289.023 109.881 289.337 109.545 289.756 109.296C290.175 109.044 290.678 108.918 291.264 108.918C291.995 108.918 292.594 109.147 293.059 109.605C293.524 110.06 293.757 110.768 293.757 111.731V117.207H292.5V111.731C292.5 111.127 292.334 110.696 292.004 110.436C291.674 110.177 291.285 110.047 290.838 110.047C290.262 110.047 289.817 110.221 289.501 110.569C289.185 110.914 289.027 111.351 289.027 111.88V117.207H287.748V111.603C287.748 111.138 287.597 110.763 287.295 110.479C286.994 110.191 286.605 110.047 286.129 110.047C285.802 110.047 285.497 110.134 285.213 110.308C284.932 110.482 284.705 110.724 284.531 111.033C284.36 111.338 284.275 111.692 284.275 112.093V117.207H283.018ZM298.463 117.398C297.944 117.398 297.474 117.301 297.051 117.105C296.629 116.906 296.293 116.621 296.044 116.248C295.796 115.871 295.672 115.417 295.672 114.884C295.672 114.415 295.764 114.035 295.949 113.744C296.133 113.449 296.38 113.219 296.689 113.052C296.998 112.885 297.339 112.761 297.712 112.679C298.088 112.594 298.466 112.526 298.846 112.476C299.343 112.413 299.747 112.365 300.055 112.333C300.368 112.297 300.595 112.239 300.737 112.157C300.883 112.075 300.956 111.933 300.956 111.731V111.688C300.956 111.163 300.812 110.754 300.524 110.463C300.24 110.172 299.809 110.026 299.23 110.026C298.63 110.026 298.159 110.158 297.818 110.42C297.477 110.683 297.238 110.964 297.099 111.262L295.906 110.836C296.119 110.339 296.403 109.952 296.758 109.675C297.117 109.394 297.508 109.199 297.93 109.089C298.356 108.975 298.775 108.918 299.187 108.918C299.45 108.918 299.752 108.95 300.093 109.014C300.437 109.074 300.769 109.201 301.089 109.392C301.412 109.584 301.68 109.873 301.893 110.261C302.106 110.648 302.213 111.166 302.213 111.816V117.207H300.956V116.099H300.892C300.807 116.276 300.665 116.466 300.466 116.669C300.267 116.871 300.002 117.043 299.672 117.185C299.342 117.327 298.939 117.398 298.463 117.398ZM298.655 116.269C299.152 116.269 299.571 116.171 299.912 115.976C300.256 115.781 300.515 115.529 300.689 115.22C300.867 114.911 300.956 114.586 300.956 114.245V113.094C300.902 113.158 300.785 113.217 300.604 113.27C300.427 113.32 300.221 113.364 299.986 113.403C299.755 113.439 299.53 113.471 299.31 113.499C299.093 113.524 298.917 113.545 298.782 113.563C298.456 113.606 298.15 113.675 297.866 113.771C297.586 113.863 297.358 114.003 297.184 114.192C297.014 114.376 296.929 114.628 296.929 114.948C296.929 115.385 297.09 115.715 297.413 115.939C297.74 116.159 298.154 116.269 298.655 116.269ZM304.507 117.207V109.025H305.764V117.207H304.507ZM305.146 107.661C304.901 107.661 304.69 107.578 304.513 107.411C304.339 107.244 304.252 107.043 304.252 106.809C304.252 106.574 304.339 106.374 304.513 106.207C304.69 106.04 304.901 105.957 305.146 105.957C305.392 105.957 305.601 106.04 305.775 106.207C305.953 106.374 306.041 106.574 306.041 106.809C306.041 107.043 305.953 107.244 305.775 107.411C305.601 107.578 305.392 107.661 305.146 107.661ZM309.324 106.297V117.207H308.067V106.297H309.324ZM312.543 117.292C312.28 117.292 312.054 117.198 311.866 117.009C311.678 116.821 311.584 116.596 311.584 116.333C311.584 116.07 311.678 115.845 311.866 115.656C312.054 115.468 312.28 115.374 312.543 115.374C312.805 115.374 313.031 115.468 313.219 115.656C313.407 115.845 313.501 116.07 313.501 116.333C313.501 116.507 313.457 116.667 313.368 116.812C313.283 116.958 313.168 117.075 313.022 117.164C312.88 117.249 312.72 117.292 312.543 117.292ZM324.706 109.707H323.385C323.307 109.327 323.17 108.993 322.975 108.705C322.783 108.417 322.549 108.176 322.272 107.981C321.998 107.782 321.695 107.633 321.361 107.533C321.027 107.434 320.679 107.384 320.317 107.384C319.656 107.384 319.058 107.551 318.522 107.885C317.989 108.219 317.565 108.71 317.249 109.36C316.936 110.01 316.78 110.807 316.78 111.752C316.78 112.697 316.936 113.494 317.249 114.144C317.565 114.794 317.989 115.285 318.522 115.619C319.058 115.953 319.656 116.12 320.317 116.12C320.679 116.12 321.027 116.07 321.361 115.971C321.695 115.871 321.998 115.724 322.272 115.529C322.549 115.33 322.783 115.087 322.975 114.799C323.17 114.508 323.307 114.174 323.385 113.797H324.706C324.607 114.355 324.426 114.854 324.163 115.294C323.9 115.735 323.573 116.109 323.183 116.418C322.792 116.724 322.354 116.956 321.867 117.116C321.384 117.276 320.867 117.356 320.317 117.356C319.387 117.356 318.559 117.128 317.835 116.674C317.11 116.219 316.54 115.573 316.125 114.735C315.709 113.897 315.502 112.903 315.502 111.752C315.502 110.601 315.709 109.607 316.125 108.769C316.54 107.931 317.11 107.285 317.835 106.83C318.559 106.376 319.387 106.148 320.317 106.148C320.867 106.148 321.384 106.228 321.867 106.388C322.354 106.548 322.792 106.782 323.183 107.091C323.573 107.397 323.9 107.769 324.163 108.21C324.426 108.647 324.607 109.145 324.706 109.707ZM329.994 117.377C329.256 117.377 328.608 117.201 328.05 116.85C327.496 116.498 327.063 116.006 326.75 115.374C326.441 114.742 326.287 114.003 326.287 113.158C326.287 112.306 326.441 111.562 326.75 110.926C327.063 110.291 327.496 109.797 328.05 109.446C328.608 109.094 329.256 108.918 329.994 108.918C330.733 108.918 331.379 109.094 331.933 109.446C332.491 109.797 332.924 110.291 333.233 110.926C333.545 111.562 333.702 112.306 333.702 113.158C333.702 114.003 333.545 114.742 333.233 115.374C332.924 116.006 332.491 116.498 331.933 116.85C331.379 117.201 330.733 117.377 329.994 117.377ZM329.994 116.248C330.555 116.248 331.017 116.104 331.379 115.816C331.741 115.529 332.01 115.15 332.184 114.682C332.358 114.213 332.445 113.705 332.445 113.158C332.445 112.611 332.358 112.102 332.184 111.629C332.01 111.157 331.741 110.775 331.379 110.484C331.017 110.193 330.555 110.047 329.994 110.047C329.433 110.047 328.972 110.193 328.609 110.484C328.247 110.775 327.979 111.157 327.805 111.629C327.631 112.102 327.544 112.611 327.544 113.158C327.544 113.705 327.631 114.213 327.805 114.682C327.979 115.15 328.247 115.529 328.609 115.816C328.972 116.104 329.433 116.248 329.994 116.248ZM335.621 117.207V109.025H336.835V110.303H336.942C337.112 109.866 337.387 109.527 337.767 109.286C338.147 109.041 338.604 108.918 339.136 108.918C339.676 108.918 340.125 109.041 340.484 109.286C340.846 109.527 341.128 109.866 341.331 110.303H341.416C341.626 109.881 341.94 109.545 342.359 109.296C342.778 109.044 343.28 108.918 343.866 108.918C344.598 108.918 345.196 109.147 345.661 109.605C346.127 110.06 346.359 110.768 346.359 111.731V117.207H345.102V111.731C345.102 111.127 344.937 110.696 344.607 110.436C344.276 110.177 343.888 110.047 343.44 110.047C342.865 110.047 342.419 110.221 342.103 110.569C341.787 110.914 341.629 111.351 341.629 111.88V117.207H340.351V111.603C340.351 111.138 340.2 110.763 339.898 110.479C339.596 110.191 339.207 110.047 338.731 110.047C338.405 110.047 338.099 110.134 337.815 110.308C337.535 110.482 337.307 110.724 337.133 111.033C336.963 111.338 336.878 111.692 336.878 112.093V117.207H335.621Z" fill="#767676"/>
<path d="M33.7534 147.761C33.6852 147.155 33.404 146.687 32.9097 146.354C32.4154 146.018 31.7932 145.849 31.0432 145.849C30.5063 145.849 30.0418 145.935 29.6497 146.105C29.2577 146.271 28.953 146.501 28.7357 146.795C28.5226 147.085 28.4161 147.415 28.4161 147.786C28.4161 148.097 28.4885 148.366 28.6334 148.592C28.7825 148.817 28.9764 149.007 29.2151 149.16C29.458 149.31 29.7179 149.435 29.9949 149.538C30.2719 149.636 30.5382 149.717 30.7939 149.78L32.0723 150.113C32.4899 150.215 32.9182 150.354 33.3571 150.528C33.796 150.703 34.203 150.933 34.578 151.219C34.953 151.504 35.2555 151.858 35.4857 152.28C35.72 152.702 35.8372 153.207 35.8372 153.795C35.8372 154.536 35.6455 155.195 35.2619 155.77C34.8827 156.345 34.3308 156.799 33.6064 157.131C32.8862 157.464 32.0148 157.63 30.9921 157.63C30.0119 157.63 29.1639 157.474 28.448 157.163C27.7321 156.852 27.1717 156.411 26.7669 155.84C26.3621 155.265 26.1384 154.583 26.0957 153.795H28.0773C28.1156 154.268 28.269 154.662 28.5375 154.977C28.8102 155.288 29.1575 155.521 29.5794 155.674C30.0055 155.823 30.4722 155.898 30.9793 155.898C31.5375 155.898 32.034 155.81 32.4686 155.636C32.9075 155.457 33.2527 155.209 33.5041 154.894C33.7555 154.575 33.8813 154.202 33.8813 153.776C33.8813 153.388 33.7705 153.07 33.5489 152.823C33.3315 152.576 33.0354 152.371 32.6604 152.209C32.2896 152.048 31.8699 151.905 31.4011 151.781L29.8543 151.359C28.806 151.074 27.975 150.654 27.3614 150.1C26.752 149.546 26.4473 148.813 26.4473 147.901C26.4473 147.147 26.6519 146.489 27.0609 145.926C27.47 145.364 28.024 144.927 28.7229 144.616C29.4217 144.3 30.2101 144.143 31.0879 144.143C31.9743 144.143 32.7563 144.298 33.4338 144.609C34.1156 144.92 34.6526 145.349 35.0446 145.894C35.4367 146.435 35.6412 147.057 35.6582 147.761H33.7534ZM39.8019 154.082L39.7891 151.749H40.1215L44.0334 147.594H46.3218L41.8601 152.325H41.5597L39.8019 154.082ZM38.0441 157.413V144.322H39.9553V157.413H38.0441ZM44.2444 157.413L40.7287 152.746L42.0455 151.41L46.5902 157.413H44.2444ZM49.3244 161.094C49.0389 161.094 48.779 161.071 48.5446 161.024C48.3102 160.981 48.1355 160.935 48.0205 160.883L48.4807 159.317C48.8301 159.411 49.1412 159.452 49.4139 159.439C49.6867 159.426 49.9274 159.324 50.1362 159.132C50.3493 158.94 50.5368 158.627 50.6987 158.192L50.9352 157.54L47.3429 147.594H49.3884L51.8749 155.214H51.9771L54.4636 147.594H56.5155L52.4693 158.723C52.2818 159.234 52.0432 159.667 51.7534 160.021C51.4636 160.379 51.1185 160.647 50.7179 160.826C50.3173 161.005 49.8528 161.094 49.3244 161.094ZM58.3117 161.094V147.594H60.1781V149.186H60.3379C60.4487 148.981 60.6085 148.745 60.8173 148.477C61.0261 148.208 61.3159 147.974 61.6867 147.773C62.0574 147.569 62.5475 147.467 63.1568 147.467C63.9494 147.467 64.6568 147.667 65.279 148.067C65.9011 148.468 66.3891 149.045 66.7428 149.8C67.1007 150.554 67.2797 151.462 67.2797 152.523C67.2797 153.584 67.1029 154.494 66.7492 155.252C66.3955 156.006 65.9097 156.588 65.2918 156.997C64.6739 157.402 63.9686 157.604 63.176 157.604C62.5794 157.604 62.0915 157.504 61.7122 157.304C61.3372 157.104 61.0432 156.869 60.8301 156.601C60.6171 156.332 60.453 156.094 60.3379 155.885H60.2229V161.094H58.3117ZM60.1845 152.504C60.1845 153.194 60.2847 153.799 60.485 154.319C60.6852 154.839 60.975 155.246 61.3543 155.54C61.7335 155.83 62.198 155.974 62.7477 155.974C63.3188 155.974 63.796 155.823 64.1796 155.521C64.5631 155.214 64.8529 154.798 65.0489 154.274C65.2492 153.75 65.3493 153.16 65.3493 152.504C65.3493 151.856 65.2513 151.274 65.0553 150.758C64.8635 150.243 64.5737 149.836 64.1859 149.538C63.8024 149.239 63.323 149.09 62.7477 149.09C62.1938 149.09 61.725 149.233 61.3415 149.518C60.9622 149.804 60.6746 150.202 60.4786 150.714C60.2825 151.225 60.1845 151.822 60.1845 152.504ZM73.6526 157.611C72.6852 157.611 71.8521 157.404 71.1533 156.991C70.4587 156.573 69.9217 155.987 69.5425 155.233C69.1675 154.474 68.98 153.586 68.98 152.567C68.98 151.562 69.1675 150.675 69.5425 149.908C69.9217 149.141 70.4502 148.543 71.1277 148.112C71.8095 147.682 72.6064 147.467 73.5183 147.467C74.0723 147.467 74.6092 147.558 75.1291 147.741C75.649 147.925 76.1156 148.212 76.529 148.604C76.9423 148.996 77.2683 149.506 77.507 150.132C77.7456 150.754 77.8649 151.511 77.8649 152.401V153.079H70.0602V151.647H75.9921C75.9921 151.144 75.8898 150.699 75.6852 150.311C75.4807 149.919 75.193 149.61 74.8223 149.384C74.4558 149.158 74.0254 149.045 73.5311 149.045C72.9942 149.045 72.5254 149.178 72.1249 149.442C71.7286 149.702 71.4217 150.043 71.2044 150.464C70.9913 150.882 70.8848 151.336 70.8848 151.826V152.945C70.8848 153.601 70.9999 154.159 71.23 154.619C71.4644 155.08 71.7903 155.431 72.208 155.674C72.6256 155.913 73.1135 156.032 73.6717 156.032C74.034 156.032 74.3642 155.981 74.6625 155.879C74.9608 155.772 75.2186 155.614 75.4359 155.405C75.6533 155.197 75.8195 154.939 75.9345 154.632L77.7435 154.958C77.5986 155.491 77.3386 155.957 76.9636 156.358C76.5929 156.754 76.1263 157.063 75.5638 157.285C75.0055 157.502 74.3685 157.611 73.6526 157.611ZM81.2447 157.534C80.8953 157.534 80.5949 157.41 80.3434 157.163C80.092 156.912 79.9663 156.609 79.9663 156.256C79.9663 155.906 80.092 155.608 80.3434 155.361C80.5949 155.109 80.8953 154.984 81.2447 154.984C81.5941 154.984 81.8946 155.109 82.146 155.361C82.3974 155.608 82.5231 155.906 82.5231 156.256C82.5231 156.49 82.4635 156.705 82.3441 156.901C82.2291 157.093 82.0757 157.246 81.8839 157.361C81.6922 157.477 81.4791 157.534 81.2447 157.534ZM81.2447 150.388C80.8953 150.388 80.5949 150.262 80.3434 150.011C80.092 149.759 79.9663 149.459 79.9663 149.109C79.9663 148.76 80.092 148.462 80.3434 148.214C80.5949 147.963 80.8953 147.837 81.2447 147.837C81.5941 147.837 81.8946 147.963 82.146 148.214C82.3974 148.462 82.5231 148.76 82.5231 149.109C82.5231 149.344 82.4635 149.559 82.3441 149.755C82.2291 149.947 82.0757 150.1 81.8839 150.215C81.6922 150.33 81.4791 150.388 81.2447 150.388Z" fill="#767676"/>
<path d="M237.826 158.284C236.739 158.284 235.778 158.134 234.944 157.836C234.109 157.541 233.408 157.106 232.84 156.531C232.272 155.956 231.842 155.251 231.551 154.416C231.26 153.582 231.114 152.627 231.114 151.551C231.114 150.51 231.261 149.58 231.556 148.759C231.854 147.939 232.286 147.243 232.85 146.671C233.419 146.096 234.108 145.658 234.917 145.356C235.73 145.054 236.65 144.903 237.676 144.903C238.674 144.903 239.548 145.066 240.297 145.393C241.05 145.716 241.679 146.155 242.183 146.709C242.691 147.259 243.071 147.879 243.323 148.568C243.578 149.257 243.706 149.967 243.706 150.698C243.706 151.213 243.681 151.735 243.632 152.264C243.582 152.794 243.477 153.28 243.317 153.724C243.158 154.164 242.911 154.519 242.577 154.789C242.247 155.059 241.799 155.194 241.235 155.194C240.986 155.194 240.713 155.155 240.414 155.077C240.116 154.999 239.852 154.869 239.621 154.688C239.39 154.507 239.253 154.264 239.211 153.958H239.147C239.061 154.164 238.93 154.36 238.752 154.544C238.578 154.729 238.349 154.876 238.065 154.986C237.785 155.097 237.442 155.144 237.037 155.13C236.576 155.112 236.169 155.009 235.817 154.821C235.466 154.63 235.171 154.37 234.933 154.044C234.699 153.713 234.521 153.332 234.401 152.898C234.283 152.462 234.225 151.991 234.225 151.487C234.225 151.007 234.296 150.569 234.438 150.171C234.58 149.773 234.777 149.425 235.029 149.127C235.285 148.829 235.583 148.591 235.924 148.413C236.268 148.232 236.64 148.12 237.037 148.078C237.392 148.042 237.716 148.058 238.007 148.126C238.298 148.19 238.538 148.287 238.726 148.419C238.914 148.546 239.033 148.688 239.083 148.845H239.147V148.248H240.276V153.063C240.276 153.362 240.359 153.625 240.526 153.852C240.693 154.079 240.936 154.193 241.256 154.193C241.618 154.193 241.895 154.068 242.087 153.82C242.282 153.571 242.415 153.188 242.486 152.669C242.561 152.151 242.598 151.487 242.598 150.677C242.598 150.201 242.533 149.733 242.401 149.271C242.273 148.806 242.078 148.371 241.815 147.966C241.556 147.561 241.228 147.204 240.83 146.895C240.432 146.586 239.965 146.345 239.429 146.171C238.896 145.993 238.291 145.904 237.613 145.904C236.778 145.904 236.03 146.034 235.37 146.293C234.713 146.549 234.154 146.924 233.692 147.417C233.234 147.907 232.884 148.504 232.643 149.207C232.405 149.907 232.286 150.702 232.286 151.593C232.286 152.499 232.405 153.303 232.643 154.006C232.884 154.709 233.239 155.302 233.708 155.785C234.18 156.268 234.765 156.634 235.461 156.883C236.157 157.135 236.959 157.261 237.868 157.261C238.259 157.261 238.644 157.224 239.024 157.149C239.404 157.074 239.74 156.993 240.031 156.904C240.322 156.815 240.532 156.75 240.659 156.707L240.958 157.687C240.738 157.779 240.45 157.872 240.095 157.964C239.743 158.056 239.367 158.133 238.966 158.193C238.568 158.253 238.188 158.284 237.826 158.284ZM237.208 154.044C237.684 154.044 238.069 153.948 238.364 153.756C238.658 153.564 238.873 153.275 239.008 152.888C239.143 152.501 239.211 152.012 239.211 151.423C239.211 150.826 239.136 150.361 238.987 150.027C238.838 149.693 238.618 149.459 238.326 149.324C238.035 149.189 237.676 149.122 237.25 149.122C236.845 149.122 236.499 149.228 236.212 149.441C235.928 149.651 235.709 149.931 235.556 150.283C235.407 150.631 235.333 151.011 235.333 151.423C235.333 151.877 235.393 152.305 235.514 152.707C235.635 153.104 235.832 153.427 236.105 153.676C236.379 153.921 236.746 154.044 237.208 154.044ZM244.821 144.498H246.334L249.359 149.59H249.487L252.513 144.498H254.025L250.084 150.911V155.407H248.763V150.911L244.821 144.498ZM258.887 155.578C258.149 155.578 257.501 155.402 256.943 155.05C256.389 154.699 255.956 154.207 255.643 153.575C255.334 152.943 255.18 152.204 255.18 151.359C255.18 150.507 255.334 149.763 255.643 149.127C255.956 148.491 256.389 147.998 256.943 147.646C257.501 147.295 258.149 147.119 258.887 147.119C259.626 147.119 260.272 147.295 260.826 147.646C261.384 147.998 261.817 148.491 262.126 149.127C262.439 149.763 262.595 150.507 262.595 151.359C262.595 152.204 262.439 152.943 262.126 153.575C261.817 154.207 261.384 154.699 260.826 155.05C260.272 155.402 259.626 155.578 258.887 155.578ZM258.887 154.448C259.448 154.448 259.91 154.305 260.272 154.017C260.635 153.729 260.903 153.351 261.077 152.882C261.251 152.414 261.338 151.906 261.338 151.359C261.338 150.812 261.251 150.302 261.077 149.83C260.903 149.358 260.635 148.976 260.272 148.685C259.91 148.394 259.448 148.248 258.887 148.248C258.326 148.248 257.865 148.394 257.502 148.685C257.14 148.976 256.872 149.358 256.698 149.83C256.524 150.302 256.437 150.812 256.437 151.359C256.437 151.906 256.524 152.414 256.698 152.882C256.872 153.351 257.14 153.729 257.502 154.017C257.865 154.305 258.326 154.448 258.887 154.448ZM269.67 152.062V147.225H270.927V155.407H269.67V154.022H269.585C269.393 154.438 269.095 154.791 268.69 155.082C268.285 155.37 267.774 155.514 267.156 155.514C266.644 155.514 266.19 155.402 265.792 155.178C265.394 154.951 265.082 154.61 264.855 154.155C264.627 153.697 264.514 153.12 264.514 152.424V147.225H265.771V152.339C265.771 152.936 265.938 153.411 266.272 153.767C266.609 154.122 267.039 154.299 267.561 154.299C267.873 154.299 268.191 154.219 268.514 154.06C268.841 153.9 269.114 153.655 269.334 153.324C269.558 152.994 269.67 152.573 269.67 152.062ZM273.23 155.407V147.225H274.444V148.461H274.529C274.678 148.056 274.948 147.728 275.339 147.476C275.73 147.224 276.17 147.098 276.66 147.098C276.752 147.098 276.868 147.099 277.006 147.103C277.145 147.106 277.249 147.112 277.32 147.119V148.397C277.278 148.387 277.18 148.371 277.027 148.349C276.878 148.324 276.72 148.312 276.553 148.312C276.156 148.312 275.801 148.396 275.488 148.562C275.179 148.726 274.934 148.953 274.753 149.244C274.575 149.532 274.487 149.86 274.487 150.23V155.407H273.23ZM283.967 152.062V147.225H285.224V155.407H283.967V154.022H283.882C283.69 154.438 283.392 154.791 282.987 155.082C282.582 155.37 282.071 155.514 281.453 155.514C280.941 155.514 280.487 155.402 280.089 155.178C279.691 154.951 279.379 154.61 279.152 154.155C278.924 153.697 278.811 153.12 278.811 152.424V147.225H280.068V152.339C280.068 152.936 280.235 153.411 280.568 153.767C280.906 154.122 281.335 154.299 281.857 154.299C282.17 154.299 282.488 154.219 282.811 154.06C283.138 153.9 283.411 153.655 283.631 153.324C283.855 152.994 283.967 152.573 283.967 152.062ZM293.322 149.058L292.193 149.377C292.122 149.189 292.017 149.006 291.878 148.829C291.743 148.648 291.559 148.498 291.324 148.381C291.09 148.264 290.79 148.206 290.424 148.206C289.923 148.206 289.506 148.321 289.172 148.552C288.842 148.779 288.677 149.068 288.677 149.42C288.677 149.733 288.791 149.979 289.018 150.16C289.245 150.342 289.6 150.492 290.083 150.613L291.298 150.911C292.029 151.089 292.574 151.361 292.933 151.726C293.292 152.089 293.471 152.556 293.471 153.127C293.471 153.596 293.336 154.015 293.066 154.384C292.8 154.754 292.427 155.045 291.948 155.258C291.468 155.471 290.911 155.578 290.275 155.578C289.44 155.578 288.75 155.397 288.203 155.034C287.656 154.672 287.31 154.143 287.164 153.447L288.357 153.149C288.471 153.589 288.686 153.919 289.002 154.139C289.322 154.36 289.739 154.47 290.254 154.47C290.84 154.47 291.305 154.345 291.649 154.097C291.997 153.845 292.171 153.543 292.171 153.191C292.171 152.907 292.072 152.669 291.873 152.478C291.674 152.282 291.369 152.137 290.957 152.041L289.593 151.721C288.844 151.544 288.293 151.268 287.942 150.896C287.594 150.519 287.42 150.049 287.42 149.484C287.42 149.022 287.549 148.614 287.809 148.259C288.072 147.904 288.428 147.625 288.879 147.422C289.334 147.22 289.849 147.119 290.424 147.119C291.234 147.119 291.869 147.296 292.331 147.652C292.796 148.007 293.127 148.475 293.322 149.058ZM298.794 155.578C298.005 155.578 297.325 155.404 296.754 155.056C296.185 154.704 295.747 154.214 295.438 153.585C295.133 152.953 294.98 152.218 294.98 151.38C294.98 150.542 295.133 149.804 295.438 149.164C295.747 148.522 296.177 148.021 296.727 147.662C297.281 147.3 297.927 147.119 298.666 147.119C299.092 147.119 299.513 147.19 299.928 147.332C300.344 147.474 300.722 147.705 301.063 148.024C301.404 148.34 301.675 148.759 301.878 149.282C302.08 149.804 302.182 150.446 302.182 151.21V151.742H295.875V150.656H300.903C300.903 150.194 300.811 149.782 300.626 149.42C300.445 149.058 300.186 148.772 299.848 148.562C299.515 148.353 299.12 148.248 298.666 148.248C298.165 148.248 297.732 148.372 297.366 148.621C297.004 148.866 296.725 149.186 296.53 149.58C296.335 149.974 296.237 150.397 296.237 150.848V151.572C296.237 152.19 296.343 152.714 296.557 153.143C296.773 153.57 297.073 153.894 297.457 154.118C297.84 154.338 298.286 154.448 298.794 154.448C299.124 154.448 299.422 154.402 299.689 154.31C299.958 154.214 300.191 154.072 300.386 153.884C300.582 153.692 300.733 153.454 300.839 153.17L302.054 153.511C301.926 153.923 301.711 154.285 301.409 154.598C301.107 154.907 300.734 155.148 300.291 155.322C299.847 155.492 299.348 155.578 298.794 155.578ZM304.094 155.407V147.225H305.308V148.461H305.394C305.543 148.056 305.813 147.728 306.203 147.476C306.594 147.224 307.034 147.098 307.524 147.098C307.617 147.098 307.732 147.099 307.87 147.103C308.009 147.106 308.114 147.112 308.185 147.119V148.397C308.142 148.387 308.044 148.371 307.892 148.349C307.743 148.324 307.585 148.312 307.418 148.312C307.02 148.312 306.665 148.396 306.352 148.562C306.043 148.726 305.798 148.953 305.617 149.244C305.44 149.532 305.351 149.86 305.351 150.23V155.407H304.094ZM310.932 150.485V155.407H309.675V147.225H310.889V148.504H310.996C311.188 148.088 311.479 147.755 311.869 147.502C312.26 147.247 312.764 147.119 313.382 147.119C313.936 147.119 314.421 147.233 314.836 147.46C315.252 147.684 315.575 148.024 315.806 148.483C316.037 148.937 316.152 149.512 316.152 150.208V155.407H314.895V150.294C314.895 149.651 314.728 149.15 314.394 148.791C314.061 148.429 313.602 148.248 313.02 148.248C312.619 148.248 312.26 148.335 311.944 148.509C311.632 148.683 311.385 148.937 311.204 149.271C311.023 149.605 310.932 150.009 310.932 150.485ZM320.857 155.599C320.338 155.599 319.868 155.501 319.445 155.306C319.023 155.107 318.687 154.821 318.439 154.448C318.19 154.072 318.066 153.617 318.066 153.085C318.066 152.616 318.158 152.236 318.343 151.945C318.527 151.65 318.774 151.419 319.083 151.252C319.392 151.085 319.733 150.961 320.106 150.88C320.482 150.794 320.86 150.727 321.24 150.677C321.738 150.613 322.141 150.565 322.45 150.533C322.762 150.498 322.989 150.439 323.131 150.358C323.277 150.276 323.35 150.134 323.35 149.931V149.889C323.35 149.363 323.206 148.955 322.918 148.664C322.634 148.372 322.203 148.227 321.624 148.227C321.024 148.227 320.553 148.358 320.212 148.621C319.871 148.884 319.632 149.164 319.493 149.463L318.3 149.036C318.513 148.539 318.797 148.152 319.152 147.875C319.511 147.595 319.902 147.399 320.324 147.289C320.75 147.176 321.169 147.119 321.581 147.119C321.844 147.119 322.146 147.151 322.487 147.215C322.831 147.275 323.163 147.401 323.483 147.593C323.806 147.785 324.074 148.074 324.287 148.461C324.5 148.848 324.607 149.367 324.607 150.017V155.407H323.35V154.299H323.286C323.201 154.477 323.059 154.667 322.86 154.869C322.661 155.072 322.396 155.244 322.066 155.386C321.736 155.528 321.333 155.599 320.857 155.599ZM321.049 154.47C321.546 154.47 321.965 154.372 322.306 154.177C322.65 153.981 322.909 153.729 323.083 153.42C323.261 153.111 323.35 152.786 323.35 152.446V151.295C323.297 151.359 323.179 151.418 322.998 151.471C322.821 151.521 322.615 151.565 322.38 151.604C322.15 151.639 321.924 151.671 321.704 151.7C321.487 151.725 321.311 151.746 321.177 151.764C320.85 151.806 320.544 151.876 320.26 151.972C319.98 152.064 319.753 152.204 319.579 152.392C319.408 152.577 319.323 152.829 319.323 153.149C319.323 153.585 319.484 153.916 319.808 154.139C320.134 154.36 320.548 154.47 321.049 154.47ZM326.901 155.407V147.225H328.116V148.504H328.222C328.393 148.067 328.668 147.728 329.048 147.486C329.428 147.241 329.884 147.119 330.417 147.119C330.957 147.119 331.406 147.241 331.765 147.486C332.127 147.728 332.409 148.067 332.612 148.504H332.697C332.906 148.081 333.221 147.746 333.64 147.497C334.059 147.245 334.561 147.119 335.147 147.119C335.879 147.119 336.477 147.348 336.942 147.806C337.407 148.261 337.64 148.969 337.64 149.931V155.407H336.383V149.931C336.383 149.328 336.218 148.896 335.888 148.637C335.557 148.378 335.168 148.248 334.721 148.248C334.146 148.248 333.7 148.422 333.384 148.77C333.068 149.115 332.91 149.551 332.91 150.081V155.407H331.632V149.804C331.632 149.338 331.481 148.964 331.179 148.68C330.877 148.392 330.488 148.248 330.012 148.248C329.686 148.248 329.38 148.335 329.096 148.509C328.815 148.683 328.588 148.925 328.414 149.234C328.244 149.539 328.159 149.892 328.159 150.294V155.407H326.901ZM343.369 155.578C342.581 155.578 341.901 155.404 341.329 155.056C340.761 154.704 340.322 154.214 340.013 153.585C339.708 152.953 339.555 152.218 339.555 151.38C339.555 150.542 339.708 149.804 340.013 149.164C340.322 148.522 340.752 148.021 341.302 147.662C341.856 147.3 342.502 147.119 343.241 147.119C343.667 147.119 344.088 147.19 344.504 147.332C344.919 147.474 345.297 147.705 345.638 148.024C345.979 148.34 346.251 148.759 346.453 149.282C346.655 149.804 346.757 150.446 346.757 151.21V151.742H340.45V150.656H345.478C345.478 150.194 345.386 149.782 345.201 149.42C345.02 149.058 344.761 148.772 344.424 148.562C344.09 148.353 343.696 148.248 343.241 148.248C342.74 148.248 342.307 148.372 341.941 148.621C341.579 148.866 341.3 149.186 341.105 149.58C340.91 149.974 340.812 150.397 340.812 150.848V151.572C340.812 152.19 340.919 152.714 341.132 153.143C341.348 153.57 341.648 153.894 342.032 154.118C342.415 154.338 342.861 154.448 343.369 154.448C343.699 154.448 343.997 154.402 344.264 154.31C344.534 154.214 344.766 154.072 344.962 153.884C345.157 153.692 345.308 153.454 345.414 153.17L346.629 153.511C346.501 153.923 346.286 154.285 345.984 154.598C345.682 154.907 345.31 155.148 344.866 155.322C344.422 155.492 343.923 155.578 343.369 155.578Z" fill="#767676"/>
<path d="M25.9679 184.223V182.523H36.0993V184.223H32.0148V195.614H30.046V184.223H25.9679ZM40.9924 195.812C40.0251 195.812 39.192 195.605 38.4931 195.192C37.7985 194.774 37.2616 194.188 36.8823 193.434C36.5073 192.676 36.3198 191.787 36.3198 190.769C36.3198 189.763 36.5073 188.877 36.8823 188.11C37.2616 187.342 37.79 186.744 38.4676 186.313C39.1494 185.883 39.9462 185.668 40.8582 185.668C41.4122 185.668 41.9491 185.759 42.469 185.943C42.9889 186.126 43.4555 186.413 43.8688 186.806C44.2822 187.198 44.6082 187.707 44.8468 188.333C45.0854 188.955 45.2048 189.712 45.2048 190.602V191.28H37.4001V189.848H43.3319C43.3319 189.345 43.2296 188.9 43.0251 188.512C42.8205 188.12 42.5329 187.811 42.1622 187.585C41.7957 187.36 41.3653 187.247 40.871 187.247C40.334 187.247 39.8653 187.379 39.4647 187.643C39.0684 187.903 38.7616 188.244 38.5443 188.666C38.3312 189.083 38.2247 189.537 38.2247 190.027V191.146C38.2247 191.802 38.3397 192.36 38.5698 192.82C38.8042 193.281 39.1302 193.632 39.5478 193.875C39.9654 194.114 40.4533 194.233 41.0116 194.233C41.3738 194.233 41.7041 194.182 42.0024 194.08C42.3006 193.973 42.5585 193.815 42.7758 193.607C42.9931 193.398 43.1593 193.14 43.2744 192.833L45.0833 193.159C44.9384 193.692 44.6785 194.159 44.3035 194.559C43.9328 194.955 43.4661 195.264 42.9036 195.486C42.3454 195.703 41.7083 195.812 40.9924 195.812ZM49.2366 182.523V195.614H47.3253V182.523H49.2366ZM56.0393 195.812C55.072 195.812 54.2389 195.605 53.54 195.192C52.8454 194.774 52.3085 194.188 51.9292 193.434C51.5542 192.676 51.3667 191.787 51.3667 190.769C51.3667 189.763 51.5542 188.877 51.9292 188.11C52.3085 187.342 52.8369 186.744 53.5144 186.313C54.1962 185.883 54.9931 185.668 55.9051 185.668C56.459 185.668 56.996 185.759 57.5158 185.943C58.0357 186.126 58.5024 186.413 58.9157 186.806C59.3291 187.198 59.6551 187.707 59.8937 188.333C60.1323 188.955 60.2516 189.712 60.2516 190.602V191.28H52.447V189.848H58.3788C58.3788 189.345 58.2765 188.9 58.072 188.512C57.8674 188.12 57.5798 187.811 57.209 187.585C56.8426 187.36 56.4122 187.247 55.9178 187.247C55.3809 187.247 54.9122 187.379 54.5116 187.643C54.1153 187.903 53.8085 188.244 53.5911 188.666C53.3781 189.083 53.2715 189.537 53.2715 190.027V191.146C53.2715 191.802 53.3866 192.36 53.6167 192.82C53.8511 193.281 54.1771 193.632 54.5947 193.875C55.0123 194.114 55.5002 194.233 56.0585 194.233C56.4207 194.233 56.7509 194.182 57.0492 194.08C57.3475 193.973 57.6053 193.815 57.8227 193.607C58.04 193.398 58.2062 193.14 58.3212 192.833L60.1302 193.159C59.9853 193.692 59.7254 194.159 59.3504 194.559C58.9796 194.955 58.513 195.264 57.9505 195.486C57.3923 195.703 56.7552 195.812 56.0393 195.812ZM66.4887 199.5C65.7089 199.5 65.0377 199.398 64.4752 199.193C63.9169 198.989 63.461 198.718 63.1073 198.382C62.7536 198.045 62.4894 197.676 62.3147 197.276L63.9574 196.598C64.0725 196.786 64.2259 196.984 64.4177 197.193C64.6137 197.406 64.8779 197.587 65.2103 197.736C65.5469 197.885 65.9794 197.96 66.5079 197.96C67.2323 197.96 67.831 197.783 68.304 197.429C68.777 197.08 69.0135 196.521 69.0135 195.754V193.824H68.8921C68.777 194.033 68.6108 194.265 68.3935 194.521C68.1804 194.776 67.8864 194.998 67.5114 195.186C67.1364 195.373 66.6485 195.467 66.0476 195.467C65.2721 195.467 64.5732 195.286 63.951 194.923C63.3331 194.557 62.8431 194.018 62.4809 193.306C62.1229 192.59 61.9439 191.71 61.9439 190.666C61.9439 189.622 62.1208 188.727 62.4745 187.982C62.8324 187.236 63.3225 186.665 63.9446 186.269C64.5668 185.868 65.2721 185.668 66.0604 185.668C66.6698 185.668 67.162 185.77 67.537 185.975C67.912 186.175 68.2039 186.409 68.4127 186.678C68.6258 186.946 68.7898 187.183 68.9049 187.387H69.0455V185.796H70.9184V195.831C70.9184 196.675 70.7223 197.367 70.3303 197.909C69.9383 198.45 69.4077 198.85 68.7387 199.11C68.0739 199.37 67.3239 199.5 66.4887 199.5ZM66.4695 193.882C67.0192 193.882 67.4837 193.754 67.863 193.498C68.2465 193.238 68.5363 192.867 68.7323 192.386C68.9326 191.9 69.0327 191.318 69.0327 190.641C69.0327 189.98 68.9347 189.399 68.7387 188.896C68.5427 188.393 68.255 188.001 67.8758 187.72C67.4965 187.434 67.0277 187.291 66.4695 187.291C65.8942 187.291 65.4148 187.44 65.0313 187.739C64.6478 188.033 64.358 188.433 64.162 188.94C63.9702 189.448 63.8743 190.014 63.8743 190.641C63.8743 191.284 63.9723 191.849 64.1684 192.335C64.3644 192.82 64.6542 193.2 65.0377 193.472C65.4255 193.745 65.9027 193.882 66.4695 193.882ZM73.4816 195.614V185.796H75.3289V187.355H75.4312C75.6101 186.827 75.9255 186.411 76.3772 186.109C76.8331 185.802 77.3488 185.649 77.924 185.649C78.0434 185.649 78.184 185.653 78.3459 185.661C78.5121 185.67 78.6421 185.681 78.7358 185.693V187.521C78.6591 187.5 78.5228 187.477 78.3267 187.451C78.1307 187.421 77.9347 187.406 77.7387 187.406C77.287 187.406 76.8843 187.502 76.5306 187.694C76.1812 187.882 75.9042 188.144 75.6996 188.48C75.4951 188.813 75.3928 189.192 75.3928 189.618V195.614H73.4816ZM83.1591 195.831C82.537 195.831 81.9745 195.716 81.4716 195.486C80.9688 195.252 80.5704 194.913 80.2763 194.47C79.9866 194.026 79.8417 193.483 79.8417 192.84C79.8417 192.286 79.9482 191.83 80.1613 191.472C80.3743 191.114 80.662 190.83 81.0242 190.622C81.3864 190.413 81.7912 190.255 82.2387 190.149C82.6861 190.042 83.1421 189.961 83.6066 189.906C84.1946 189.837 84.6719 189.782 85.0384 189.739C85.4049 189.693 85.6712 189.618 85.8374 189.516C86.0036 189.413 86.0867 189.247 86.0867 189.017V188.972C86.0867 188.414 85.929 187.982 85.6137 187.675C85.3026 187.368 84.8381 187.215 84.2202 187.215C83.5767 187.215 83.0696 187.357 82.6989 187.643C82.3324 187.924 82.0789 188.237 81.9383 188.583L80.1421 188.173C80.3552 187.577 80.6662 187.095 81.0753 186.729C81.4887 186.358 81.9638 186.09 82.5008 185.923C83.0377 185.753 83.6023 185.668 84.1946 185.668C84.5867 185.668 85.0022 185.715 85.4411 185.808C85.8843 185.898 86.2976 186.064 86.6812 186.307C87.0689 186.55 87.3864 186.897 87.6336 187.349C87.8807 187.796 88.0043 188.378 88.0043 189.094V195.614H86.1378V194.271H86.0611C85.9375 194.519 85.7522 194.761 85.505 195C85.2579 195.239 84.9404 195.437 84.5526 195.595C84.1648 195.752 83.7003 195.831 83.1591 195.831ZM83.5746 194.297C84.103 194.297 84.5547 194.193 84.9297 193.984C85.309 193.775 85.5966 193.502 85.7927 193.166C85.9929 192.825 86.0931 192.46 86.0931 192.073V190.807C86.0249 190.875 85.8928 190.939 85.6968 190.999C85.505 191.054 85.2856 191.103 85.0384 191.146C84.7912 191.184 84.5505 191.22 84.3161 191.254C84.0817 191.284 83.8857 191.31 83.728 191.331C83.3573 191.378 83.0185 191.457 82.7117 191.568C82.4091 191.678 82.1662 191.838 81.983 192.047C81.804 192.252 81.7145 192.524 81.7145 192.865C81.7145 193.338 81.8892 193.696 82.2387 193.939C82.5881 194.178 83.0334 194.297 83.5746 194.297ZM90.5499 195.614V185.796H92.3845V187.394H92.5059C92.7104 186.852 93.045 186.431 93.5095 186.128C93.9739 185.821 94.5301 185.668 95.1778 185.668C95.834 185.668 96.3837 185.821 96.8269 186.128C97.2744 186.435 97.6046 186.857 97.8177 187.394H97.92C98.1543 186.869 98.5272 186.452 99.0386 186.141C99.5499 185.825 100.159 185.668 100.867 185.668C101.757 185.668 102.484 185.947 103.046 186.505C103.613 187.063 103.897 187.905 103.897 189.03V195.614H101.985V189.209C101.985 188.544 101.804 188.063 101.442 187.764C101.08 187.466 100.647 187.317 100.144 187.317C99.5222 187.317 99.0386 187.509 98.6934 187.892C98.3482 188.271 98.1756 188.759 98.1756 189.356V195.614H96.2708V189.087C96.2708 188.555 96.1046 188.127 95.7722 187.803C95.4399 187.479 95.0073 187.317 94.4747 187.317C94.1124 187.317 93.7779 187.413 93.4711 187.605C93.1685 187.792 92.9235 188.054 92.736 188.391C92.5528 188.727 92.4612 189.117 92.4612 189.561V195.614H90.5499ZM107.717 195.735C107.368 195.735 107.068 195.612 106.816 195.364C106.565 195.113 106.439 194.811 106.439 194.457C106.439 194.107 106.565 193.809 106.816 193.562C107.068 193.311 107.368 193.185 107.717 193.185C108.067 193.185 108.367 193.311 108.619 193.562C108.87 193.809 108.996 194.107 108.996 194.457C108.996 194.691 108.936 194.906 108.817 195.102C108.702 195.294 108.548 195.448 108.357 195.563C108.165 195.678 107.952 195.735 107.717 195.735ZM107.717 188.589C107.368 188.589 107.068 188.463 106.816 188.212C106.565 187.96 106.439 187.66 106.439 187.311C106.439 186.961 106.565 186.663 106.816 186.416C107.068 186.164 107.368 186.038 107.717 186.038C108.067 186.038 108.367 186.164 108.619 186.416C108.87 186.663 108.996 186.961 108.996 187.311C108.996 187.545 108.936 187.76 108.817 187.956C108.702 188.148 108.548 188.301 108.357 188.416C108.165 188.531 107.952 188.589 107.717 188.589Z" fill="#767676"/>
<path d="M237.826 196.485C236.739 196.485 235.778 196.336 234.944 196.037C234.109 195.743 233.408 195.308 232.84 194.732C232.272 194.157 231.842 193.452 231.551 192.618C231.26 191.783 231.114 190.828 231.114 189.752C231.114 188.711 231.261 187.781 231.556 186.961C231.854 186.14 232.286 185.444 232.85 184.873C233.419 184.297 234.108 183.859 234.917 183.557C235.73 183.255 236.65 183.104 237.676 183.104C238.674 183.104 239.548 183.267 240.297 183.594C241.05 183.917 241.679 184.356 242.183 184.91C242.691 185.46 243.071 186.08 243.323 186.769C243.578 187.458 243.706 188.168 243.706 188.9C243.706 189.415 243.681 189.937 243.632 190.466C243.582 190.995 243.477 191.481 243.317 191.925C243.158 192.366 242.911 192.721 242.577 192.991C242.247 193.26 241.799 193.395 241.235 193.395C240.986 193.395 240.713 193.356 240.414 193.278C240.116 193.2 239.852 193.07 239.621 192.889C239.39 192.708 239.253 192.465 239.211 192.16H239.147C239.061 192.366 238.93 192.561 238.752 192.745C238.578 192.93 238.349 193.078 238.065 193.188C237.785 193.298 237.442 193.346 237.037 193.331C236.576 193.314 236.169 193.211 235.817 193.022C235.466 192.831 235.171 192.571 234.933 192.245C234.699 191.915 234.521 191.533 234.401 191.1C234.283 190.663 234.225 190.192 234.225 189.688C234.225 189.209 234.296 188.77 234.438 188.372C234.58 187.975 234.777 187.627 235.029 187.328C235.285 187.03 235.583 186.792 235.924 186.614C236.268 186.433 236.64 186.321 237.037 186.279C237.392 186.243 237.716 186.259 238.007 186.327C238.298 186.391 238.538 186.488 238.726 186.62C238.914 186.748 239.033 186.89 239.083 187.046H239.147V186.449H240.276V191.265C240.276 191.563 240.359 191.826 240.526 192.053C240.693 192.28 240.936 192.394 241.256 192.394C241.618 192.394 241.895 192.27 242.087 192.021C242.282 191.772 242.415 191.389 242.486 190.87C242.561 190.352 242.598 189.688 242.598 188.878C242.598 188.402 242.533 187.934 242.401 187.472C242.273 187.007 242.078 186.572 241.815 186.167C241.556 185.762 241.228 185.405 240.83 185.096C240.432 184.787 239.965 184.546 239.429 184.372C238.896 184.194 238.291 184.106 237.613 184.106C236.778 184.106 236.03 184.235 235.37 184.494C234.713 184.75 234.154 185.125 233.692 185.618C233.234 186.108 232.884 186.705 232.643 187.408C232.405 188.108 232.286 188.903 232.286 189.794C232.286 190.7 232.405 191.504 232.643 192.207C232.884 192.911 233.239 193.504 233.708 193.987C234.18 194.47 234.765 194.835 235.461 195.084C236.157 195.336 236.959 195.462 237.868 195.462C238.259 195.462 238.644 195.425 239.024 195.35C239.404 195.276 239.74 195.194 240.031 195.105C240.322 195.016 240.532 194.951 240.659 194.908L240.958 195.888C240.738 195.981 240.45 196.073 240.095 196.165C239.743 196.258 239.367 196.334 238.966 196.394C238.568 196.455 238.188 196.485 237.826 196.485ZM237.208 192.245C237.684 192.245 238.069 192.149 238.364 191.957C238.658 191.765 238.873 191.476 239.008 191.089C239.143 190.702 239.211 190.214 239.211 189.624C239.211 189.027 239.136 188.562 238.987 188.228C238.838 187.895 238.618 187.66 238.326 187.525C238.035 187.39 237.676 187.323 237.25 187.323C236.845 187.323 236.499 187.429 236.212 187.642C235.928 187.852 235.709 188.133 235.556 188.484C235.407 188.832 235.333 189.212 235.333 189.624C235.333 190.079 235.393 190.506 235.514 190.908C235.635 191.305 235.832 191.629 236.105 191.877C236.379 192.122 236.746 192.245 237.208 192.245ZM244.821 182.699H246.334L249.359 187.792H249.487L252.513 182.699H254.025L250.084 189.113V193.608H248.763V189.113L244.821 182.699ZM258.887 193.779C258.149 193.779 257.501 193.603 256.943 193.252C256.389 192.9 255.956 192.408 255.643 191.776C255.334 191.144 255.18 190.405 255.18 189.56C255.18 188.708 255.334 187.964 255.643 187.328C255.956 186.693 256.389 186.199 256.943 185.847C257.501 185.496 258.149 185.32 258.887 185.32C259.626 185.32 260.272 185.496 260.826 185.847C261.384 186.199 261.817 186.693 262.126 187.328C262.439 187.964 262.595 188.708 262.595 189.56C262.595 190.405 262.439 191.144 262.126 191.776C261.817 192.408 261.384 192.9 260.826 193.252C260.272 193.603 259.626 193.779 258.887 193.779ZM258.887 192.65C259.448 192.65 259.91 192.506 260.272 192.218C260.635 191.93 260.903 191.552 261.077 191.084C261.251 190.615 261.338 190.107 261.338 189.56C261.338 189.013 261.251 188.504 261.077 188.031C260.903 187.559 260.635 187.177 260.272 186.886C259.91 186.595 259.448 186.449 258.887 186.449C258.326 186.449 257.865 186.595 257.502 186.886C257.14 187.177 256.872 187.559 256.698 188.031C256.524 188.504 256.437 189.013 256.437 189.56C256.437 190.107 256.524 190.615 256.698 191.084C256.872 191.552 257.14 191.93 257.502 192.218C257.865 192.506 258.326 192.65 258.887 192.65ZM269.67 190.263V185.427H270.927V193.608H269.67V192.223H269.585C269.393 192.639 269.095 192.992 268.69 193.283C268.285 193.571 267.774 193.715 267.156 193.715C266.644 193.715 266.19 193.603 265.792 193.379C265.394 193.152 265.082 192.811 264.855 192.357C264.627 191.899 264.514 191.321 264.514 190.625V185.427H265.771V190.54C265.771 191.137 265.938 191.613 266.272 191.968C266.609 192.323 267.039 192.5 267.561 192.5C267.873 192.5 268.191 192.421 268.514 192.261C268.841 192.101 269.114 191.856 269.334 191.526C269.558 191.195 269.67 190.775 269.67 190.263ZM273.23 193.608V185.427H274.444V186.662H274.529C274.678 186.258 274.948 185.929 275.339 185.677C275.73 185.425 276.17 185.299 276.66 185.299C276.752 185.299 276.868 185.301 277.006 185.304C277.145 185.308 277.249 185.313 277.32 185.32V186.598C277.278 186.588 277.18 186.572 277.027 186.551C276.878 186.526 276.72 186.513 276.553 186.513C276.156 186.513 275.801 186.597 275.488 186.764C275.179 186.927 274.934 187.154 274.753 187.445C274.575 187.733 274.487 188.062 274.487 188.431V193.608H273.23ZM283.967 190.263V185.427H285.224V193.608H283.967V192.223H283.882C283.69 192.639 283.392 192.992 282.987 193.283C282.582 193.571 282.071 193.715 281.453 193.715C280.941 193.715 280.487 193.603 280.089 193.379C279.691 193.152 279.379 192.811 279.152 192.357C278.924 191.899 278.811 191.321 278.811 190.625V185.427H280.068V190.54C280.068 191.137 280.235 191.613 280.568 191.968C280.906 192.323 281.335 192.5 281.857 192.5C282.17 192.5 282.488 192.421 282.811 192.261C283.138 192.101 283.411 191.856 283.631 191.526C283.855 191.195 283.967 190.775 283.967 190.263ZM293.322 187.259L292.193 187.579C292.122 187.39 292.017 187.207 291.878 187.03C291.743 186.849 291.559 186.7 291.324 186.582C291.09 186.465 290.79 186.407 290.424 186.407C289.923 186.407 289.506 186.522 289.172 186.753C288.842 186.98 288.677 187.27 288.677 187.621C288.677 187.934 288.791 188.18 289.018 188.362C289.245 188.543 289.6 188.694 290.083 188.814L291.298 189.113C292.029 189.29 292.574 189.562 292.933 189.928C293.292 190.29 293.471 190.757 293.471 191.329C293.471 191.797 293.336 192.216 293.066 192.586C292.8 192.955 292.427 193.246 291.948 193.459C291.468 193.672 290.911 193.779 290.275 193.779C289.44 193.779 288.75 193.598 288.203 193.236C287.656 192.873 287.31 192.344 287.164 191.648L288.357 191.35C288.471 191.79 288.686 192.12 289.002 192.341C289.322 192.561 289.739 192.671 290.254 192.671C290.84 192.671 291.305 192.547 291.649 192.298C291.997 192.046 292.171 191.744 292.171 191.392C292.171 191.108 292.072 190.87 291.873 190.679C291.674 190.483 291.369 190.338 290.957 190.242L289.593 189.922C288.844 189.745 288.293 189.47 287.942 189.097C287.594 188.72 287.42 188.25 287.42 187.685C287.42 187.223 287.549 186.815 287.809 186.46C288.072 186.105 288.428 185.826 288.879 185.624C289.334 185.421 289.849 185.32 290.424 185.32C291.234 185.32 291.869 185.498 292.331 185.853C292.796 186.208 293.127 186.677 293.322 187.259ZM298.794 193.779C298.005 193.779 297.325 193.605 296.754 193.257C296.185 192.905 295.747 192.415 295.438 191.787C295.133 191.155 294.98 190.419 294.98 189.581C294.98 188.743 295.133 188.005 295.438 187.366C295.747 186.723 296.177 186.222 296.727 185.863C297.281 185.501 297.927 185.32 298.666 185.32C299.092 185.32 299.513 185.391 299.928 185.533C300.344 185.675 300.722 185.906 301.063 186.226C301.404 186.542 301.675 186.961 301.878 187.483C302.08 188.005 302.182 188.647 302.182 189.411V189.944H295.875V188.857H300.903C300.903 188.395 300.811 187.983 300.626 187.621C300.445 187.259 300.186 186.973 299.848 186.764C299.515 186.554 299.12 186.449 298.666 186.449C298.165 186.449 297.732 186.574 297.366 186.822C297.004 187.067 296.725 187.387 296.53 187.781C296.335 188.175 296.237 188.598 296.237 189.049V189.773C296.237 190.391 296.343 190.915 296.557 191.345C296.773 191.771 297.073 192.096 297.457 192.319C297.84 192.54 298.286 192.65 298.794 192.65C299.124 192.65 299.422 192.603 299.689 192.511C299.958 192.415 300.191 192.273 300.386 192.085C300.582 191.893 300.733 191.655 300.839 191.371L302.054 191.712C301.926 192.124 301.711 192.486 301.409 192.799C301.107 193.108 300.734 193.349 300.291 193.523C299.847 193.694 299.348 193.779 298.794 193.779ZM304.094 193.608V185.427H305.308V186.662H305.394C305.543 186.258 305.813 185.929 306.203 185.677C306.594 185.425 307.034 185.299 307.524 185.299C307.617 185.299 307.732 185.301 307.87 185.304C308.009 185.308 308.114 185.313 308.185 185.32V186.598C308.142 186.588 308.044 186.572 307.892 186.551C307.743 186.526 307.585 186.513 307.418 186.513C307.02 186.513 306.665 186.597 306.352 186.764C306.043 186.927 305.798 187.154 305.617 187.445C305.44 187.733 305.351 188.062 305.351 188.431V193.608H304.094ZM310.932 188.687V193.608H309.675V185.427H310.889V186.705H310.996C311.188 186.29 311.479 185.956 311.869 185.704C312.26 185.448 312.764 185.32 313.382 185.32C313.936 185.32 314.421 185.434 314.836 185.661C315.252 185.885 315.575 186.226 315.806 186.684C316.037 187.138 316.152 187.714 316.152 188.41V193.608H314.895V188.495C314.895 187.852 314.728 187.351 314.394 186.993C314.061 186.63 313.602 186.449 313.02 186.449C312.619 186.449 312.26 186.536 311.944 186.71C311.632 186.884 311.385 187.138 311.204 187.472C311.023 187.806 310.932 188.211 310.932 188.687ZM320.857 193.8C320.338 193.8 319.868 193.703 319.445 193.507C319.023 193.308 318.687 193.022 318.439 192.65C318.19 192.273 318.066 191.819 318.066 191.286C318.066 190.817 318.158 190.437 318.343 190.146C318.527 189.851 318.774 189.62 319.083 189.454C319.392 189.287 319.733 189.162 320.106 189.081C320.482 188.995 320.86 188.928 321.24 188.878C321.738 188.814 322.141 188.766 322.45 188.734C322.762 188.699 322.989 188.64 323.131 188.559C323.277 188.477 323.35 188.335 323.35 188.133V188.09C323.35 187.564 323.206 187.156 322.918 186.865C322.634 186.574 322.203 186.428 321.624 186.428C321.024 186.428 320.553 186.559 320.212 186.822C319.871 187.085 319.632 187.366 319.493 187.664L318.3 187.238C318.513 186.741 318.797 186.353 319.152 186.076C319.511 185.796 319.902 185.601 320.324 185.491C320.75 185.377 321.169 185.32 321.581 185.32C321.844 185.32 322.146 185.352 322.487 185.416C322.831 185.476 323.163 185.602 323.483 185.794C323.806 185.986 324.074 186.275 324.287 186.662C324.5 187.049 324.607 187.568 324.607 188.218V193.608H323.35V192.5H323.286C323.201 192.678 323.059 192.868 322.86 193.07C322.661 193.273 322.396 193.445 322.066 193.587C321.736 193.729 321.333 193.8 320.857 193.8ZM321.049 192.671C321.546 192.671 321.965 192.573 322.306 192.378C322.65 192.183 322.909 191.93 323.083 191.622C323.261 191.313 323.35 190.988 323.35 190.647V189.496C323.297 189.56 323.179 189.619 322.998 189.672C322.821 189.722 322.615 189.766 322.38 189.805C322.15 189.841 321.924 189.873 321.704 189.901C321.487 189.926 321.311 189.947 321.177 189.965C320.85 190.008 320.544 190.077 320.26 190.173C319.98 190.265 319.753 190.405 319.579 190.593C319.408 190.778 319.323 191.03 319.323 191.35C319.323 191.787 319.484 192.117 319.808 192.341C320.134 192.561 320.548 192.671 321.049 192.671ZM326.901 193.608V185.427H328.116V186.705H328.222C328.393 186.268 328.668 185.929 329.048 185.688C329.428 185.443 329.884 185.32 330.417 185.32C330.957 185.32 331.406 185.443 331.765 185.688C332.127 185.929 332.409 186.268 332.612 186.705H332.697C332.906 186.282 333.221 185.947 333.64 185.698C334.059 185.446 334.561 185.32 335.147 185.32C335.879 185.32 336.477 185.549 336.942 186.007C337.407 186.462 337.64 187.17 337.64 188.133V193.608H336.383V188.133C336.383 187.529 336.218 187.097 335.888 186.838C335.557 186.579 335.168 186.449 334.721 186.449C334.146 186.449 333.7 186.623 333.384 186.971C333.068 187.316 332.91 187.753 332.91 188.282V193.608H331.632V188.005C331.632 187.54 331.481 187.165 331.179 186.881C330.877 186.593 330.488 186.449 330.012 186.449C329.686 186.449 329.38 186.536 329.096 186.71C328.815 186.884 328.588 187.126 328.414 187.435C328.244 187.74 328.159 188.093 328.159 188.495V193.608H326.901ZM343.369 193.779C342.581 193.779 341.901 193.605 341.329 193.257C340.761 192.905 340.322 192.415 340.013 191.787C339.708 191.155 339.555 190.419 339.555 189.581C339.555 188.743 339.708 188.005 340.013 187.366C340.322 186.723 340.752 186.222 341.302 185.863C341.856 185.501 342.502 185.32 343.241 185.32C343.667 185.32 344.088 185.391 344.504 185.533C344.919 185.675 345.297 185.906 345.638 186.226C345.979 186.542 346.251 186.961 346.453 187.483C346.655 188.005 346.757 188.647 346.757 189.411V189.944H340.45V188.857H345.478C345.478 188.395 345.386 187.983 345.201 187.621C345.02 187.259 344.761 186.973 344.424 186.764C344.09 186.554 343.696 186.449 343.241 186.449C342.74 186.449 342.307 186.574 341.941 186.822C341.579 187.067 341.3 187.387 341.105 187.781C340.91 188.175 340.812 188.598 340.812 189.049V189.773C340.812 190.391 340.919 190.915 341.132 191.345C341.348 191.771 341.648 192.096 342.032 192.319C342.415 192.54 342.861 192.65 343.369 192.65C343.699 192.65 343.997 192.603 344.264 192.511C344.534 192.415 344.766 192.273 344.962 192.085C345.157 191.893 345.308 191.655 345.414 191.371L346.629 191.712C346.501 192.124 346.286 192.486 345.984 192.799C345.682 193.108 345.31 193.349 344.866 193.523C344.422 193.694 343.923 193.779 343.369 193.779Z" fill="#767676"/>
<ellipse cx="186.344" cy="45.9208" rx="20.1458" ry="20.1058" fill="#FFB400"/>
<g clip-path="url(#clip0_1_2319)">
<path d="M179.547 39.135H193.145C193.345 39.135 193.538 39.2144 193.679 39.3558C193.821 39.4972 193.9 39.689 193.9 39.889V51.9525C193.9 52.1524 193.821 52.3442 193.679 52.4856C193.538 52.627 193.345 52.7064 193.145 52.7064H179.547C179.346 52.7064 179.154 52.627 179.012 52.4856C178.871 52.3442 178.791 52.1524 178.791 51.9525V39.889C178.791 39.689 178.871 39.4972 179.012 39.3558C179.154 39.2144 179.346 39.135 179.547 39.135ZM186.391 45.6817L181.547 41.5764L180.569 42.7254L186.401 47.6677L192.128 42.7216L191.14 41.5809L186.392 45.6817H186.391Z" fill="#2B2B2B"/>
</g>
<defs>
<clipPath id="clip0_1_2319">
<rect width="18.1312" height="18.0952" fill="white" transform="translate(177.28 36.873)"/>
</clipPath>
</defs>
</svg>
