<svg width="809" height="551" viewBox="0 0 809 551" fill="none" xmlns="http://www.w3.org/2000/svg">
<g clip-path="url(#clip0_1_2433)">
<path d="M306.905 87.2547C306.349 88.0279 305.579 88.5917 304.707 88.8656C303.834 89.1394 302.904 89.1092 302.048 88.7793C301.788 88.6963 301.533 88.596 301.284 88.479C301.565 85.2452 301.426 81.9849 300.871 78.7924C300.653 81.5365 300.029 84.2256 299.025 86.7584C298.206 85.8738 297.535 84.8431 297.043 83.7118C296.127 81.371 295.519 78.9034 295.238 76.381C293.882 67.7871 292.544 58.8465 294.757 50.448C297.998 38.1793 308.219 29.3594 312.488 17.4559L314.592 15.4227C318.192 22.025 318.351 30.2291 316.884 37.7156C315.424 45.217 312.482 52.2573 310.156 59.4914C307.831 66.7255 306.088 74.4203 307.167 81.99C307.415 83.7723 307.794 85.7313 306.905 87.2547Z" fill="#2F2E41"/>
<path d="M260.162 191.066L246.456 258.576L306.323 279.574L297.52 191.066H260.162Z" fill="#FFB6B6"/>
<path d="M682.623 549.343H709.752V415.406C709.716 380.84 696.949 347.701 674.253 323.26C651.556 298.818 620.784 285.069 588.686 285.03H336.56C304.462 285.069 273.69 298.818 250.993 323.26C228.297 347.701 215.53 380.84 215.494 415.406V549.343H242.622V457.841C242.659 422.954 255.544 389.507 278.452 364.838C301.359 340.169 332.418 326.293 364.814 326.253H560.431C592.828 326.293 623.887 340.169 646.794 364.838C669.702 389.507 682.587 422.954 682.623 457.841V549.343Z" fill="#E6E6E6"/>
<path d="M352.962 479.274L324.049 469.847C322.169 461.527 321.221 452.994 321.225 444.431C321.239 442.497 321.763 440.607 322.738 438.982C323.713 437.358 325.097 436.066 326.729 435.257C328.361 434.449 330.172 434.158 331.952 434.418C333.732 434.678 335.406 435.478 336.779 436.726C352.286 451.049 375 458.692 389.659 475.015C395.725 481.875 400.281 490.117 402.988 499.131C405.694 508.144 406.483 517.698 405.295 527.085L411.623 549.128C397.459 548.027 383.685 543.632 371.25 536.247C358.816 528.861 348.015 518.66 339.594 506.347C334.933 499.389 331.104 491.827 328.198 483.838C340.46 482.34 352.962 479.274 352.962 479.274Z" fill="#F2F2F2"/>
<path d="M428.316 515.372L443.062 510.564C443.082 510.48 443.1 510.396 443.119 510.311C443.527 508.369 443.398 506.34 442.748 504.476C442.098 502.611 440.954 500.993 439.46 499.82C437.965 498.648 436.184 497.972 434.337 497.877C432.49 497.782 430.657 498.272 429.065 499.286C422.371 503.568 414.938 507.256 409.6 513.2C406.505 516.699 404.182 520.903 402.801 525.5C401.421 530.097 401.019 534.97 401.625 539.757L398.397 551C405.621 550.439 412.646 548.197 418.988 544.43C425.331 540.664 430.839 535.461 435.134 529.181C437.512 525.632 439.464 521.775 440.947 517.7C434.692 516.936 428.316 515.372 428.316 515.372Z" fill="#F2F2F2"/>
<path d="M547.687 186.255H490.261C489.449 186.256 488.67 186.605 488.097 187.224C487.523 187.844 487.201 188.683 487.202 189.558V287.249H550.754V189.558C550.755 189.124 550.675 188.695 550.521 188.294C550.367 187.893 550.141 187.529 549.856 187.222C549.572 186.915 549.233 186.672 548.861 186.506C548.489 186.34 548.09 186.255 547.687 186.255ZM519.167 241.762C517.371 241.753 515.652 240.981 514.382 239.613C513.112 238.246 512.395 236.393 512.386 234.459V223.192C512.389 221.257 513.104 219.402 514.375 218.034C515.647 216.667 517.37 215.899 519.167 215.899C520.964 215.899 522.688 216.667 523.959 218.034C525.231 219.402 525.946 221.257 525.948 223.192V234.459C525.94 236.393 525.223 238.246 523.953 239.613C522.683 240.981 520.963 241.753 519.167 241.762Z" fill="#3F3D56"/>
<path d="M642.779 33.7965H397.306C395.197 33.8001 393.175 34.704 391.684 36.3099C390.193 37.9159 389.353 40.0929 389.35 42.3641V220.747C389.352 223.019 390.191 225.197 391.683 226.803C393.174 228.41 395.197 229.313 397.306 229.315H642.779C644.889 229.313 646.911 228.41 648.402 226.803C649.894 225.197 650.733 223.019 650.735 220.747V42.3641C650.732 40.0929 649.892 37.9159 648.401 36.3099C646.91 34.704 644.888 33.8001 642.779 33.7965Z" fill="#3F3D56"/>
<path d="M640.73 39.9847H399.357C398.228 39.9874 397.145 40.4723 396.348 41.3331C395.55 42.1938 395.102 43.3602 395.102 44.5763V218.538C395.104 219.753 395.553 220.917 396.35 221.776C397.148 222.635 398.229 223.118 399.357 223.12H640.73C641.858 223.118 642.939 222.635 643.737 221.776C644.534 220.917 644.983 219.753 644.985 218.538V44.5762C644.985 43.3602 644.537 42.1938 643.739 41.3331C642.941 40.4723 641.859 39.9874 640.73 39.9847Z" fill="white"/>
<path d="M487.005 284.125V293.55C487.006 294.038 487.186 294.506 487.507 294.852C487.828 295.197 488.262 295.391 488.716 295.392H549.24C549.694 295.39 550.127 295.195 550.448 294.85C550.768 294.505 550.949 294.038 550.951 293.55V284.125H487.005Z" fill="#3F3D56"/>
<path d="M593.715 298.672H450.111C449.718 298.672 449.33 298.578 448.975 298.396C448.62 298.214 448.307 297.948 448.06 297.62C447.812 297.291 447.635 296.907 447.543 296.496C447.451 296.084 447.445 295.656 447.526 295.241L449.754 283.845C449.881 283.207 450.206 282.635 450.677 282.225C451.147 281.814 451.733 281.588 452.339 281.586H591.487C592.092 281.588 592.679 281.814 593.149 282.225C593.619 282.635 593.945 283.207 594.071 283.845L596.3 295.241C596.381 295.656 596.375 296.084 596.282 296.496C596.19 296.907 596.014 297.291 595.766 297.62C595.518 297.948 595.206 298.214 594.851 298.396C594.496 298.578 594.108 298.672 593.715 298.672Z" fill="#3F3D56"/>
<path d="M457.232 283.638H453.908C453.604 283.638 453.358 283.903 453.358 284.23V285.904C453.358 286.231 453.604 286.496 453.908 286.496H457.232C457.535 286.496 457.781 286.231 457.781 285.904V284.23C457.781 283.903 457.535 283.638 457.232 283.638Z" fill="#E6E6E6"/>
<path d="M466.077 283.638H462.754C462.45 283.638 462.204 283.903 462.204 284.23V285.904C462.204 286.231 462.45 286.496 462.754 286.496H466.077C466.381 286.496 466.627 286.231 466.627 285.904V284.23C466.627 283.903 466.381 283.638 466.077 283.638Z" fill="#E6E6E6"/>
<path d="M474.923 283.638H471.6C471.296 283.638 471.05 283.903 471.05 284.23V285.904C471.05 286.231 471.296 286.496 471.6 286.496H474.923C475.227 286.496 475.473 286.231 475.473 285.904V284.23C475.473 283.903 475.227 283.638 474.923 283.638Z" fill="#E6E6E6"/>
<path d="M483.769 283.638H480.445C480.142 283.638 479.896 283.903 479.896 284.23V285.904C479.896 286.231 480.142 286.496 480.445 286.496H483.769C484.072 286.496 484.318 286.231 484.318 285.904V284.23C484.318 283.903 484.072 283.638 483.769 283.638Z" fill="#E6E6E6"/>
<path d="M492.614 283.638H489.291C488.987 283.638 488.741 283.903 488.741 284.23V285.904C488.741 286.231 488.987 286.496 489.291 286.496H492.614C492.918 286.496 493.164 286.231 493.164 285.904V284.23C493.164 283.903 492.918 283.638 492.614 283.638Z" fill="#E6E6E6"/>
<path d="M501.46 283.638H498.137C497.833 283.638 497.587 283.903 497.587 284.23V285.904C497.587 286.231 497.833 286.496 498.137 286.496H501.46C501.764 286.496 502.01 286.231 502.01 285.904V284.23C502.01 283.903 501.764 283.638 501.46 283.638Z" fill="#E6E6E6"/>
<path d="M510.306 283.638H506.982C506.679 283.638 506.433 283.903 506.433 284.23V285.904C506.433 286.231 506.679 286.496 506.982 286.496H510.306C510.61 286.496 510.856 286.231 510.856 285.904V284.23C510.856 283.903 510.61 283.638 510.306 283.638Z" fill="#E6E6E6"/>
<path d="M519.152 283.638H515.828C515.525 283.638 515.279 283.903 515.279 284.23V285.904C515.279 286.231 515.525 286.496 515.828 286.496H519.152C519.455 286.496 519.701 286.231 519.701 285.904V284.23C519.701 283.903 519.455 283.638 519.152 283.638Z" fill="#E6E6E6"/>
<path d="M527.997 283.638H524.674C524.37 283.638 524.124 283.903 524.124 284.23V285.904C524.124 286.231 524.37 286.496 524.674 286.496H527.997C528.301 286.496 528.547 286.231 528.547 285.904V284.23C528.547 283.903 528.301 283.638 527.997 283.638Z" fill="#E6E6E6"/>
<path d="M536.843 283.638H533.52C533.216 283.638 532.97 283.903 532.97 284.23V285.904C532.97 286.231 533.216 286.496 533.52 286.496H536.843C537.147 286.496 537.393 286.231 537.393 285.904V284.23C537.393 283.903 537.147 283.638 536.843 283.638Z" fill="#E6E6E6"/>
<path d="M545.689 283.638H542.365C542.062 283.638 541.816 283.903 541.816 284.23V285.904C541.816 286.231 542.062 286.496 542.365 286.496H545.689C545.992 286.496 546.239 286.231 546.239 285.904V284.23C546.239 283.903 545.992 283.638 545.689 283.638Z" fill="#E6E6E6"/>
<path d="M554.535 283.638H551.211C550.907 283.638 550.661 283.903 550.661 284.23V285.904C550.661 286.231 550.907 286.496 551.211 286.496H554.535C554.838 286.496 555.084 286.231 555.084 285.904V284.23C555.084 283.903 554.838 283.638 554.535 283.638Z" fill="#E6E6E6"/>
<path d="M563.38 283.638H560.057C559.753 283.638 559.507 283.903 559.507 284.23V285.904C559.507 286.231 559.753 286.496 560.057 286.496H563.38C563.684 286.496 563.93 286.231 563.93 285.904V284.23C563.93 283.903 563.684 283.638 563.38 283.638Z" fill="#E6E6E6"/>
<path d="M572.226 283.638H568.902C568.599 283.638 568.353 283.903 568.353 284.23V285.904C568.353 286.231 568.599 286.496 568.902 286.496H572.226C572.53 286.496 572.776 286.231 572.776 285.904V284.23C572.776 283.903 572.53 283.638 572.226 283.638Z" fill="#E6E6E6"/>
<path d="M581.072 283.638H577.748C577.445 283.638 577.199 283.903 577.199 284.23V285.904C577.199 286.231 577.445 286.496 577.748 286.496H581.072C581.375 286.496 581.621 286.231 581.621 285.904V284.23C581.621 283.903 581.375 283.638 581.072 283.638Z" fill="#E6E6E6"/>
<path d="M589.918 283.638H586.594C586.29 283.638 586.044 283.903 586.044 284.23V285.904C586.044 286.231 586.29 286.496 586.594 286.496H589.918C590.221 286.496 590.467 286.231 590.467 285.904V284.23C590.467 283.903 590.221 283.638 589.918 283.638Z" fill="#E6E6E6"/>
<path d="M457.127 288.401H453.804C453.5 288.401 453.254 288.666 453.254 288.993V290.667C453.254 290.994 453.5 291.259 453.804 291.259H457.127C457.431 291.259 457.677 290.994 457.677 290.667V288.993C457.677 288.666 457.431 288.401 457.127 288.401Z" fill="#E6E6E6"/>
<path d="M465.973 288.401H462.649C462.346 288.401 462.1 288.666 462.1 288.993V290.667C462.1 290.994 462.346 291.259 462.649 291.259H465.973C466.276 291.259 466.522 290.994 466.522 290.667V288.993C466.522 288.666 466.276 288.401 465.973 288.401Z" fill="#E6E6E6"/>
<path d="M474.819 288.401H471.495C471.191 288.401 470.945 288.666 470.945 288.993V290.667C470.945 290.994 471.191 291.259 471.495 291.259H474.819C475.122 291.259 475.368 290.994 475.368 290.667V288.993C475.368 288.666 475.122 288.401 474.819 288.401Z" fill="#E6E6E6"/>
<path d="M483.664 288.401H480.341C480.037 288.401 479.791 288.666 479.791 288.993V290.667C479.791 290.994 480.037 291.259 480.341 291.259H483.664C483.968 291.259 484.214 290.994 484.214 290.667V288.993C484.214 288.666 483.968 288.401 483.664 288.401Z" fill="#E6E6E6"/>
<path d="M492.51 288.401H489.186C488.883 288.401 488.637 288.666 488.637 288.993V290.667C488.637 290.994 488.883 291.259 489.186 291.259H492.51C492.814 291.259 493.06 290.994 493.06 290.667V288.993C493.06 288.666 492.814 288.401 492.51 288.401Z" fill="#E6E6E6"/>
<path d="M501.356 288.401H498.032C497.729 288.401 497.483 288.666 497.483 288.993V290.667C497.483 290.994 497.729 291.259 498.032 291.259H501.356C501.659 291.259 501.905 290.994 501.905 290.667V288.993C501.905 288.666 501.659 288.401 501.356 288.401Z" fill="#E6E6E6"/>
<path d="M510.201 288.401H506.878C506.574 288.401 506.328 288.666 506.328 288.993V290.667C506.328 290.994 506.574 291.259 506.878 291.259H510.201C510.505 291.259 510.751 290.994 510.751 290.667V288.993C510.751 288.666 510.505 288.401 510.201 288.401Z" fill="#E6E6E6"/>
<path d="M519.047 288.401H515.723C515.42 288.401 515.174 288.666 515.174 288.993V290.667C515.174 290.994 515.42 291.259 515.723 291.259H519.047C519.351 291.259 519.597 290.994 519.597 290.667V288.993C519.597 288.666 519.351 288.401 519.047 288.401Z" fill="#E6E6E6"/>
<path d="M527.893 288.401H524.569C524.266 288.401 524.02 288.666 524.02 288.993V290.667C524.02 290.994 524.266 291.259 524.569 291.259H527.893C528.196 291.259 528.443 290.994 528.443 290.667V288.993C528.443 288.666 528.196 288.401 527.893 288.401Z" fill="#E6E6E6"/>
<path d="M536.739 288.401H533.415C533.111 288.401 532.865 288.666 532.865 288.993V290.667C532.865 290.994 533.111 291.259 533.415 291.259H536.739C537.042 291.259 537.288 290.994 537.288 290.667V288.993C537.288 288.666 537.042 288.401 536.739 288.401Z" fill="#E6E6E6"/>
<path d="M545.584 288.401H542.261C541.957 288.401 541.711 288.666 541.711 288.993V290.667C541.711 290.994 541.957 291.259 542.261 291.259H545.584C545.888 291.259 546.134 290.994 546.134 290.667V288.993C546.134 288.666 545.888 288.401 545.584 288.401Z" fill="#E6E6E6"/>
<path d="M554.43 288.401H551.107C550.803 288.401 550.557 288.666 550.557 288.993V290.667C550.557 290.994 550.803 291.259 551.107 291.259H554.43C554.734 291.259 554.98 290.994 554.98 290.667V288.993C554.98 288.666 554.734 288.401 554.43 288.401Z" fill="#E6E6E6"/>
<path d="M563.276 288.401H559.952C559.649 288.401 559.403 288.666 559.403 288.993V290.667C559.403 290.994 559.649 291.259 559.952 291.259H563.276C563.579 291.259 563.825 290.994 563.825 290.667V288.993C563.825 288.666 563.579 288.401 563.276 288.401Z" fill="#E6E6E6"/>
<path d="M572.122 288.401H568.798C568.494 288.401 568.248 288.666 568.248 288.993V290.667C568.248 290.994 568.494 291.259 568.798 291.259H572.122C572.425 291.259 572.671 290.994 572.671 290.667V288.993C572.671 288.666 572.425 288.401 572.122 288.401Z" fill="#E6E6E6"/>
<path d="M580.967 288.401H577.644C577.34 288.401 577.094 288.666 577.094 288.993V290.667C577.094 290.994 577.34 291.259 577.644 291.259H580.967C581.271 291.259 581.517 290.994 581.517 290.667V288.993C581.517 288.666 581.271 288.401 580.967 288.401Z" fill="#E6E6E6"/>
<path d="M589.813 288.401H586.489C586.186 288.401 585.94 288.666 585.94 288.993V290.667C585.94 290.994 586.186 291.259 586.489 291.259H589.813C590.116 291.259 590.363 290.994 590.363 290.667V288.993C590.363 288.666 590.116 288.401 589.813 288.401Z" fill="#E6E6E6"/>
<path d="M530.547 294.117H496.263C495.959 294.117 495.713 294.382 495.713 294.709V296.382C495.713 296.709 495.959 296.974 496.263 296.974H530.547C530.85 296.974 531.096 296.709 531.096 296.382V294.709C531.096 294.382 530.85 294.117 530.547 294.117Z" fill="#E6E6E6"/>
<path d="M604.74 83.655V175.219C604.739 181.351 602.477 187.231 598.451 191.567C594.424 195.903 588.964 198.339 583.27 198.34H476.852C472.663 198.341 468.564 197.023 465.062 194.548C461.559 192.073 458.805 188.548 457.138 184.409C456.58 183.041 456.154 181.615 455.866 180.154C458.128 181.096 460.533 181.577 462.959 181.572H569.377C574.624 181.564 579.654 179.316 583.364 175.32C587.074 171.325 589.162 165.908 589.169 160.257V68.6934C589.174 66.0814 588.727 63.4912 587.852 61.0551C589.209 61.3648 590.534 61.8239 591.804 62.4251C595.648 64.22 598.92 67.1859 601.219 70.9579C603.517 74.73 604.741 79.1434 604.74 83.655Z" fill="#F2F2F2"/>
<path d="M207.728 447.953L197.173 454.991L166.077 413.829L181.655 403.443L207.728 447.953Z" fill="#FFB6B6"/>
<path d="M216.84 462.655L208.35 466.737L203.256 458.833L202.953 469.331L180.434 480.157C179.354 480.676 178.149 480.81 176.994 480.539C175.839 480.268 174.795 479.607 174.013 478.651C173.232 477.696 172.755 476.497 172.651 475.229C172.548 473.96 172.823 472.69 173.438 471.602L185.877 449.583L182.259 440.855L201.678 432.978L216.84 462.655Z" fill="#2F2E41"/>
<path d="M178.16 440.034L195.987 421.43C182.742 386.234 181.684 364.418 163.323 321.851C206.886 331.446 238.032 330.863 274.059 322.26C286.256 319.393 317.727 293.215 315.14 279.792C315.019 279.165 314.876 278.543 314.711 277.927C310.844 263.728 313.567 241.983 305.196 226.226C289.71 219.939 266.182 241.171 247.777 254.113C238.902 260.353 245.399 268.857 238.77 271.087L213.36 279.969L151.018 269.127C148.005 268.635 144.931 268.79 141.974 269.583C139.017 270.377 136.235 271.792 133.789 273.749C131.342 275.705 129.28 278.164 127.72 280.983C126.159 283.802 125.133 286.926 124.699 290.174C124.593 290.903 124.517 291.636 124.47 292.372C127.338 309.472 130.328 326.123 133.548 341.929C134.587 347.031 132.832 356.812 136.74 356.958C140.648 357.103 139.074 367.22 140.291 372.166C147.783 402.615 152.521 417.35 178.16 440.034Z" fill="#2F2E41"/>
<path d="M144.039 521.635L133.043 515.454L150.441 465.822L166.671 474.944L144.039 521.635Z" fill="#FFB6B6"/>
<path d="M142.207 484.582L159.839 497.655C181.45 463.998 195.482 419.023 205.931 368.7C246.619 349.586 282.221 327.718 307.031 298.386C311.105 293.468 313.242 287.036 312.987 280.451C312.733 273.866 310.109 267.647 305.669 263.11C305.235 262.672 304.786 262.252 304.323 261.85C293.577 252.632 269.71 257.936 254.456 250.232L227.205 290.848L230.337 300.308L220.858 305.278L212.854 309.474L203.691 314.278L173.655 330.024C170.932 331.49 168.505 333.522 166.515 336.003C164.525 338.483 163.01 341.364 162.059 344.478C161.108 347.592 160.738 350.879 160.972 354.147C161.206 357.416 162.039 360.603 163.422 363.523C163.725 364.184 164.055 364.831 164.41 365.463L153.255 425.309C153.255 425.309 156.324 435.728 151.494 434.753C146.665 433.778 149.297 446.544 149.297 446.544L142.207 484.582Z" fill="#2F2E41"/>
<path d="M137.38 548.989L129.137 544.356L131.728 535.148L123.897 541.411L102.035 529.123C100.987 528.534 100.141 527.6 99.6212 526.457C99.1012 525.314 98.9342 524.021 99.1445 522.769C99.3548 521.516 99.9314 520.368 100.79 519.494C101.649 518.619 102.745 518.063 103.918 517.906L127.67 514.734L131.776 506.261L149.568 517.763L137.38 548.989Z" fill="#2F2E41"/>
<path d="M377.729 288.796L364.868 255.325L354.735 261.387L360.854 295.435C360.241 297.592 360.199 299.891 360.733 302.072C361.267 304.254 362.355 306.231 363.875 307.783C365.395 309.335 367.287 310.4 369.338 310.857C371.389 311.315 373.518 311.147 375.486 310.373C377.453 309.598 379.181 308.249 380.476 306.475C381.77 304.701 382.579 302.574 382.812 300.332C383.045 298.09 382.692 295.823 381.795 293.785C380.897 291.747 379.489 290.019 377.729 288.796Z" fill="#FFB6B6"/>
<path d="M161.917 24.1231L181.486 53.5849L190.08 45.2079L176.956 13.5386C177.099 11.2881 176.656 9.03923 175.677 7.04482C174.699 5.05041 173.223 3.38953 171.416 2.2489C169.608 1.10826 167.542 0.533103 165.447 0.588075C163.353 0.643047 161.315 1.32597 159.562 2.56007C157.808 3.79418 156.409 5.53052 155.522 7.57392C154.635 9.61731 154.294 11.8867 154.539 14.1271C154.784 16.3674 155.604 18.4898 156.907 20.2557C158.211 22.0215 159.946 23.3608 161.917 24.1231Z" fill="#FFB6B6"/>
<path d="M250.286 210.857C237.593 232.058 284.093 278.251 308.574 267.45C312.861 265.558 327.606 259.311 317.527 250.65C307.448 241.988 318.696 251.681 318.962 246.043C319.139 242.274 316.429 234.005 319.257 234.359C322.085 234.714 323.707 225.907 317.549 223.663C315.408 222.84 313.529 221.376 312.133 219.443C310.737 217.51 309.882 215.189 309.668 212.751C309.079 189.513 316.387 165.251 316.387 165.251L346.22 247.376C346.22 247.376 346 261.584 349.805 257.242C353.609 252.9 353.332 266.953 353.332 266.953C353.332 266.953 358.989 271.204 355.736 273.571C352.483 275.937 359.238 283.211 359.238 283.211L375.001 281.999C375.001 281.999 374.754 269.39 372.062 266.601C369.371 263.812 370.693 259.424 370.693 259.424C370.693 259.424 365.145 253.866 368.384 247.321C371.623 240.776 344.796 123.698 344.796 123.698C343.721 118.066 341.221 112.863 337.571 108.664C333.922 104.466 329.266 101.436 324.118 99.9098L307.094 94.862L304.071 81.9455H280.099L275.924 90.4327L237.644 86.7953C237.644 86.7953 199.767 49.6825 201.616 46.7846C203.465 43.8868 197.594 37.1023 197.594 37.1023C197.594 37.1023 192.579 35.3349 195.409 34.3913C198.239 33.4477 192.89 31.266 192.89 31.266C192.89 31.266 187.937 29.8643 190.273 28.0187C192.609 26.173 182.476 24.9606 182.476 24.9606L169.329 36.5122L171.986 41.3643C171.986 41.3643 170.366 47.9714 172.481 45.5594C174.595 43.1474 174.993 50.1472 174.993 50.1472C174.993 50.1472 176.073 57.8122 182.476 60.1216C188.88 62.4309 193.735 84.3705 193.735 84.3705L247.777 132.868C239.546 143.042 241.505 153.681 248.797 164.564L250.286 210.857Z" fill="#FFB400"/>
<path d="M291.544 73.3637C305.88 73.3637 317.502 60.8483 317.502 45.4099C317.502 29.9714 305.88 17.4561 291.544 17.4561C277.208 17.4561 265.586 29.9714 265.586 45.4099C265.586 60.8483 277.208 73.3637 291.544 73.3637Z" fill="#FFB6B6"/>
<path d="M314.203 37.0851C313.539 37.2912 303.789 38.6612 299.567 39.5099C295.424 40.3465 294.703 34.6602 291.314 35.7271C291.316 35.7022 291.312 35.6773 291.303 35.6544C290.778 32.6414 289.88 29.7177 288.635 26.9611C289.087 29.6013 289.151 32.3015 288.826 34.9633C288.824 35.0326 288.817 35.1015 288.804 35.1694C288.793 35.2906 288.77 35.3997 288.759 35.521C285.179 33.8236 282.904 35.3391 280.427 35.8726C277.658 36.4667 275.496 37.7761 277.05 47.9971C280.236 69.0209 296.809 76.5259 293.938 90.4326C293.375 93.1849 291.956 96.6283 290.177 97.4891C289.652 94.4762 288.755 91.5524 287.509 88.7958C287.961 91.436 288.026 94.1362 287.701 96.798C284.942 93.585 282.949 82.3578 273.672 73.4584C271.387 71.276 259.936 58.3271 258.563 55.2717C258.984 57.7146 259.188 60.1952 259.171 62.6798C259.174 64.3427 259.068 66.0037 258.856 67.6508C258.856 67.7569 258.844 67.8627 258.822 67.966C258.811 68.16 258.777 68.3298 258.754 68.5117C258.732 68.7178 258.698 68.9118 258.664 69.1179C254.915 68.5359 251.594 67.8327 250.029 66.1837C242.418 58.2058 251.706 42.6623 256.784 28.5979C264.046 8.45922 285.134 5.77972 287.183 5.56148C296.212 4.57939 311.468 6.6648 316.455 17.6859C319.945 25.4092 317.716 35.9938 314.203 37.0851Z" fill="#2F2E41"/>
<path d="M259.469 41.6308L278.272 10.1312C273.766 7.31396 268.635 5.86439 263.424 5.93659C260.828 5.99471 258.272 6.64142 255.922 7.83457C253.573 9.02772 251.484 10.7405 249.791 12.8614C245.951 18.0012 245.292 25.2669 246.731 31.6794C247.228 33.894 256.69 26.1017 254.438 29.739C252.59 32.5868 249.567 44.5569 248.809 47.9257C247.589 53.3475 244.234 58.913 247.223 63.4699C250.756 68.8585 257.063 71.537 263.183 71.8091C269.304 72.0811 275.329 70.2544 281.146 68.1854L259.469 41.6308Z" fill="#2F2E41"/>
<path d="M266.694 40.3885C266.422 40.3881 266.16 40.2822 265.956 40.09C265.751 39.8979 265.617 39.6326 265.58 39.343C265.543 39.0534 265.604 38.759 265.752 38.514C265.9 38.269 266.126 38.0899 266.387 38.0098C266.682 37.4852 266.561 35.2776 266.464 33.4939C266.098 26.7964 265.485 15.5873 275.59 8.0207C275.835 7.83715 276.138 7.76597 276.432 7.82282C276.725 7.87966 276.986 8.05987 277.157 8.32381C277.327 8.58774 277.393 8.91378 277.34 9.2302C277.288 9.54662 277.12 9.8275 276.875 10.011C267.807 16.8021 268.351 26.7615 268.712 33.3512C268.917 37.1188 269.066 39.8402 266.944 40.3583C266.862 40.3785 266.778 40.3886 266.694 40.3885Z" fill="#FFB400"/>
<path d="M0.683111 548.559C0.682059 548.94 0.821793 549.307 1.07156 549.577C1.32132 549.848 1.66066 550 2.01493 550.001H807.349C807.704 550.001 808.045 549.849 808.296 549.579C808.548 549.308 808.689 548.941 808.689 548.559C808.689 548.176 808.548 547.809 808.296 547.538C808.045 547.268 807.704 547.116 807.349 547.116H2.02294C1.84751 547.115 1.67371 547.152 1.51144 547.224C1.34916 547.295 1.2016 547.401 1.07719 547.534C0.95278 547.667 0.853953 547.826 0.786343 548C0.718733 548.174 0.683661 548.361 0.683146 548.55L0.683111 548.559Z" fill="#CCCCCC"/>
<path d="M498.921 115.593H481.884C481.432 115.593 480.999 115.4 480.68 115.056C480.36 114.712 480.181 114.245 480.181 113.758C480.181 113.272 480.36 112.805 480.68 112.461C480.999 112.117 481.432 111.924 481.884 111.924H498.921C499.373 111.924 499.806 112.117 500.126 112.461C500.445 112.805 500.625 113.272 500.625 113.758C500.625 114.245 500.445 114.712 500.126 115.056C499.806 115.4 499.373 115.593 498.921 115.593Z" fill="#FFB400"/>
<path d="M529.587 115.593H512.551C512.327 115.593 512.105 115.546 511.899 115.453C511.692 115.361 511.504 115.226 511.346 115.056C511.188 114.885 511.062 114.683 510.977 114.46C510.891 114.238 510.847 113.999 510.847 113.758C510.847 113.517 510.891 113.279 510.977 113.056C511.062 112.834 511.188 112.631 511.346 112.461C511.504 112.291 511.692 112.156 511.899 112.063C512.105 111.971 512.327 111.924 512.551 111.924H529.587C529.811 111.924 530.033 111.971 530.239 112.063C530.446 112.156 530.634 112.291 530.792 112.461C530.95 112.631 531.076 112.834 531.161 113.056C531.247 113.279 531.291 113.517 531.291 113.758C531.291 113.999 531.247 114.238 531.161 114.46C531.076 114.683 530.95 114.885 530.792 115.056C530.634 115.226 530.446 115.361 530.239 115.453C530.033 115.546 529.811 115.593 529.587 115.593Z" fill="#FFB400"/>
<path d="M544.92 130.271H527.884C527.66 130.271 527.438 130.223 527.232 130.131C527.025 130.039 526.837 129.904 526.679 129.733C526.521 129.563 526.395 129.361 526.31 129.138C526.224 128.915 526.18 128.677 526.18 128.436C526.18 128.195 526.224 127.956 526.31 127.734C526.395 127.511 526.521 127.309 526.679 127.138C526.837 126.968 527.025 126.833 527.232 126.741C527.438 126.649 527.66 126.601 527.884 126.601H544.92C545.144 126.601 545.366 126.649 545.572 126.741C545.779 126.833 545.967 126.968 546.125 127.138C546.283 127.309 546.409 127.511 546.494 127.734C546.58 127.956 546.624 128.195 546.624 128.436C546.624 128.677 546.58 128.915 546.494 129.138C546.409 129.361 546.283 129.563 546.125 129.733C545.967 129.904 545.779 130.039 545.572 130.131C545.366 130.223 545.144 130.271 544.92 130.271Z" fill="#FFB400"/>
<path d="M514.348 130.271H481.884C481.432 130.271 480.999 130.077 480.68 129.733C480.36 129.389 480.181 128.922 480.181 128.436C480.181 127.949 480.36 127.483 480.68 127.138C480.999 126.794 481.432 126.601 481.884 126.601H514.348C514.8 126.601 515.233 126.794 515.553 127.138C515.872 127.483 516.052 127.949 516.052 128.436C516.052 128.922 515.872 129.389 515.553 129.733C515.233 130.077 514.8 130.271 514.348 130.271Z" fill="#FFB400"/>
<path d="M575.681 115.593H543.217C542.765 115.593 542.332 115.4 542.012 115.056C541.693 114.712 541.513 114.245 541.513 113.758C541.513 113.272 541.693 112.805 542.012 112.461C542.332 112.117 542.765 111.924 543.217 111.924H575.681C575.905 111.924 576.126 111.971 576.333 112.063C576.539 112.156 576.727 112.291 576.885 112.461C577.044 112.631 577.169 112.834 577.255 113.056C577.34 113.279 577.384 113.517 577.384 113.758C577.384 113.999 577.34 114.238 577.255 114.46C577.169 114.683 577.044 114.885 576.885 115.056C576.727 115.226 576.539 115.361 576.333 115.453C576.126 115.546 575.905 115.593 575.681 115.593Z" fill="#FFB400"/>
<path d="M510.585 87.799H478.121C477.897 87.7996 477.675 87.7526 477.468 87.6607C477.261 87.5687 477.072 87.4337 476.914 87.2633C476.755 87.0928 476.629 86.8904 476.543 86.6675C476.457 86.4446 476.413 86.2056 476.413 85.9643C476.413 85.7229 476.457 85.484 476.543 85.2611C476.629 85.0382 476.755 84.8357 476.914 84.6653C477.072 84.4949 477.261 84.3598 477.468 84.2679C477.675 84.176 477.897 84.129 478.121 84.1296H510.585C511.037 84.1296 511.47 84.3229 511.79 84.6669C512.109 85.011 512.289 85.4777 512.289 85.9643C512.289 86.4509 512.109 86.9175 511.79 87.2616C511.47 87.6057 511.037 87.799 510.585 87.799Z" fill="#FFB400"/>
<path d="M513.254 98.5179C512.936 98.5181 512.626 98.4112 512.367 98.2123C512.108 98.0133 511.914 97.7323 511.81 97.4083C511.707 97.0844 511.701 96.7338 511.791 96.4056C511.882 96.0774 512.066 95.7879 512.317 95.5778L520.63 88.6194C520.964 88.3398 521.24 87.9886 521.442 87.5879C521.643 87.1872 521.765 86.7459 521.8 86.2918C521.834 85.8377 521.781 85.3809 521.643 84.9501C521.505 84.5193 521.286 84.1241 520.999 83.7894L514.02 75.6532C513.884 75.4947 513.778 75.309 513.709 75.1066C513.64 74.9041 513.608 74.689 513.616 74.4734C513.624 74.2578 513.671 74.046 513.755 73.8501C513.839 73.6541 513.958 73.4779 514.105 73.3315C514.252 73.185 514.425 73.0712 514.613 72.9966C514.801 72.9219 515 72.8879 515.201 72.8964C515.401 72.9048 515.597 72.9557 515.779 73.0461C515.961 73.1364 516.125 73.2645 516.261 73.423L526.625 85.5047C526.768 85.6719 526.878 85.8692 526.947 86.0844C527.016 86.2995 527.042 86.5277 527.025 86.7544C527.008 86.9812 526.947 87.2017 526.846 87.4018C526.746 87.6019 526.608 87.7774 526.441 87.9171L514.19 98.1722C513.923 98.3964 513.593 98.5181 513.254 98.5179Z" fill="#FFB400"/>
<path d="M476.478 98.5179C476.796 98.5181 477.106 98.4112 477.365 98.2123C477.624 98.0133 477.819 97.7323 477.922 97.4083C478.025 97.0844 478.032 96.7338 477.941 96.4056C477.85 96.0774 477.666 95.7879 477.415 95.5778L469.103 88.6194C468.769 88.3398 468.492 87.9886 468.291 87.5879C468.09 87.1872 467.968 86.7459 467.933 86.2918C467.898 85.8377 467.951 85.3809 468.089 84.9501C468.227 84.5193 468.446 84.1241 468.733 83.7894L475.712 75.6532C475.848 75.4947 475.954 75.309 476.023 75.1066C476.093 74.9041 476.124 74.689 476.116 74.4734C476.109 74.2578 476.061 74.046 475.977 73.8501C475.894 73.6541 475.775 73.4779 475.627 73.3315C475.48 73.185 475.308 73.0712 475.12 72.9966C474.932 72.9219 474.732 72.8879 474.532 72.8964C474.332 72.9048 474.135 72.9557 473.953 73.0461C473.771 73.1364 473.608 73.2645 473.472 73.423L463.108 85.5047C462.964 85.6719 462.855 85.8692 462.786 86.0844C462.717 86.2995 462.69 86.5277 462.708 86.7544C462.725 86.9812 462.786 87.2017 462.886 87.4018C462.987 87.602 463.125 87.7774 463.292 87.9171L475.542 98.1722C475.81 98.3965 476.139 98.5181 476.478 98.5179Z" fill="#FFB400"/>
<path d="M527.367 161.734H494.903C494.452 161.734 494.018 161.541 493.699 161.197C493.379 160.852 493.2 160.386 493.2 159.899C493.2 159.413 493.379 158.946 493.699 158.602C494.018 158.258 494.452 158.065 494.903 158.065H527.367C527.819 158.065 528.253 158.258 528.572 158.602C528.892 158.946 529.071 159.413 529.071 159.899C529.071 160.386 528.892 160.852 528.572 161.197C528.253 161.541 527.819 161.734 527.367 161.734Z" fill="#FFB400"/>
<path d="M533.088 170.81C532.77 170.81 532.46 170.703 532.201 170.504C531.942 170.305 531.747 170.024 531.644 169.7C531.541 169.376 531.534 169.026 531.625 168.698C531.716 168.369 531.9 168.08 532.151 167.87L540.463 160.911C540.797 160.632 541.074 160.28 541.275 159.88C541.477 159.479 541.599 159.038 541.633 158.584C541.668 158.13 541.615 157.673 541.477 157.242C541.339 156.811 541.12 156.416 540.833 156.081L533.854 147.945C533.718 147.787 533.612 147.601 533.543 147.398C533.474 147.196 533.442 146.981 533.45 146.765C533.458 146.55 533.505 146.338 533.589 146.142C533.673 145.946 533.792 145.77 533.939 145.623C534.086 145.477 534.258 145.363 534.446 145.288C534.634 145.214 534.834 145.18 535.034 145.188C535.235 145.197 535.431 145.248 535.613 145.338C535.795 145.428 535.959 145.556 536.095 145.715L546.459 157.797C546.602 157.964 546.712 158.161 546.781 158.376C546.849 158.591 546.876 158.82 546.859 159.046C546.841 159.273 546.781 159.494 546.68 159.694C546.579 159.894 546.441 160.069 546.275 160.209L534.024 170.464C533.756 170.688 533.427 170.81 533.088 170.81Z" fill="#FFB400"/>
<path d="M476.478 170.81C476.796 170.81 477.106 170.703 477.365 170.504C477.624 170.305 477.819 170.024 477.922 169.7C478.025 169.376 478.032 169.026 477.941 168.698C477.85 168.369 477.666 168.08 477.415 167.87L469.103 160.911C468.769 160.632 468.492 160.28 468.291 159.88C468.09 159.479 467.968 159.038 467.933 158.584C467.898 158.13 467.951 157.673 468.089 157.242C468.227 156.811 468.446 156.416 468.733 156.081L475.712 147.945C475.987 147.625 476.132 147.201 476.116 146.765C476.101 146.33 475.925 145.919 475.627 145.623C475.33 145.328 474.936 145.171 474.532 145.188C474.128 145.205 473.746 145.395 473.472 145.715L463.108 157.797C462.964 157.964 462.855 158.161 462.786 158.376C462.717 158.591 462.69 158.82 462.708 159.046C462.725 159.273 462.786 159.494 462.886 159.694C462.987 159.894 463.125 160.069 463.292 160.209L475.542 170.464C475.81 170.688 476.139 170.81 476.478 170.81Z" fill="#FFB400"/>
<path d="M479.376 165.669L486.2 148.859C486.382 148.415 486.72 148.067 487.14 147.891C487.56 147.715 488.027 147.726 488.44 147.92C488.853 148.114 489.177 148.477 489.343 148.928C489.508 149.379 489.5 149.883 489.322 150.328L482.498 167.139C482.409 167.361 482.28 167.562 482.119 167.73C481.958 167.898 481.767 168.03 481.558 168.119C481.35 168.208 481.127 168.251 480.902 168.247C480.678 168.242 480.456 168.19 480.251 168.093C480.045 167.997 479.859 167.857 479.704 167.683C479.549 167.508 479.427 167.302 479.345 167.077C479.264 166.852 479.225 166.612 479.23 166.37C479.235 166.128 479.285 165.89 479.376 165.669Z" fill="#FFB400"/>
</g>
<defs>
<clipPath id="clip0_1_2433">
<rect width="808.006" height="550.407" fill="white" transform="translate(0.683105 0.593262)"/>
</clipPath>
</defs>
</svg>
