<svg width="146" height="19" viewBox="0 0 146 19" fill="none" xmlns="http://www.w3.org/2000/svg">
<path d="M10.2143 13.9217L14.595 12.8976L16.4253 18.1014L10.2143 13.9217ZM20.2959 7.19556H12.5847L10.2143 0.49707L7.84398 7.19556H0.132812L6.37376 11.3475L4.0034 18.046L10.2443 13.8941L14.0849 11.3475L20.2959 7.19556Z" fill="#FFB400"/>
<path d="M41.5791 13.9217L45.9597 12.8976L47.79 18.1014L41.5791 13.9217ZM51.6606 7.19556H43.9494L41.5791 0.49707L39.2087 7.19556H31.4976L37.7385 11.3475L35.3681 18.046L41.6091 13.8941L45.4497 11.3475L51.6606 7.19556Z" fill="#FFB400"/>
<path d="M72.9438 13.9217L77.3245 12.8976L79.1548 18.1014L72.9438 13.9217ZM83.0254 7.19556H75.3142L72.9438 0.49707L70.5735 7.19556H62.8623L69.1033 11.3475L66.7329 18.046L72.9738 13.8941L76.8144 11.3475L83.0254 7.19556Z" fill="#FFB400"/>
<path d="M104.309 13.9217L108.689 12.8976L110.52 18.1014L104.309 13.9217ZM114.39 7.19556H106.679L104.309 0.49707L101.938 7.19556H94.2271L100.468 11.3475L98.0976 18.046L104.339 13.8941L108.179 11.3475L114.39 7.19556Z" fill="#FFB400"/>
<path d="M135.673 13.9217L140.054 12.8976L141.884 18.1014L135.673 13.9217ZM145.755 7.19556H138.044L135.673 0.49707L133.303 7.19556H125.592L131.833 11.3475L129.462 18.046L135.703 13.8941L139.544 11.3475L145.755 7.19556Z" fill="#FFB400"/>
</svg>
